<svg width="59" height="59" viewBox="0 0 59 59" fill="none" xmlns="http://www.w3.org/2000/svg">
<path d="M21.2031 57.1562H17.5156C17.0068 57.1562 16.5938 56.7432 16.5938 56.2344C16.5938 55.7255 17.0068 55.3125 17.5156 55.3125H21.2031C21.7102 55.3125 22.125 54.8995 22.125 54.3906V50.7031C22.125 50.1943 22.538 49.7812 23.0469 49.7812C23.5557 49.7812 23.9688 50.1943 23.9688 50.7031V54.3906C23.9688 55.9154 22.7279 57.1562 21.2031 57.1562Z" fill="white"/>
<path d="M52.5469 57.1562H50.7031C49.1783 57.1562 47.9375 55.9154 47.9375 54.3906V50.7031C47.9375 50.1943 48.3505 49.7812 48.8594 49.7812C49.3683 49.7812 49.7812 50.1943 49.7812 50.7031V54.3906C49.7812 54.8995 50.1961 55.3125 50.7031 55.3125H52.5469C53.0539 55.3125 53.4688 54.8995 53.4688 54.3906V50.7031C53.4688 50.1943 53.8818 49.7812 54.3906 49.7812C54.8995 49.7812 55.3125 50.1943 55.3125 50.7031V54.3906C55.3125 55.9154 54.0717 57.1562 52.5469 57.1562Z" fill="white"/>
<path d="M56.2344 51.625H21.2031C20.6943 51.625 20.2812 51.212 20.2812 50.7031C20.2812 50.1943 20.6943 49.7812 21.2031 49.7812H56.2344C56.7433 49.7812 57.1562 50.1943 57.1562 50.7031C57.1562 51.212 56.7433 51.625 56.2344 51.625Z" fill="white"/>
<path d="M56.2344 46.4404C55.7255 46.4404 55.3125 46.0274 55.3125 45.5185V43.3281C55.3125 40.0776 52.6225 38.7188 35.9531 38.7188C28.5966 38.7188 24.2343 38.9492 21.3672 39.4876C20.8768 39.5798 20.3845 39.2553 20.2905 38.7519C20.1965 38.2523 20.5246 37.7692 21.0243 37.677C24.0112 37.1147 28.4749 36.875 35.9531 36.875C51.601 36.875 57.1563 37.8503 57.1563 43.3281V45.5185C57.1563 46.0274 56.7433 46.4404 56.2344 46.4404Z" fill="white"/>
<path d="M56.2344 47.9375H48.8594C48.3505 47.9375 47.9375 47.5245 47.9375 47.0156V45.1719C47.9375 43.6471 49.1783 42.4062 50.7031 42.4062H56.2344C56.7432 42.4062 57.1562 42.8193 57.1562 43.3281V47.0156C57.1562 47.5245 56.7432 47.9375 56.2344 47.9375ZM49.7812 46.0938H55.3125V44.25H50.7031C50.1961 44.25 49.7812 44.663 49.7812 45.1719V46.0938Z" fill="white"/>
<path d="M23.0469 47.9375H17.5156C17.0068 47.9375 16.5938 47.5245 16.5938 47.0156C16.5938 46.5068 17.0068 46.0938 17.5156 46.0938H22.125V45.1719C22.125 44.663 21.7102 44.25 21.2031 44.25H20.2812C19.7724 44.25 19.3594 43.837 19.3594 43.3281C19.3594 42.8193 19.7724 42.4062 20.2812 42.4062H21.2031C22.7279 42.4062 23.9688 43.6471 23.9688 45.1719V47.0156C23.9688 47.5245 23.5557 47.9375 23.0469 47.9375Z" fill="white"/>
<path d="M45.1719 47.9375C44.663 47.9375 44.25 47.5245 44.25 47.0156C44.25 45.4908 43.0092 44.25 41.4844 44.25H30.4219C28.8971 44.25 27.6562 45.4908 27.6562 47.0156C27.6562 47.5245 27.2433 47.9375 26.7344 47.9375C26.2255 47.9375 25.8125 47.5245 25.8125 47.0156C25.8125 44.4749 27.8793 42.4062 30.4219 42.4062H41.4844C44.0269 42.4062 46.0938 44.4749 46.0938 47.0156C46.0938 47.5245 45.6807 47.9375 45.1719 47.9375Z" fill="white"/>
<path d="M52.6746 40.0204C52.2874 40.0204 51.9297 39.7771 51.7988 39.3899L48.5741 29.6991C48.3528 29.0483 47.5766 28.3974 46.9165 28.3126C44.9751 28.0674 40.9631 27.6562 35.9536 27.6562C30.9441 27.6562 26.9321 28.0674 24.9888 28.3126C24.3306 28.3974 23.5544 29.0483 23.3313 29.7047L21.7678 34.3988C21.6055 34.8819 21.0856 35.1363 20.6007 34.9833C20.1176 34.8229 19.8577 34.2993 20.0181 33.8181L21.5834 29.1183C22.037 27.7872 23.3995 26.6588 24.7584 26.4836C26.7459 26.2329 30.8446 25.8125 35.9536 25.8125C41.0626 25.8125 45.1613 26.2329 47.1489 26.4836C48.5077 26.6569 49.8721 27.7872 50.3238 29.111L53.5504 38.8073C53.7108 39.2903 53.449 39.8121 52.9677 39.9725C52.87 40.0057 52.7723 40.0204 52.6746 40.0204Z" fill="white"/>
<path d="M2.76754 57.1562C2.71223 57.1562 2.65508 57.1526 2.59976 57.1415C2.10011 57.0512 1.76823 56.5699 1.85858 56.0703L5.54608 35.789L5.53317 27.5641C3.42945 27.1363 1.84383 25.2741 1.84383 23.0469V20.2812C1.84383 17.2317 4.32551 14.75 7.37508 14.75H16.5938C19.6434 14.75 22.1251 17.2317 22.1251 20.2812V23.0469C22.1251 23.8581 21.9112 24.6583 21.5056 25.3552C20.84 26.5039 19.7098 27.2986 18.4376 27.5622V56.2344C18.4376 56.7433 18.0246 57.1562 17.5157 57.1562C17.0068 57.1562 16.5938 56.7433 16.5938 56.2344V26.7344C16.5938 26.2255 17.0068 25.8125 17.5157 25.8125C18.4984 25.8125 19.4148 25.2833 19.9107 24.4315C20.1541 24.013 20.2813 23.5336 20.2813 23.0469V20.2812C20.2813 18.2476 18.6275 16.5938 16.5938 16.5938H7.37508C5.34142 16.5938 3.68758 18.2476 3.68758 20.2812V23.0469C3.68758 24.5717 4.92842 25.8125 6.4532 25.8125C6.96208 25.8125 7.37508 26.2255 7.37508 26.7344V35.9531L3.67283 56.3985C3.5917 56.8447 3.20267 57.1562 2.76754 57.1562Z" fill="white"/>
<path d="M11.9844 12.9062C8.93481 12.9062 6.45312 10.4246 6.45312 7.375C6.45312 4.32544 8.93481 1.84375 11.9844 1.84375C15.0339 1.84375 17.5156 4.32544 17.5156 7.375C17.5156 10.4246 15.0339 12.9062 11.9844 12.9062ZM11.9844 3.6875C9.95072 3.6875 8.29688 5.34134 8.29688 7.375C8.29688 9.40866 9.95072 11.0625 11.9844 11.0625C14.018 11.0625 15.6719 9.40866 15.6719 7.375C15.6719 5.34134 14.018 3.6875 11.9844 3.6875Z" fill="white"/>
<path d="M17.5156 24.8906C17.0068 24.8906 16.5938 24.4776 16.5938 23.9687V23.3806C16.5938 23.104 16.4776 22.8533 16.2656 22.6763C16.0591 22.4993 15.7917 22.4274 15.5225 22.4716L8.75044 23.5981C7.94841 23.7327 7.12978 23.5059 6.50844 22.9805C5.88709 22.4532 5.53125 21.6843 5.53125 20.8694C5.53125 20.3605 5.94425 19.9475 6.45312 19.9475C6.962 19.9475 7.375 20.3605 7.375 20.8694C7.375 21.1441 7.49116 21.3949 7.70134 21.5719C7.91153 21.7489 8.17703 21.8244 8.44806 21.7784L15.2183 20.6518C16.0185 20.5154 16.8353 20.7385 17.4585 21.2658C18.0817 21.7931 18.4375 22.5638 18.4375 23.3806V23.9687C18.4375 24.4776 18.0245 24.8906 17.5156 24.8906Z" fill="white"/>
<path d="M6.45284 57.1563C6.37724 57.1563 6.29796 57.1471 6.22052 57.1268C5.7264 56.9977 5.4314 56.4944 5.5623 56.0021L11.0936 34.799C11.206 34.3657 11.6172 34.067 12.0615 34.1131C12.5077 34.1518 12.8636 34.504 12.9023 34.952L14.746 56.1551C14.7903 56.6621 14.4141 57.1102 13.9071 57.1544C13.4075 57.1968 12.9521 56.8226 12.9096 56.3155L11.5287 40.4316L7.34337 56.4667C7.23643 56.8815 6.86399 57.1563 6.45284 57.1563Z" fill="white"/>
<path d="M17.5156 27.6562H10.1406C9.63175 27.6562 9.21875 27.2433 9.21875 26.7344C9.21875 26.2255 9.63175 25.8125 10.1406 25.8125H17.5156C18.0245 25.8125 18.4375 26.2255 18.4375 26.7344C18.4375 27.2433 18.0245 27.6562 17.5156 27.6562Z" fill="white"/>
</svg>
