<svg width="45" height="45" viewBox="0 0 45 45" fill="none" xmlns="http://www.w3.org/2000/svg">
<g clip-path="url(#clip0_471_722)">
<path d="M6.41318 17.9516H27.3197C27.673 17.9516 27.9604 17.6651 27.9604 17.3109C27.9604 16.9576 27.6739 16.6702 27.3197 16.6702H6.41318C6.05986 16.6702 5.77246 16.9567 5.77246 17.3109C5.77334 17.6651 6.05986 17.9516 6.41318 17.9516Z" fill="white"/>
<path d="M6.41318 23.1407H19.4711C19.8244 23.1407 20.1118 22.8542 20.1118 22.5C20.1118 22.1458 19.8253 21.8593 19.4711 21.8593H6.41318C6.05986 21.8593 5.77246 22.1458 5.77246 22.5C5.77246 22.8542 6.05986 23.1407 6.41318 23.1407Z" fill="white"/>
<path d="M12.5383 27.0483H6.41318C6.05986 27.0483 5.77246 27.3349 5.77246 27.6891C5.77246 28.0424 6.05898 28.3298 6.41318 28.3298H12.5383C12.8916 28.3298 13.179 28.0433 13.179 27.6891C13.179 27.3349 12.8925 27.0483 12.5383 27.0483Z" fill="white"/>
<path d="M44.4134 34.1402C44.1418 33.4749 43.7779 32.8729 43.4264 32.2901C43.0792 31.7162 42.7522 31.1739 42.5176 30.5921C42.4974 30.542 42.4754 30.4919 42.4552 30.4409C42.4481 30.4207 42.4394 30.4005 42.4306 30.3803C42.086 29.5383 41.7099 28.7033 41.3434 27.8947C41.1667 27.5045 40.9839 27.1011 40.8081 26.7038C39.9081 24.6691 37.8901 23.3543 35.6674 23.3543H33.5431V1.79736C33.5431 0.805957 32.7371 0 31.7457 0H12.1417C10.2942 0 8.55752 0.719824 7.25146 2.02588L2.21533 7.06201C0.909277 8.36895 0.189453 10.1057 0.189453 11.9531V12.1456V12.1491V12.1509V43.2035C0.189453 44.1949 0.99541 45.0009 1.98682 45.0009H18.7599H20.4175H32.9032C33.2565 45.0009 33.5439 44.7144 33.5439 44.3602V42.7869H37.7935H37.7943H40.025V43.6298C40.025 44.3856 40.6402 45.0009 41.3961 45.0009H43.0537C43.8096 45.0009 44.4248 44.3856 44.4248 43.6298V38.5005C44.4248 38.468 44.4213 38.4363 44.4169 38.4056C44.4389 38.3256 44.4608 38.2465 44.4837 38.1639C44.6015 37.7473 44.7228 37.3166 44.7755 36.8517C44.881 35.9183 44.7562 34.9813 44.4134 34.1402ZM43.2269 34.6236C43.4888 35.2661 43.5837 35.9859 43.502 36.7058C43.4606 37.0679 43.3578 37.4309 43.2497 37.8158C43.1864 38.0399 43.1214 38.272 43.0669 38.5102C43.0353 38.6473 42.9834 39.0577 42.863 40.0324C42.8041 40.5088 42.7435 41.001 42.6907 41.3947C42.6819 41.458 42.6274 41.5055 42.5633 41.5055H37.7917C37.5008 41.5055 37.2336 41.3464 37.0947 41.0915C37.0947 41.0915 37.0947 41.0906 37.0938 41.0906L36.8653 40.6723C36.447 39.9041 35.6437 39.426 34.7683 39.426H27.0585C26.1831 39.426 25.3789 39.9032 24.9623 40.6705L24.7329 41.0906C24.594 41.3464 24.3269 41.5046 24.0359 41.5046H19.2503C19.1861 41.5046 19.1316 41.4571 19.1229 41.3938C19.0701 41.001 19.0095 40.5097 18.9506 40.0342C18.8302 39.0577 18.7774 38.6464 18.7458 38.5093C18.6913 38.2711 18.6254 38.0391 18.563 37.8149C18.4549 37.43 18.3521 37.067 18.3107 36.7049C18.229 35.9851 18.3239 35.2652 18.5858 34.6228C18.8188 34.0506 19.1413 33.5171 19.4832 32.952C19.6203 32.7252 19.7583 32.4967 19.8928 32.2611C20.4544 33.5013 21.452 35.209 22.9065 35.9314C22.9505 36.2268 23.0577 36.4904 23.1377 36.6891C23.3495 37.2138 23.6879 37.735 24.173 38.2825C24.4763 38.6262 24.9324 38.8573 25.3341 38.8714C27.1842 38.9355 29.0598 38.9681 30.9072 38.9681C32.7556 38.9681 34.6303 38.9355 36.4795 38.8714C36.8803 38.8573 37.3364 38.627 37.6405 38.2834C38.1274 37.7332 38.4658 37.212 38.6759 36.6908C38.7567 36.4922 38.8631 36.2285 38.907 35.9323C40.3625 35.2107 41.3592 33.5021 41.9208 32.262C42.0553 32.4967 42.1933 32.7261 42.3304 32.9528C42.6714 33.518 42.9939 34.0515 43.2269 34.6236ZM25.9651 41.5055L26.0864 41.284C26.2798 40.928 26.6524 40.7065 27.0585 40.7065H34.7683C35.1743 40.7065 35.547 40.928 35.7412 41.2849L35.8616 41.5055H25.9651ZM37.4753 34.9963H24.3383C22.7606 34.9963 21.5319 32.8878 20.9123 31.4068L21.0819 31.4253C21.1004 31.427 21.1188 31.4288 21.1373 31.4297C24.2943 31.6898 27.5814 31.8208 30.9072 31.8208C34.2321 31.8208 37.5192 31.689 40.6763 31.4297C40.6947 31.4288 40.7132 31.4279 40.7316 31.4253L40.9004 31.4068C40.2808 32.8878 39.0529 34.9963 37.4753 34.9963ZM37.4604 36.2769C37.3021 36.6416 37.0464 37.0213 36.6808 37.4344C36.5973 37.5284 36.4742 37.5864 36.4347 37.5917C34.5995 37.6559 32.7397 37.6884 30.9072 37.6884C29.0747 37.6884 27.2141 37.6559 25.3842 37.5926C25.3402 37.5873 25.2154 37.5284 25.1328 37.4344C24.7681 37.023 24.5123 36.6442 24.3532 36.2769H37.4604ZM39.6374 27.2232C39.8149 27.6258 39.9995 28.0318 40.1771 28.4238C40.4284 28.9784 40.6842 29.5453 40.9303 30.1157L40.613 30.15C40.6068 30.15 40.6007 30.1509 40.5945 30.1509C37.4656 30.4093 34.2058 30.5402 30.9081 30.5402C27.6087 30.5402 24.3497 30.4093 21.2208 30.1509C21.2146 30.15 21.2085 30.15 21.2015 30.15L20.8851 30.1157C21.1312 29.5453 21.3869 28.9784 21.6383 28.423C21.8158 28.031 21.9995 27.6249 22.1771 27.2232C22.8723 25.6518 24.4306 24.6366 26.1462 24.6366H35.6691C37.3839 24.6366 38.9422 25.6518 39.6374 27.2232ZM8.15674 2.93203C8.45557 2.6332 8.78164 2.37393 9.12969 2.15332C8.98291 2.53125 8.90117 2.94082 8.90117 3.36973V6.69023C8.90117 7.8416 7.96426 8.77852 6.81289 8.77852H3.55918C3.10918 8.77852 2.67939 8.86816 2.28652 9.029C2.51855 8.64756 2.79717 8.2916 3.12061 7.96816L8.15674 2.93203ZM1.47002 43.2026V12.1447C1.47178 10.9942 2.40781 10.0591 3.5583 10.0591H6.81289C8.6709 10.0591 10.1826 8.54736 10.1826 6.68936V3.36973C10.1826 2.21836 11.1195 1.28145 12.2709 1.28145H31.7457C32.0305 1.28145 32.2625 1.51348 32.2625 1.79824V23.3569H26.1444C23.9217 23.3569 21.9037 24.6718 21.0037 26.7064C20.8279 27.1028 20.646 27.5063 20.4693 27.8965C20.1037 28.7042 19.7275 29.5383 19.383 30.3803C19.3698 30.4066 19.3584 30.433 19.3496 30.4611C19.3312 30.506 19.3127 30.5499 19.2942 30.5947C19.0604 31.1774 18.7326 31.7188 18.3863 32.2928C18.0348 32.8755 17.67 33.4775 17.3993 34.1429C17.0565 34.984 16.9317 35.9209 17.0381 36.8534C17.0908 37.3184 17.2121 37.749 17.3299 38.1656C17.3598 38.2711 17.3879 38.373 17.4151 38.4741C17.3984 38.5312 17.3888 38.5928 17.3888 38.6552V43.6315C17.3888 43.6623 17.3914 43.6922 17.3932 43.7221H1.98682C1.70205 43.7194 1.47002 43.4874 1.47002 43.2026ZM18.7599 43.7194C18.7098 43.7194 18.6693 43.679 18.6693 43.6289V42.6595C18.8469 42.7403 19.0429 42.786 19.2485 42.786H20.5071V43.6289C20.5071 43.679 20.4667 43.7194 20.4166 43.7194H18.7599ZM32.2625 43.7194H21.7842C21.7859 43.6895 21.7886 43.6597 21.7886 43.6289V42.786H24.0333H24.0342H32.2625V43.7194ZM43.052 43.7194H41.3943C41.3442 43.7194 41.3038 43.679 41.3038 43.6289V42.786H42.5624C42.7681 42.786 42.9641 42.7403 43.1416 42.6595V43.6289C43.1425 43.679 43.1021 43.7194 43.052 43.7194Z" fill="white"/>
<path d="M42.1214 34.8469C41.4543 34.875 40.7995 35.0877 40.2283 35.4613C39.8204 35.7276 39.4847 36.1073 39.2562 36.5599L38.7482 37.5663V37.5671C38.6383 37.786 38.6541 38.0479 38.7912 38.2509C38.9178 38.4399 39.1305 38.5515 39.3555 38.5515C39.3731 38.5515 39.3915 38.5506 39.4091 38.5498C41.0404 38.4206 41.9782 38.1024 42.4791 37.8581C42.8861 37.6594 43.1497 37.2375 43.1497 36.784V36.1205C43.1497 35.1756 42.5292 34.8759 42.2014 34.8496C42.1742 34.846 42.1478 34.846 42.1214 34.8469ZM41.8683 36.7295C41.6178 36.8456 41.1573 37.0125 40.3988 37.1409L40.4005 37.1374C40.528 36.886 40.7108 36.6768 40.9305 36.5335C41.2241 36.3419 41.5387 36.2163 41.8692 36.16V36.7295H41.8683Z" fill="white"/>
<path d="M23.0648 37.5662L22.5568 36.5598C22.3283 36.1072 21.9926 35.7275 21.5848 35.4612C21.0135 35.0877 20.3587 34.8758 19.6916 34.8468C19.6652 34.846 19.6397 34.846 19.6134 34.8486C19.2855 34.875 18.665 35.1747 18.665 36.1195V36.7831C18.665 37.2366 18.9278 37.6585 19.3356 37.8571C19.8357 38.1014 20.7744 38.4187 22.4057 38.5488C22.4232 38.5505 22.4417 38.5505 22.4593 38.5505C22.6843 38.5505 22.897 38.4381 23.0235 38.25C23.158 38.0469 23.1747 37.785 23.0648 37.5662ZM19.9447 36.7295V36.1599C20.2752 36.2162 20.5898 36.3419 20.8834 36.5335C21.1031 36.6767 21.2859 36.8859 21.4125 37.1373L21.4143 37.1408C20.6558 37.0116 20.1952 36.8446 19.9447 36.7295Z" fill="white"/>
<path d="M23.2251 27.2171C23.0721 27.5203 22.9148 27.8253 22.7593 28.125C22.6432 28.35 22.5255 28.5776 22.4086 28.807C22.311 28.9986 22.3163 29.2263 22.4218 29.4135C22.5281 29.6007 22.7206 29.722 22.9359 29.7369C25.5208 29.9118 28.2023 30.0006 30.9067 30.0006C33.6111 30.0006 36.2918 29.9118 38.8766 29.7369C39.0911 29.722 39.2844 29.6007 39.3908 29.4135C39.4971 29.2263 39.5024 28.9986 39.404 28.807C39.2871 28.5776 39.1693 28.35 39.0507 28.1197C38.8986 27.8244 38.7404 27.5194 38.5875 27.2171C37.9626 25.977 36.5774 25.1763 35.0595 25.1763H26.7512C25.2351 25.1763 23.85 25.977 23.2251 27.2171ZM24.3685 27.7937C24.7781 26.9815 25.7141 26.4568 26.753 26.4568H35.0613C36.1002 26.4568 37.0353 26.9815 37.4458 27.7937C37.5679 28.0354 37.6927 28.2788 37.8176 28.5196C35.5649 28.6523 33.2455 28.7191 30.9085 28.7191C28.5715 28.7191 26.2511 28.6523 23.9985 28.5196C24.1207 28.2806 24.2455 28.0371 24.3685 27.7937Z" fill="white"/>
</g>
<defs>
<clipPath id="clip0_471_722">
<rect width="45" height="45" fill="white"/>
</clipPath>
</defs>
</svg>
