<svg width="30" height="45" viewBox="0 0 30 45" fill="none" xmlns="http://www.w3.org/2000/svg">
<path d="M16.8658 35.2168C15.3266 35.2168 14.0742 36.4691 14.0742 38.0084C14.0742 39.5476 15.3266 40.8 16.8658 40.8C18.4051 40.8 19.6574 39.5476 19.6574 38.0084C19.6574 36.4691 18.4051 35.2168 16.8658 35.2168ZM16.8658 39.6368C15.9678 39.6368 15.2374 38.9063 15.2374 38.0084C15.2374 37.1104 15.9678 36.38 16.8658 36.38C17.7638 36.38 18.4942 37.1104 18.4942 38.0084C18.4942 38.9063 17.7638 39.6368 16.8658 39.6368Z" fill="white"/>
<path d="M20.4723 27.8888C21.4343 27.8888 22.217 27.1061 22.217 26.144C22.217 25.182 21.4343 24.3993 20.4723 24.3993C19.5102 24.3993 18.7275 25.182 18.7275 26.144C18.7275 27.1061 19.5102 27.8888 20.4723 27.8888ZM20.4723 25.5625C20.793 25.5625 21.0539 25.8233 21.0539 26.144C21.0539 26.4647 20.793 26.7256 20.4723 26.7256C20.1516 26.7256 19.8907 26.4647 19.8907 26.144C19.8907 25.8233 20.1516 25.5625 20.4723 25.5625Z" fill="white"/>
<path d="M29.4766 9.30609C29.0986 8.89247 28.5606 8.6553 28.0004 8.6553H10.9035L9.84638 3.01898C9.64468 1.94375 8.84385 1.12989 7.8533 0.993799L0.660786 0.00546177C0.342546 -0.0381567 0.0491966 0.184239 0.00546177 0.50248C-0.0381567 0.820721 0.18424 1.11407 0.50248 1.1578L7.695 2.14614C8.18876 2.21395 8.594 2.65084 8.70322 3.23335L9.72006 8.6553H6.42913C5.86907 8.6553 5.33099 8.89247 4.95308 9.30597C4.57517 9.71948 4.38732 10.2766 4.43757 10.8346L7.35419 43.1673C7.44794 44.2048 8.30403 44.9873 9.34587 44.9873H25.0839C26.1256 44.9873 26.9818 44.2048 27.0753 43.1674L29.992 10.8347C30.0423 10.2767 29.8545 9.71959 29.4766 9.30609ZM5.59596 10.7301C5.57456 10.4932 5.65121 10.2662 5.81161 10.0906C5.97201 9.91512 6.19138 9.81846 6.42913 9.81846H9.93815L11.1296 16.1712H6.08681L5.59596 10.7301ZM25.9171 43.0627C25.8779 43.4967 25.5197 43.824 25.0839 43.824H9.34587C8.91003 43.824 8.55178 43.4967 8.5127 43.0627L6.19173 17.3343H28.238L25.9171 43.0627ZM28.8337 10.7301L28.3428 16.1712H12.3131L11.1217 9.81846H28.0005C28.2383 9.81846 28.4576 9.91512 28.618 10.0906C28.7786 10.2663 28.8551 10.4933 28.8337 10.7301Z" fill="white"/>
<path d="M15.6451 23.3526C16.8957 23.3526 17.9133 22.3351 17.9133 21.0844C17.9133 19.8338 16.8957 18.8163 15.6451 18.8163C14.3945 18.8163 13.377 19.8338 13.377 21.0844C13.377 22.3351 14.3945 23.3526 15.6451 23.3526ZM15.6451 19.9794C16.2544 19.9794 16.7501 20.4752 16.7501 21.0844C16.7501 21.6937 16.2544 22.1894 15.6451 22.1894C15.0359 22.1894 14.5401 21.6937 14.5401 21.0844C14.5401 20.4752 15.0359 19.9794 15.6451 19.9794Z" fill="white"/>
<path d="M13.9583 31.1457C14.728 31.1457 15.3541 30.5195 15.3541 29.7499C15.3541 28.9803 14.728 28.3541 13.9583 28.3541C13.1886 28.3541 12.5625 28.9803 12.5625 29.7499C12.5625 30.5196 13.1886 31.1457 13.9583 31.1457ZM13.9583 29.5173C14.0865 29.5173 14.1909 29.6216 14.1909 29.7499C14.1909 29.8782 14.0866 29.9825 13.9583 29.9825C13.83 29.9825 13.7257 29.8782 13.7257 29.7499C13.7257 29.6216 13.83 29.5173 13.9583 29.5173Z" fill="white"/>
</svg>
