<svg width="123" height="23" viewBox="0 0 123 23" fill="none" xmlns="http://www.w3.org/2000/svg">
<path d="M120.517 22.1556L111.646 0H109.978L101.599 22.1556H99.5381V23H105.17V22.1556H103.11L105.975 14.5961H113.275L116.297 22.1556H114.315V23H115.944C117.593 23 119.241 23 120.909 23H122.538V22.1556H120.517ZM106.289 13.7517L109.507 5.22727L112.922 13.7517H106.289Z" fill="white"/>
<path d="M14.3126 0.863753H16.3333V14.5031H16.294L7.17144 0H0.461914V0.863753H2.48262V22.1362H0.461914V23H6.09242V22.1362H4.0521V3.13362H4.16981L16.7256 23H17.9027V0.863753H19.9235V0H14.3126V0.863753Z" fill="white"/>
<path d="M44.3267 0H35.8457V0.844402H37.7912V22.1556H35.8457V23H51.7688V15.7622H51.3721C51.1832 16.6469 50.9188 17.4913 50.5599 18.2753C50.2199 19.0594 49.7855 19.743 49.2566 20.326C48.7277 20.9091 48.1233 21.3514 47.4433 21.6932C46.7633 22.0149 46.0833 22.1757 45.1578 22.1757H41.7956V11.1984H43.3067C43.9489 11.1984 44.7989 11.3191 45.2333 11.5603C45.6678 11.8217 46.0267 12.1434 46.3289 12.5656C46.6122 12.9878 46.8389 13.4301 47.0277 13.993C47.2166 14.5559 47.3489 14.9379 47.4811 15.521H47.8777V5.83042H47.4811C47.3489 6.53409 47.1977 6.91608 46.99 7.47902C46.7633 8.04195 46.5366 8.54458 46.2155 8.94668C45.9133 9.34878 45.5167 9.67045 45.0444 9.8715C44.5722 10.0927 44.0056 10.1932 43.3256 10.1932H41.8145V0.864508H46.1589C47.16 0.864508 47.8211 1.06556 48.4444 1.44755C49.0677 1.82954 49.5777 2.29196 49.9744 2.79458C50.371 3.31731 50.6732 3.86014 50.8999 4.40297C51.1266 4.9458 51.2777 5.40821 51.3721 5.75H51.7688V0H44.3267Z" fill="white"/>
<path d="M83.0108 0.844408H85.1401L79.145 9.18794L74.2249 0.844408H76.3542V0H74.6384C72.9019 0 71.1654 0 69.4082 0H67.6924V0.844408H69.8217L76.7263 12.5455L69.8217 22.1556H67.6924V23H73.6254V22.1556H71.4961L77.4705 13.8121L82.3906 22.1556H80.2613V23H81.9772C83.7137 23 85.4502 23 87.2073 23H88.9232V22.1556H86.7939L79.8892 10.4545L86.7732 0.844408H88.9025V0H82.9901V0.844408" fill="white"/>
</svg>
