<svg width="59" height="59" viewBox="0 0 59 59" fill="none" xmlns="http://www.w3.org/2000/svg">
<path d="M54.6387 31.3643V26.5194C54.6387 24.3528 52.876 22.5889 50.7082 22.5889H32.696C31.3802 22.5889 30.2136 23.2401 29.5 24.2353C28.7864 23.2389 27.6198 22.5889 26.304 22.5889H8.29183C6.12523 22.5889 4.36135 24.3516 4.36135 26.5194V31.3643C1.90098 31.7045 0 33.821 0 36.3731V52.3937C0 53.8112 1.15307 54.9643 2.57054 54.9643H16.0022L14.4171 57.9192C14.2249 58.2766 14.3595 58.7221 14.7169 58.9131C14.8271 58.9718 14.9459 59 15.0634 59C15.3253 59 15.5787 58.8592 15.7109 58.612L17.6682 54.963H41.3294L43.2867 58.612C43.4189 58.8592 43.6722 59 43.9342 59C44.0517 59 44.1704 58.9718 44.2806 58.9131C44.638 58.7209 44.7727 58.2766 44.5805 57.9192L42.9953 54.9643H56.4295C57.8469 54.9643 59 53.8112 59 52.3937V36.3731C59 33.821 57.099 31.7045 54.6387 31.3643ZM32.696 24.0578H50.7094C52.0669 24.0578 53.171 25.1619 53.171 26.5194V31.3643C50.7106 31.7045 48.8096 33.821 48.8096 36.3731V40.8642C48.3151 40.5472 47.7288 40.3636 47.1009 40.3636H31.9432C31.3141 40.3636 30.7277 40.5484 30.2344 40.8642V26.5194C30.2344 25.1619 31.3385 24.0578 32.696 24.0578ZM46.5696 45.4055C46.0616 44.5144 45.1032 43.9122 44.0076 43.9122H30.2344V43.5413C30.2344 42.5987 31.0007 41.8325 31.9432 41.8325H47.0984C48.0409 41.8325 48.8072 42.5987 48.8072 43.5413V45.4055H46.5696ZM39.0122 48.3408C39.0098 48.3408 39.0085 48.3408 39.0061 48.3408H19.9915H19.9902H14.9924C14.1771 48.3408 13.5125 47.6774 13.5125 46.8609C13.5125 46.0445 14.1759 45.381 14.9924 45.381H44.0076C44.8229 45.381 45.4875 46.0445 45.4875 46.8609C45.4875 47.6774 44.8241 48.3408 44.0076 48.3408H39.0122ZM12.4304 45.4055H10.1916V43.5413C10.1916 42.5987 10.9578 41.8325 11.9004 41.8325H27.0555C27.9981 41.8325 28.7643 42.5987 28.7643 43.5413V43.9122H14.9924C13.8956 43.9122 12.9384 44.5144 12.4304 45.4055ZM8.29183 24.0578H26.3052C27.6627 24.0578 28.7668 25.1619 28.7668 26.5194V40.8642C28.2723 40.5472 27.6859 40.3636 27.058 40.3636H11.9004C11.2712 40.3636 10.6849 40.5484 10.1916 40.8642V36.3731C10.1916 33.821 8.2906 31.7045 5.83023 31.3643V26.5194C5.83023 25.1619 6.93434 24.0578 8.29183 24.0578ZM2.57054 53.4954C1.9634 53.4954 1.46888 53.0009 1.46888 52.3937V36.3731C1.46888 34.3938 3.07853 32.7842 5.05784 32.7842H5.13373C7.11305 32.7842 8.7227 34.3938 8.7227 36.3731V46.14C8.7227 46.5451 9.05197 46.8744 9.45714 46.8744H12.0448C12.0522 48.4938 13.3717 49.8085 14.9924 49.8085H18.7674L16.7905 53.4941H2.57054V53.4954ZM18.4577 53.4954L20.4346 49.8097H38.5667L40.5435 53.4954H18.4577ZM57.5311 52.3937C57.5311 53.0009 57.0366 53.4954 56.4295 53.4954H42.2095L40.2326 49.8097H44.0076C45.6283 49.8097 46.9478 48.4951 46.9552 46.8756H49.5429C49.948 46.8756 50.2773 46.5463 50.2773 46.1412V36.3744C50.2773 34.395 51.887 32.7854 53.8663 32.7854H53.9422C55.9215 32.7854 57.5311 34.395 57.5311 36.3744V52.3937ZM7.01145 14.0229C10.8771 14.0229 14.0229 10.8771 14.0229 7.01145C14.0229 3.14585 10.8771 0 7.01145 0C3.14585 0 0 3.14585 0 7.01145C0 10.8771 3.14585 14.0229 7.01145 14.0229ZM7.01145 1.46888C10.0679 1.46888 12.554 3.95496 12.554 7.01145C12.554 10.0679 10.0679 12.554 7.01145 12.554C3.95496 12.554 1.46888 10.0679 1.46888 7.01145C1.46888 3.95496 3.95496 1.46888 7.01145 1.46888ZM6.27701 7.01145V3.80195C6.27701 3.39678 6.60629 3.06751 7.01145 3.06751C7.41662 3.06751 7.74589 3.39678 7.74589 3.80195V6.5867L10.1573 7.97969C10.5086 8.18288 10.6286 8.63212 10.4266 8.98342C10.2907 9.21844 10.0435 9.35064 9.79008 9.35064C9.66523 9.35064 9.53915 9.31882 9.42409 9.25272L6.64546 7.64797C6.41656 7.51577 6.27701 7.2734 6.27701 7.01145Z" fill="white"/>
</svg>
