<svg width="56" height="56" viewBox="0 0 56 56" fill="none" xmlns="http://www.w3.org/2000/svg">
<g clip-path="url(#clip0_672_4128)">
<path d="M54.25 28.171H52.5268V11.2336L54.3122 9.04006C54.4552 8.86452 54.513 8.63461 54.4703 8.41225L53.1623 1.60552C53.093 1.24502 52.7776 0.984375 52.4104 0.984375H48.1778C47.8108 0.984375 47.4952 1.24502 47.426 1.60552L46.118 8.41225C46.0752 8.63461 46.1332 8.86452 46.276 9.04006L48.0615 11.2337V28.171H46.3382C45.9154 28.171 45.5726 28.5137 45.5726 28.9366V50.2941C45.5726 52.8976 47.6907 55.0156 50.2941 55.0156C52.8976 55.0156 55.0156 52.8976 55.0156 50.2941V28.9366C55.0156 28.5137 54.6728 28.171 54.25 28.171ZM49.4209 10.4781L47.689 8.35056L48.8103 2.51562H51.778L52.8992 8.35056L51.1675 10.478C51.0564 10.6146 50.9957 10.7854 50.9957 10.9613V28.1711H49.5928V10.9615C49.5927 10.7854 49.532 10.6147 49.4209 10.4781ZM53.4844 50.2941C53.4844 52.0532 52.0533 53.4844 50.2941 53.4844C48.5349 53.4844 47.1039 52.0532 47.1039 50.2941V29.7022H53.4844V50.2941ZM13.8385 9.26658C13.8385 7.12195 12.0936 5.37698 9.94886 5.37698C7.80412 5.37698 6.05927 7.12195 6.05927 9.26658C6.05927 11.4112 7.80412 13.1562 9.94886 13.1562C12.0936 13.1562 13.8385 11.4113 13.8385 9.26658ZM9.94886 11.6249C8.6485 11.6249 7.59052 10.5669 7.59052 9.26658C7.59052 7.96622 8.6485 6.90823 9.94886 6.90823C11.2492 6.90823 12.3072 7.96622 12.3072 9.26658C12.3072 10.5669 11.2492 11.6249 9.94886 11.6249ZM13.8305 39.01V16.5838C16.5195 15.1548 18.2312 12.3351 18.2312 9.26669C18.2312 4.69973 14.5157 0.984375 9.94886 0.984375C5.38202 0.984375 1.66655 4.69984 1.66655 9.26669C1.66655 12.3351 3.37816 15.1547 6.06725 16.5838V39.01C2.96286 40.4984 0.984375 43.6167 0.984375 47.0924C0.984375 50.3334 2.74302 53.332 5.57397 54.918C5.81098 55.0507 6.10083 55.048 6.33522 54.9105C6.56972 54.7731 6.71377 54.5217 6.71377 54.25V48.3077L9.94886 45.5459L13.184 48.3077V54.25C13.184 54.5217 13.328 54.7731 13.5625 54.9105C13.6819 54.9806 13.8157 55.0156 13.9496 55.0156C14.0785 55.0156 14.2075 54.9831 14.3238 54.918C17.1547 53.332 18.9133 50.3335 18.9133 47.0924C18.9133 43.6167 16.9349 40.4984 13.8305 39.01ZM14.7152 52.7959V47.9546C14.7152 47.7306 14.6171 47.5177 14.4467 47.3723L10.446 43.9568C10.3028 43.8347 10.1258 43.7735 9.94886 43.7735C9.77189 43.7735 9.59492 43.8347 9.45175 43.9568L5.45103 47.3723C5.28063 47.5177 5.18252 47.7306 5.18252 47.9546V52.7959C3.51159 51.3969 2.51562 49.3132 2.51562 47.0924C2.51562 44.0659 4.32458 41.3663 7.12414 40.215C7.41114 40.097 7.5985 39.8173 7.5985 39.5069V16.1081C7.5985 15.8083 7.42339 15.5361 7.15061 15.4116C4.74928 14.316 3.19769 11.904 3.19769 9.26658C3.1978 5.54411 6.22628 2.51562 9.94886 2.51562C13.6714 2.51562 16.6999 5.54411 16.6999 9.26669C16.6999 11.904 15.1483 14.3162 12.7471 15.4117C12.4743 15.5362 12.2992 15.8084 12.2992 16.1082V39.5071C12.2992 39.8175 12.4866 40.0972 12.7736 40.2152C15.5731 41.3665 17.382 44.0661 17.382 47.0926C17.3821 49.3133 16.386 51.3969 14.7152 52.7959ZM40.5706 8.27312H23.9754C23.7724 8.27312 23.5776 8.35373 23.434 8.49734L19.131 12.8004C18.9874 12.944 18.9068 13.1388 18.9068 13.3418V35.502C18.9068 35.9249 19.2496 36.2677 19.6724 36.2677H23.4364C23.3165 36.4679 23.056 36.7628 22.5611 36.7628C21.8459 36.7628 21.264 37.3447 21.264 38.06V39.6782C21.264 40.3935 21.8459 40.9754 22.5611 40.9754C23.1954 40.9754 23.4455 41.4602 23.507 41.6088C23.5686 41.7574 23.7345 42.277 23.2859 42.7257C22.7803 43.2316 22.7804 44.0544 23.286 44.5601L24.4304 45.7045C24.6754 45.9494 25.0012 46.0844 25.3477 46.0844C25.6942 46.0844 26.0199 45.9495 26.265 45.7044C26.7143 45.255 27.2337 45.4207 27.3822 45.4822C27.5307 45.5436 28.0152 45.7938 28.0152 46.4294C28.0152 47.1447 28.5971 47.7265 29.3123 47.7265H30.9306C31.6458 47.7265 32.2277 47.1447 32.2277 46.4294C32.2277 45.7952 32.7125 45.5451 32.8612 45.4836C33.0097 45.4221 33.5296 45.256 33.978 45.7046C34.223 45.9495 34.5487 46.0845 34.8952 46.0845C35.2417 46.0845 35.5674 45.9496 35.8124 45.7046L36.9568 44.5602C37.4626 44.0545 37.4626 43.2317 36.9568 42.7256C36.5084 42.2772 36.6743 41.7575 36.7359 41.6089C36.7975 41.4603 37.0476 40.9755 37.6818 40.9755C38.3971 40.9755 38.979 40.3936 38.979 39.6783V38.0601C38.979 37.3448 38.3971 36.7629 37.6818 36.7629C37.1867 36.7629 36.9264 36.468 36.8064 36.2678H40.5706C40.9934 36.2678 41.3362 35.925 41.3362 35.5021V9.03875C41.3362 8.61591 40.9934 8.27312 40.5706 8.27312ZM23.2098 10.8872V12.5762H21.5208L23.2098 10.8872ZM37.4477 38.284V39.4544C36.4963 39.537 35.6943 40.1221 35.3212 41.023C34.948 41.9239 35.1015 42.9048 35.7158 43.6359L34.8881 44.4636C34.1569 43.8491 33.1761 43.6957 32.2751 44.069C31.3743 44.4421 30.7893 45.2442 30.7066 46.1955H29.5363C29.4537 45.2432 28.8687 44.4407 27.9682 44.0677C27.0675 43.6947 26.0865 43.8484 25.3548 44.4636L24.5271 43.6359C25.1414 42.9046 25.2948 41.9239 24.9216 41.023C24.5485 40.1222 23.7466 39.537 22.7952 39.4544V38.284C23.7466 38.2014 24.5486 37.6162 24.9216 36.7154C25.2948 35.8146 25.1415 34.8338 24.5271 34.1025L25.3548 33.2748C26.0859 33.8892 27.0668 34.0424 27.9676 33.6693C28.8684 33.2963 29.4536 32.4943 29.5363 31.5429H30.7066C30.7893 32.4943 31.3743 33.2963 32.2751 33.6693C33.1758 34.0425 34.1567 33.8892 34.8881 33.2748L35.7158 34.1025C35.1014 34.8338 34.948 35.8145 35.3212 36.7154C35.6944 37.6162 36.4964 38.2014 37.4477 38.284ZM39.805 34.7365H37.1658C37.4473 34.2416 37.3785 33.6 36.9568 33.1781L35.8124 32.0338C35.5674 31.7889 35.2417 31.6539 34.8952 31.6539C34.5487 31.6539 34.223 31.7887 33.978 32.0338C33.5295 32.4824 33.0097 32.3164 32.8612 32.2548C32.7125 32.1933 32.2277 31.9431 32.2277 31.3089C32.2277 30.5937 31.6458 30.0118 30.9306 30.0118H29.3123C28.5971 30.0118 28.0152 30.5937 28.0152 31.3089C28.0152 31.9432 27.5303 32.1933 27.3817 32.2548C27.2332 32.3164 26.7134 32.4824 26.2649 32.0338C26.0199 31.7889 25.6942 31.6539 25.3477 31.6539C25.0012 31.6539 24.6754 31.7887 24.4304 32.0338L23.2859 33.1784C22.8644 33.6 22.7957 34.2416 23.0771 34.7365H20.438V14.1074H23.9754C24.3983 14.1074 24.7411 13.7646 24.7411 13.3418V9.80437H39.8051V34.7365H39.805ZM37.4803 20.4758C37.4803 20.8986 37.1375 21.2414 36.7147 21.2414H23.5283C23.1055 21.2414 22.7627 20.8986 22.7627 20.4758C22.7627 20.0529 23.1055 19.7101 23.5283 19.7101H36.7148C37.1375 19.7101 37.4803 20.0529 37.4803 20.4758ZM37.4803 24.065C37.4803 24.4879 37.1375 24.8306 36.7147 24.8306H23.5283C23.1055 24.8306 22.7627 24.4879 22.7627 24.065C22.7627 23.6422 23.1055 23.2994 23.5283 23.2994H36.7148C37.1375 23.2994 37.4803 23.6422 37.4803 24.065ZM36.7147 16.1208C37.1375 16.1208 37.4803 16.4636 37.4803 16.8864C37.4803 17.3092 37.1375 17.652 36.7147 17.652H23.5283C23.1055 17.652 22.7627 17.3092 22.7627 16.8864C22.7627 16.4636 23.1055 16.1208 23.5283 16.1208H36.7147ZM30.8871 27.6544C30.8871 28.0772 30.5443 28.42 30.1214 28.42H23.5282C23.1054 28.42 22.7626 28.0772 22.7626 27.6544C22.7626 27.2315 23.1054 26.8888 23.5282 26.8888H30.1214C30.5444 26.8888 30.8871 27.2314 30.8871 27.6544ZM30.1214 34.2157C27.5555 34.2157 25.4679 36.3033 25.4679 38.8693C25.4679 41.4352 27.5555 43.5228 30.1214 43.5228C32.6874 43.5228 34.775 41.4352 34.775 38.8693C34.775 36.3033 32.6875 34.2157 30.1214 34.2157ZM30.1214 41.9916C28.3998 41.9916 26.9991 40.5909 26.9991 38.8693C26.9991 37.1476 28.3998 35.7469 30.1214 35.7469C31.8431 35.7469 33.2438 37.1476 33.2438 38.8693C33.2438 40.5909 31.8431 41.9916 30.1214 41.9916Z" fill="white"/>
</g>
<defs>
<clipPath id="clip0_672_4128">
<rect width="56" height="56" fill="white"/>
</clipPath>
</defs>
</svg>
