<svg width="65" height="65" viewBox="0 0 65 65" fill="none" xmlns="http://www.w3.org/2000/svg">
<g clip-path="url(#clip0_672_4021)">
<path d="M60.4543 53.0209L54.8728 30.9501C54.8151 30.7215 54.6688 30.5252 54.4662 30.4046C54.2637 30.2837 54.0213 30.2486 53.7928 30.3064L45.775 32.3362C45.2992 32.4565 45.011 32.94 45.1314 33.4158L45.8588 36.2915L43.5685 36.9691C36.8559 32.8841 33.3649 32.1541 30.049 34.1477H19.6799L19.865 33.4155C19.9852 32.9397 19.6972 32.4565 19.2215 32.336L11.2073 30.3063C10.9789 30.2483 10.7367 30.2835 10.5339 30.4043C10.3313 30.5251 10.1852 30.7213 10.1273 30.95L4.54568 53.0208C4.48792 53.2494 4.52321 53.4915 4.64394 53.6941C4.7648 53.8966 4.96107 54.0427 5.18958 54.1005L13.2074 56.1266C13.2806 56.1451 13.3538 56.1538 13.4259 56.1538C13.8233 56.1538 14.1852 55.8855 14.287 55.4826L15.0253 52.5621L26.4357 63.9724C27.1219 64.6584 28.0232 65.0016 28.9246 65.0016C29.826 65.0016 30.7275 64.6584 31.4137 63.9723C31.8528 63.5331 32.1614 62.9975 32.3201 62.4126L33.8044 63.8956C34.4659 64.5594 35.3486 64.9254 36.2901 64.9263H36.2932C37.2352 64.9263 38.1197 64.5607 38.7837 63.8968C39.3166 63.3639 39.6569 62.6872 39.7693 61.9518C41.0146 62.4026 42.4654 62.1294 43.463 61.1321C44.2002 60.3923 44.5401 59.4023 44.4827 58.4319C44.5528 58.436 44.6231 58.438 44.6938 58.438C45.6374 58.438 46.5216 58.072 47.1819 57.4095C47.9583 56.6358 48.2964 55.5843 48.1957 54.5688L50.2301 53.5748L50.7128 55.4829C50.8148 55.8857 51.1766 56.154 51.5739 56.154C51.6459 56.154 51.7193 56.1452 51.7923 56.1267L59.8101 54.1006C60.0388 54.0429 60.2351 53.8967 60.3559 53.6943C60.4768 53.4916 60.5121 53.2494 60.4543 53.0209ZM12.7814 54.1853L6.48717 52.5948L11.6327 32.2481L17.9237 33.8415L12.7814 54.1853ZM45.9249 56.1525C45.5986 56.48 45.1614 56.6603 44.6941 56.6603C44.2268 56.6603 43.7896 56.48 43.4633 56.1525V56.1525L43.4621 56.1514L35.5631 48.2523C35.216 47.9052 34.6531 47.9054 34.306 48.2523C33.9589 48.5994 33.9589 49.1623 34.306 49.5094L42.2039 57.4074C42.8826 58.0882 42.8826 59.1963 42.2051 59.876C41.8788 60.2024 41.4412 60.3821 40.9732 60.3821C40.505 60.3821 40.0675 60.2024 39.7413 59.876L38.784 58.9188L30.8849 51.0196C30.5378 50.6725 29.9749 50.6725 29.6278 51.0196C29.2807 51.3667 29.2807 51.9296 29.6278 52.2767L37.527 60.1758C38.2063 60.8552 38.2063 61.9604 37.527 62.6396C37.1988 62.9679 36.7608 63.1486 36.2936 63.1486H36.292C35.8259 63.1482 35.39 62.9678 35.0625 62.6394L31.5162 59.0966L27.1602 54.7406C26.8131 54.3935 26.2502 54.3935 25.9031 54.7406C25.556 55.0877 25.556 55.6506 25.9031 55.9977L30.1616 60.2562C30.4863 60.5817 30.6651 61.0163 30.6655 61.4804C30.666 61.9482 30.4852 62.3867 30.1568 62.7153C29.4771 63.3947 28.3719 63.3945 27.6928 62.7153L15.5326 50.5551L19.2305 35.9255H27.7813C26.4601 37.1867 25.0647 38.8472 23.3839 40.8479C22.6602 41.7094 21.9118 42.6002 21.0788 43.5689C20.7846 43.9109 20.7934 44.4191 21.0991 44.7509C22.4019 46.1643 23.9097 46.9297 25.5803 47.0259C27.6654 47.1502 29.3326 46.0763 30.8059 45.1314C32.6707 43.9356 34.151 42.9863 36.253 44.0143L45.926 53.6873L45.9361 53.6972L45.9371 53.6983L45.9391 53.7006C45.9833 53.7455 46.0251 53.793 46.064 53.8428C46.0656 53.8447 46.0667 53.8467 46.0682 53.8486C46.1867 54.0011 46.2801 54.1739 46.3419 54.3572C46.3433 54.3614 46.3454 54.3653 46.3469 54.3696C46.5476 54.9753 46.4081 55.671 45.9249 56.1525ZM47.5736 52.8942C47.5186 52.8161 47.4598 52.7398 47.3974 52.6654C47.395 52.6626 47.3926 52.6598 47.3903 52.6571C47.3301 52.5856 47.2676 52.5155 47.2008 52.448L47.1996 52.4469L47.1975 52.4445L37.409 42.6562C37.3445 42.5917 37.2705 42.5376 37.1895 42.4956C34.1112 40.8994 31.8452 42.3526 29.846 43.6347C28.4795 44.511 27.1885 45.3409 25.6829 45.251C24.6966 45.1942 23.8031 44.8143 22.9692 44.0938C23.5961 43.3586 24.178 42.666 24.7447 41.9913C26.7659 39.5856 28.3622 37.6853 29.8413 36.4684C30.1655 36.2021 30.4705 35.9796 30.778 35.7852C33.5537 34.0107 36.5175 34.7165 42.9758 38.6904C43.1907 38.8228 43.4519 38.8571 43.6937 38.7858L46.2948 38.0162L49.7847 51.8136L47.5736 52.8942ZM52.2185 54.1853L47.8072 36.7453C47.8015 36.713 47.7943 36.6806 47.7848 36.6485C47.7827 36.6417 47.7799 36.6353 47.7778 36.6287L47.0728 33.8413L53.3673 32.2478L58.5128 52.5947L52.2185 54.1853ZM26.4674 22.6155C26.6058 22.9461 26.929 23.1611 27.2873 23.1611H37.7126C38.0708 23.1611 38.394 22.9461 38.5324 22.6155L40.3319 18.3186C40.4468 18.0443 40.4168 17.7306 40.252 17.4829C40.0872 17.2354 39.8094 17.0864 39.512 17.0864H25.488C25.1905 17.0864 24.9128 17.2354 24.748 17.4829C24.5832 17.7306 24.5532 18.0443 24.6681 18.3186L26.4674 22.6155ZM38.1762 18.8643L37.1212 21.3833H27.8786L26.8237 18.8643H38.1762ZM18.792 17.2712L22.11 18.034C22.5885 18.144 22.8872 18.6209 22.7772 19.0994C22.6826 19.5109 22.3166 19.7894 21.9117 19.7894C21.8457 19.7894 21.7788 19.782 21.7119 19.7665L18.3939 19.0037C17.9154 18.8937 17.6166 18.4168 17.7267 17.9383C17.8367 17.4597 18.3143 17.1603 18.792 17.2712ZM42.2191 19.0992C42.1093 18.6207 42.408 18.1438 42.8865 18.0338L46.2081 17.2709C46.6869 17.1611 47.1635 17.4599 47.2735 17.9383C47.3833 18.4168 47.0846 18.8936 46.6061 19.0037L43.2845 19.7665C43.2176 19.7819 43.1506 19.7893 43.0848 19.7893C42.6797 19.7893 42.3137 19.5107 42.2191 19.0992ZM14.3472 15.5687L15.0626 25.875V27.7242C15.0626 29.2502 16.3041 30.4917 17.8301 30.4917H21.1444C22.6704 30.4917 23.9119 29.2502 23.9119 27.7242V26.7346H41.0882V27.7242C41.0882 29.2502 42.3297 30.4917 43.8557 30.4917H47.1701C48.696 30.4917 49.9375 29.2502 49.9375 27.7242V25.8767L50.727 14.4633C50.7406 14.2659 50.687 14.0717 50.5788 13.9092L50.5796 13.9085L49.3482 12.0628H49.6963C50.1872 12.0628 50.5852 11.6648 50.5852 11.1738C50.5852 10.6829 50.1872 10.2849 49.6963 10.2849H48.1621L44.6354 4.9991C43.9307 3.93981 42.7992 3.33221 41.5311 3.33221H24.6181C24.5138 3.19142 24.4064 3.0524 24.2923 2.91733C21.3701 -0.545195 16.1765 -0.984579 12.7154 1.93674C11.0387 3.35189 10.0133 5.33489 9.82794 7.52077C9.64259 9.70691 10.3198 11.8341 11.7344 13.5102C12.4689 14.3814 13.3575 15.0752 14.3472 15.5687ZM22.1876 15.2908H48.8876L48.2189 24.9568H16.7808L16.1745 16.222C16.5481 16.3071 16.9298 16.368 17.3184 16.401C17.5557 16.4212 17.7921 16.4311 18.0276 16.4311C19.5024 16.4311 20.9299 16.037 22.1876 15.2908ZM22.134 27.7242C22.134 28.2699 21.6901 28.7138 21.1444 28.7138H17.8301C17.2844 28.7138 16.8405 28.2699 16.8405 27.7242V26.7346H22.134V27.7242ZM47.1701 28.7138H43.8557C43.3101 28.7138 42.8661 28.2699 42.8661 27.7242V26.7346H48.1597V27.7242C48.1597 28.2699 47.7157 28.7138 47.1701 28.7138ZM41.5309 5.11019C42.2133 5.11019 42.7749 5.41234 43.1558 5.98489L46.8301 11.492C46.8778 11.6164 46.9525 11.7272 47.0473 11.8175L48.1786 13.5131H24.2901C25.3844 12.2224 26.0526 10.6293 26.1988 8.90913C26.3106 7.59263 26.1076 6.29834 25.6214 5.11019H41.5309ZM13.8618 3.29552C15.0677 2.27774 16.5412 1.78071 18.008 1.78071C19.8405 1.78071 21.6619 2.55716 22.9337 4.06397C24.0424 5.37768 24.5729 7.04483 24.4273 8.75857C24.2817 10.4726 23.4773 12.027 22.1617 13.1359C20.848 14.2447 19.1813 14.7763 17.4689 14.6295C15.7561 14.484 14.2024 13.6795 13.0932 12.3639C10.8048 9.65257 11.1497 5.58448 13.8618 3.29552ZM14.0769 8.79043C13.7655 8.4111 13.8206 7.85098 14.2002 7.53943C14.5795 7.22789 15.1398 7.28312 15.4512 7.66271L16.9928 9.54098L20.832 4.92649C21.1458 4.54918 21.7064 4.49776 22.0837 4.81185C22.461 5.1258 22.5125 5.6863 22.1984 6.0636L17.6712 11.5048C17.5024 11.7078 17.2519 11.8251 16.988 11.8251H16.9851C16.72 11.8241 16.4691 11.705 16.3009 11.5L14.0769 8.79043Z" fill="white"/>
</g>
<defs>
<clipPath id="clip0_672_4021">
<rect width="65" height="65" fill="white"/>
</clipPath>
</defs>
</svg>
