<svg width="60" height="60" viewBox="0 0 60 60" fill="none" xmlns="http://www.w3.org/2000/svg">
<g clip-path="url(#clip0_672_4075)">
<path d="M33.2222 33.0701C31.0622 33.0691 28.9399 33.6364 27.0685 34.7151C26.9618 34.7767 26.8682 34.8588 26.7933 34.9565C26.7183 35.0543 26.6633 35.1659 26.6314 35.2849C26.5996 35.404 26.5914 35.5281 26.6076 35.6503C26.6237 35.7725 26.6637 35.8902 26.7253 35.9969C26.787 36.1036 26.869 36.1972 26.9668 36.2721C27.0646 36.3471 27.1762 36.4021 27.2952 36.434C27.4142 36.4659 27.5384 36.474 27.6605 36.4578C27.7827 36.4417 27.9005 36.4017 28.0072 36.3401C30.3054 35.0113 33.0231 34.6069 35.6086 35.209C38.194 35.811 40.4535 37.3743 41.9284 39.5816C43.4032 41.7889 43.9828 44.4746 43.5495 47.0937C43.1162 49.7127 41.7025 52.0688 39.5954 53.6835C37.4883 55.2982 34.8457 56.0506 32.2041 55.7878C29.5625 55.5251 27.1199 54.267 25.372 52.269C23.6242 50.2709 22.7023 47.6826 22.7933 45.0295C22.8843 42.3764 23.9816 39.8574 25.8622 37.9838C25.9519 37.8975 26.0236 37.7943 26.073 37.68C26.1223 37.5658 26.1485 37.4428 26.1498 37.3183C26.1512 37.1939 26.1278 37.0704 26.0809 36.9551C26.034 36.8398 25.9647 36.7349 25.8769 36.6467C25.7891 36.5585 25.6846 36.4886 25.5695 36.4412C25.4544 36.3938 25.331 36.3698 25.2065 36.3706C25.0821 36.3714 24.959 36.3969 24.8445 36.4458C24.73 36.4946 24.6264 36.5658 24.5397 36.6551C22.5202 38.6646 21.2604 41.3125 20.975 44.1472C20.6896 46.9818 21.3964 49.8277 22.9748 52.1995C24.5533 54.5712 26.9056 56.322 29.6306 57.1533C32.3556 57.9845 35.2846 57.8447 37.9181 56.7577C40.5515 55.6707 42.7264 53.7039 44.0717 51.1926C45.4171 48.6813 45.8497 45.781 45.2956 42.9864C44.7416 40.1918 43.2353 37.676 41.0336 35.8679C38.8319 34.0598 36.0712 33.0714 33.2222 33.0713V33.0701Z" fill="white"/>
<path d="M34.2412 49.085H31.8875C31.7055 49.0853 31.5252 49.0498 31.357 48.9804C31.1888 48.911 31.0358 48.8092 30.907 48.6807C30.7781 48.5522 30.6759 48.3995 30.606 48.2315C30.5362 48.0634 30.5002 47.8832 30.5 47.7013C30.5 47.4526 30.4012 47.2142 30.2254 47.0383C30.0496 46.8625 29.8111 46.7638 29.5625 46.7638C29.3139 46.7638 29.0754 46.8625 28.8996 47.0383C28.7238 47.2142 28.625 47.4526 28.625 47.7013C28.626 48.5652 28.9696 49.3935 29.5806 50.0044C30.1915 50.6154 31.0198 50.959 31.8838 50.96H32.125V52.7575C32.125 53.0061 32.2238 53.2446 32.3996 53.4204C32.5754 53.5962 32.8139 53.695 33.0625 53.695C33.3111 53.695 33.5496 53.5962 33.7254 53.4204C33.9012 53.2446 34 53.0061 34 52.7575V50.96H34.2388C35.103 50.96 35.9319 50.6167 36.543 50.0055C37.1542 49.3944 37.4975 48.5655 37.4975 47.7013C37.4975 46.837 37.1542 46.0081 36.543 45.397C35.9319 44.7858 35.103 44.4425 34.2388 44.4425H31.8875C31.5275 44.4317 31.186 44.2811 30.9352 44.0226C30.6844 43.7642 30.5441 43.4182 30.5441 43.0581C30.5441 42.698 30.6844 42.352 30.9352 42.0936C31.186 41.8352 31.5275 41.6846 31.8875 41.6738H34.2412C34.6081 41.6741 34.9599 41.82 35.2193 42.0794C35.4788 42.3388 35.6247 42.6906 35.625 43.0575C35.625 43.3061 35.7238 43.5446 35.8996 43.7204C36.0754 43.8962 36.3139 43.995 36.5625 43.995C36.8111 43.995 37.0496 43.8962 37.2254 43.7204C37.4012 43.5446 37.5 43.3061 37.5 43.0575C37.499 42.1935 37.1554 41.3652 36.5444 40.7543C35.9335 40.1434 35.1052 39.7997 34.2412 39.7988H34V38C34 37.7514 33.9012 37.5129 33.7254 37.3371C33.5496 37.1613 33.3111 37.0625 33.0625 37.0625C32.8139 37.0625 32.5754 37.1613 32.3996 37.3371C32.2238 37.5129 32.125 37.7514 32.125 38V39.7988H31.8875C31.0341 39.8155 30.2213 40.1662 29.6237 40.7756C29.0261 41.3851 28.6913 42.2046 28.6913 43.0581C28.6913 43.9117 29.0261 44.7312 29.6237 45.3406C30.2213 45.95 31.0341 46.3008 31.8875 46.3175H34.2412C34.6082 46.3175 34.9602 46.4633 35.2197 46.7228C35.4792 46.9823 35.625 47.3343 35.625 47.7013C35.625 48.0682 35.4792 48.4202 35.2197 48.6797C34.9602 48.9392 34.6082 49.085 34.2412 49.085Z" fill="white"/>
<path d="M55.5217 19.5461C55.2849 19.4881 55.0347 19.5246 54.8244 19.6479C54.614 19.7712 54.46 19.9716 54.3949 20.2066C54.3299 20.4416 54.3589 20.6926 54.476 20.9066C54.593 21.1205 54.7887 21.2804 55.0217 21.3524C57.5579 22.0574 58.1292 22.8524 58.1292 23.0674C58.1292 23.8499 54.4604 25.6849 47.3479 25.6849C40.2354 25.6849 36.5654 23.8499 36.5654 23.0674C36.5654 22.2849 40.2329 20.4499 47.3479 20.4499C49.0306 20.4438 50.7114 20.562 52.3767 20.8036C52.6192 20.8325 52.8634 20.7657 53.0574 20.6175C53.2515 20.4692 53.3802 20.2512 53.4161 20.0096C53.4521 19.7681 53.3925 19.5221 53.25 19.3237C53.1075 19.1254 52.8933 18.9904 52.6529 18.9474C50.8961 18.6931 49.123 18.5678 47.3479 18.5724C41.2517 18.5724 34.6904 19.9786 34.6904 23.0649V30.3586C34.6904 33.4449 41.2517 34.8511 47.3479 34.8511C51.4454 34.8511 55.7454 34.2124 58.1292 32.8574V34.0049C58.1292 34.7874 54.4604 36.6224 47.3479 36.6224C46.5317 36.6224 45.7367 36.5974 44.9729 36.5474C44.7248 36.5329 44.4809 36.6165 44.2938 36.7802C44.1068 36.9439 43.9915 37.1745 43.9729 37.4224C43.9643 37.5456 43.9801 37.6693 44.0194 37.7864C44.0588 37.9034 44.1209 38.0116 44.2023 38.1045C44.2836 38.1975 44.3825 38.2734 44.4933 38.328C44.6042 38.3825 44.7247 38.4146 44.8479 38.4224C45.6542 38.4749 46.4904 38.5024 47.3479 38.5024C51.4454 38.5024 55.7454 37.8636 58.1292 36.5024V37.6499C58.1292 38.4324 54.4604 40.2749 47.3479 40.2749C47.3479 40.2749 46.9567 40.2824 46.7829 40.2749C46.5371 40.2766 46.3009 40.3712 46.1219 40.5397C45.9429 40.7083 45.8343 40.9383 45.8179 41.1836C45.8109 41.4323 45.9027 41.6737 46.0733 41.8548C46.2438 42.0359 46.4793 42.142 46.7279 42.1499H47.3529C51.4504 42.1499 55.7504 41.5099 58.1342 40.1499V41.2974C58.1342 42.0799 54.4654 43.9149 47.3529 43.9149C47.1043 43.9149 46.8658 44.0137 46.69 44.1895C46.5142 44.3653 46.4154 44.6037 46.4154 44.8524C46.4154 45.101 46.5142 45.3395 46.69 45.5153C46.8658 45.6911 47.1043 45.7899 47.3529 45.7899C51.4504 45.7899 55.7504 45.1499 58.1342 43.7961V45.0349C58.1342 45.8174 54.4654 47.6524 47.3529 47.6524H47.0167C46.7722 47.663 46.5402 47.7635 46.3653 47.9347C46.1904 48.1059 46.085 48.3357 46.0692 48.5799C46.0668 48.8284 46.1632 49.0678 46.337 49.2454C46.5109 49.423 46.7481 49.5244 46.9967 49.5274H47.3529C53.4392 49.5311 60.0004 48.1249 60.0004 45.0386V23.0674C60.0004 22.0299 59.2229 20.5774 55.5217 19.5461ZM47.3442 27.5599C51.4417 27.5599 55.7417 26.9211 58.1254 25.5661V26.7136C58.1254 27.4961 54.4567 29.3386 47.3442 29.3386C40.2317 29.3386 36.5617 27.5024 36.5617 26.7136V25.5661C38.9454 26.9211 43.2504 27.5599 47.3442 27.5599ZM47.3442 32.9786C40.2292 32.9786 36.5617 31.1436 36.5617 30.3611V29.2136C38.9454 30.5686 43.2442 31.2136 47.3442 31.2136C51.4442 31.2136 55.7417 30.5749 58.1254 29.2136V30.3611C58.1254 31.1436 54.4567 32.9786 47.3442 32.9786Z" fill="white"/>
<path d="M19.75 50.35C19.42 50.3625 19.0875 50.37 18.75 50.37C8.8125 50.37 1.875 44.6687 1.875 36.5062C1.875 29.85 6.375 20.0062 13.0863 15.9625C13.1775 15.9062 13.2537 15.8375 13.3362 15.775H21C21.2486 15.775 21.4871 15.6762 21.6629 15.5004C21.8387 15.3246 21.9375 15.0861 21.9375 14.8375C21.9375 14.5889 21.8387 14.3504 21.6629 14.1746C21.4871 13.9988 21.2486 13.9 21 13.9H14.5187C14.6467 13.1953 14.5009 12.4684 14.1112 11.8675C10.9425 6.95875 10.3263 4.74999 10.4412 4.17749C10.4533 4.18456 10.4673 4.18763 10.4813 4.18624C11.8891 4.19605 13.2881 4.40908 14.635 4.81875C15.9381 5.21483 17.2906 5.42523 18.6525 5.44375C20.1922 5.40598 21.7214 5.18014 23.2063 4.77124C24.383 4.44722 25.5912 4.25108 26.81 4.18624C26.7763 4.89249 26.0763 6.97874 23.655 11.1112H16.5C16.2514 11.1112 16.0129 11.21 15.8371 11.3858C15.6613 11.5616 15.5625 11.8001 15.5625 12.0487C15.5625 12.2974 15.6613 12.5358 15.8371 12.7117C16.0129 12.8875 16.2514 12.9862 16.5 12.9862H22.8275C22.7813 13.3357 22.8017 13.6907 22.8875 14.0325C22.988 14.4208 23.165 14.7852 23.4082 15.1042C23.6514 15.4231 23.9559 15.6903 24.3038 15.89C27.6785 18.0879 30.4152 21.1354 32.2388 24.7262C32.2958 24.8376 32.3745 24.9364 32.4703 25.0168C32.5661 25.0973 32.6771 25.1577 32.7966 25.1946C32.9161 25.2315 33.0419 25.2441 33.1663 25.2317C33.2908 25.2192 33.4115 25.182 33.5214 25.1222C33.6313 25.0624 33.7281 24.9812 33.8061 24.8834C33.8841 24.7856 33.9417 24.6732 33.9756 24.5527C34.0095 24.4323 34.0189 24.3063 34.0034 24.1822C33.9878 24.0581 33.9476 23.9383 33.885 23.83C31.9003 19.9423 28.9252 16.6469 25.26 14.2762C25.1256 14.2015 25.0075 14.1008 24.9124 13.98C24.8173 13.8592 24.7472 13.7207 24.7062 13.5725C24.6743 13.4481 24.6679 13.3184 24.6874 13.1915C24.707 13.0645 24.7521 12.9428 24.82 12.8337C29.525 5.00625 28.765 3.66249 28.445 3.08374C28.3025 2.83718 28.0954 2.63415 27.8461 2.49649C27.5967 2.35883 27.3146 2.29176 27.03 2.30249C25.5928 2.34383 24.1658 2.5583 22.78 2.94124C21.4355 3.3164 20.0503 3.52629 18.655 3.56624C17.4551 3.54492 16.2641 3.35429 15.1175 3C13.6134 2.55085 12.0534 2.31686 10.4838 2.30499C10.1484 2.28328 9.81382 2.35684 9.51854 2.5172C9.22326 2.67756 8.97936 2.91817 8.815 3.21124C8.5 3.78999 7.6625 5.3275 12.5387 12.88C12.6121 12.9888 12.6621 13.1116 12.6855 13.2407C12.709 13.3698 12.7054 13.5024 12.675 13.63C12.6362 13.7822 12.5671 13.925 12.4717 14.0498C12.3763 14.1746 12.2567 14.2789 12.12 14.3562C4.875 18.7275 0 29.3387 0 36.5062C0 45.625 7.8875 52.25 18.75 52.25C19.11 52.25 19.4675 52.2425 19.8225 52.2275C19.9456 52.2227 20.0666 52.1936 20.1785 52.142C20.2903 52.0904 20.391 52.0173 20.4746 51.9268C20.5582 51.8364 20.6232 51.7303 20.6659 51.6147C20.7085 51.4991 20.728 51.3762 20.7231 51.2531C20.7183 51.13 20.6892 51.009 20.6376 50.8972C20.5861 50.7853 20.5129 50.6846 20.4225 50.601C20.332 50.5174 20.2259 50.4524 20.1103 50.4097C19.9947 50.3671 19.8719 50.3477 19.7487 50.3525L19.75 50.35Z" fill="white"/>
</g>
<defs>
<clipPath id="clip0_672_4075">
<rect width="60" height="60" fill="white"/>
</clipPath>
</defs>
</svg>
