<svg width="64" height="64" viewBox="0 0 64 64" fill="none" xmlns="http://www.w3.org/2000/svg">
<path d="M59.7333 11.7332H53.3333C53.3333 11.1674 53.1086 10.6248 52.7085 10.2247C52.3084 9.82464 51.7658 9.59988 51.2 9.59988H50.4949C49.9242 8.93114 49.2151 8.39415 48.4167 8.02594C47.6184 7.65772 46.7496 7.46704 45.8704 7.46704C44.9912 7.46704 44.1225 7.65772 43.3241 8.02594C42.5257 8.39415 41.8167 8.93114 41.2459 9.59988H40.5333C39.9675 9.59988 39.4249 9.82464 39.0248 10.2247C38.6248 10.6248 38.4 11.1674 38.4 11.7332H32C31.0568 11.7367 30.1414 12.0527 29.3969 12.6317C28.6523 13.2106 28.1206 14.02 27.8848 14.9332H12.9728C12.0772 14.9324 11.2041 15.2138 10.4777 15.7376C9.75115 16.2613 9.20818 17.0006 8.92587 17.8505L6.67947 24.5876C6.38212 24.2376 6.01247 23.9561 5.59595 23.7626C5.17944 23.5691 4.72594 23.4681 4.26667 23.4665H3.2C2.40666 23.4761 1.64517 23.7801 1.0633 24.3195C0.481429 24.8588 0.120672 25.5951 0.0510346 26.3854C-0.0186033 27.1758 0.207844 27.9638 0.686434 28.5966C1.16502 29.2294 1.86163 29.6618 2.64107 29.81L1.552 30.4639C1.07979 30.75 0.689045 31.1527 0.417268 31.6333C0.145491 32.1139 0.00180476 32.6563 0 33.2084L0 46.9332C0.00273383 47.5927 0.209156 48.2352 0.591027 48.7729C0.972898 49.3106 1.51156 49.7171 2.13333 49.937V52.2665C2.13333 53.1152 2.47048 53.9292 3.07059 54.5293C3.67071 55.1294 4.48464 55.4665 5.33333 55.4665H9.6C10.4487 55.4665 11.2626 55.1294 11.8627 54.5293C12.4629 53.9292 12.8 53.1152 12.8 52.2665V50.1332H27.7333V52.2665C27.7333 53.3981 28.1829 54.4834 28.983 55.2835C29.7832 56.0837 30.8684 56.5332 32 56.5332H59.7333C60.8649 56.5332 61.9502 56.0837 62.7503 55.2835C63.5505 54.4834 64 53.3981 64 52.2665V15.9999C64 14.8683 63.5505 13.783 62.7503 12.9829C61.9502 12.1827 60.8649 11.7332 59.7333 11.7332ZM40.5333 11.7332H41.856C42.0598 11.7332 42.2593 11.6748 42.4309 11.565C42.6026 11.4552 42.7392 11.2985 42.8245 11.1135C43.1494 10.6117 43.6031 10.2064 44.1383 9.94011C44.6735 9.67382 45.2705 9.55631 45.8667 9.59988C46.4653 9.5576 47.0643 9.67636 47.6015 9.94385C48.1388 10.2113 48.5946 10.6178 48.9216 11.1209C49.0079 11.3042 49.1446 11.4592 49.3158 11.5676C49.4869 11.676 49.6854 11.7335 49.888 11.7332H51.2V13.8665H40.5333V11.7332ZM27.7333 37.3332H14.9333C14.9333 36.7674 15.1581 36.2248 15.5582 35.8247C15.9583 35.4246 16.5009 35.1999 17.0667 35.1999H27.7333V37.3332ZM10.9504 18.5257C11.0918 18.1011 11.3632 17.7317 11.7262 17.4699C12.0891 17.208 12.5252 17.0669 12.9728 17.0665H27.7333V27.7332H7.87947L10.9504 18.5257ZM2.13333 26.6665C2.13333 26.3836 2.24571 26.1123 2.44575 25.9123C2.64579 25.7123 2.9171 25.5999 3.2 25.5999H4.26667C4.54956 25.5999 4.82088 25.7123 5.02091 25.9123C5.22095 26.1123 5.33333 26.3836 5.33333 26.6665V27.7332H3.2C2.9171 27.7332 2.64579 27.6208 2.44575 27.4208C2.24571 27.2208 2.13333 26.9494 2.13333 26.6665ZM10.6667 52.2665C10.6667 52.5494 10.5543 52.8208 10.3542 53.0208C10.1542 53.2208 9.8829 53.3332 9.6 53.3332H5.33333C5.05044 53.3332 4.77913 53.2208 4.57909 53.0208C4.37905 52.8208 4.26667 52.5494 4.26667 52.2665V50.1332H10.6667V52.2665ZM3.2 47.9999C2.9171 47.9999 2.64579 47.8875 2.44575 47.6875C2.24571 47.4874 2.13333 47.2161 2.13333 46.9332V33.2084C2.13403 33.0242 2.18196 32.8432 2.27253 32.6828C2.3631 32.5224 2.49329 32.3879 2.65067 32.2921L6.69547 29.8665H27.7333V33.0665H17.0667C15.9351 33.0665 14.8498 33.5161 14.0497 34.3162C13.2495 35.1164 12.8 36.2016 12.8 37.3332C12.8 37.899 13.0248 38.4416 13.4248 38.8417C13.8249 39.2418 14.3675 39.4665 14.9333 39.4665H27.7333V42.6665H16C15.7171 42.6665 15.4458 42.7789 15.2458 42.979C15.0457 43.179 14.9333 43.4503 14.9333 43.7332C14.9333 44.0161 15.0457 44.2874 15.2458 44.4875C15.4458 44.6875 15.7171 44.7999 16 44.7999H27.7333V47.9999H3.2ZM61.8667 52.2665C61.8667 52.8323 61.6419 53.375 61.2418 53.775C60.8418 54.1751 60.2991 54.3999 59.7333 54.3999H32C31.4342 54.3999 30.8916 54.1751 30.4915 53.775C30.0914 53.375 29.8667 52.8323 29.8667 52.2665V15.9999C29.8667 15.4341 30.0914 14.8915 30.4915 14.4914C30.8916 14.0913 31.4342 13.8665 32 13.8665H38.4C38.4 14.4323 38.6248 14.975 39.0248 15.375C39.4249 15.7751 39.9675 15.9999 40.5333 15.9999H51.2C51.7658 15.9999 52.3084 15.7751 52.7085 15.375C53.1086 14.975 53.3333 14.4323 53.3333 13.8665H59.7333C60.2991 13.8665 60.8418 14.0913 61.2418 14.4914C61.6419 14.8915 61.8667 15.4341 61.8667 15.9999V52.2665Z" fill="white"/>
<path d="M7.4666 32C6.61791 32 5.80398 32.3371 5.20386 32.9373C4.60374 33.5374 4.2666 34.3513 4.2666 35.2V37.3333C4.2666 38.182 4.60374 38.996 5.20386 39.5961C5.80398 40.1962 6.61791 40.5333 7.4666 40.5333C8.31529 40.5333 9.12923 40.1962 9.72934 39.5961C10.3295 38.996 10.6666 38.182 10.6666 37.3333V35.2C10.6666 34.3513 10.3295 33.5374 9.72934 32.9373C9.12923 32.3371 8.31529 32 7.4666 32ZM8.53327 37.3333C8.53327 37.6162 8.42089 37.8875 8.22085 38.0876C8.02081 38.2876 7.7495 38.4 7.4666 38.4C7.1837 38.4 6.91239 38.2876 6.71235 38.0876C6.51232 37.8875 6.39994 37.6162 6.39994 37.3333V35.2C6.39994 34.9171 6.51232 34.6458 6.71235 34.4458C6.91239 34.2457 7.1837 34.1333 7.4666 34.1333C7.7495 34.1333 8.02081 34.2457 8.22085 34.4458C8.42089 34.6458 8.53327 34.9171 8.53327 35.2V37.3333Z" fill="white"/>
<path d="M40.7126 19.6745L37.168 24.9929L35.9542 23.7791C35.753 23.5848 35.4836 23.4773 35.2039 23.4797C34.9242 23.4821 34.6567 23.5943 34.4589 23.7921C34.2611 23.9898 34.149 24.2574 34.1465 24.5371C34.1441 24.8167 34.2516 25.0862 34.4459 25.2874L36.5792 27.4207C36.7792 27.6207 37.0505 27.7332 37.3334 27.7332C37.3675 27.7332 37.4027 27.7332 37.44 27.7332C37.597 27.7176 37.7485 27.6675 37.8837 27.5863C38.0189 27.5052 38.1344 27.395 38.2219 27.2639L42.4886 20.8639C42.6456 20.6285 42.7027 20.3404 42.6473 20.063C42.5918 19.7855 42.4285 19.5414 42.1931 19.3844C41.9577 19.2274 41.6696 19.1703 41.3922 19.2257C41.1147 19.2812 40.8707 19.4445 40.7136 19.6799L40.7126 19.6745Z" fill="white"/>
<path d="M55.4665 21.3333H45.8665C45.5836 21.3333 45.3123 21.4456 45.1122 21.6457C44.9122 21.8457 44.7998 22.117 44.7998 22.3999C44.7998 22.6828 44.9122 22.9541 45.1122 23.1542C45.3123 23.3542 45.5836 23.4666 45.8665 23.4666H55.4665C55.7494 23.4666 56.0207 23.3542 56.2207 23.1542C56.4208 22.9541 56.5331 22.6828 56.5331 22.3999C56.5331 22.117 56.4208 21.8457 56.2207 21.6457C56.0207 21.4456 55.7494 21.3333 55.4665 21.3333Z" fill="white"/>
<path d="M45.8665 27.7334H52.0723C52.3552 27.7334 52.6265 27.6211 52.8266 27.421C53.0266 27.221 53.139 26.9497 53.139 26.6668C53.139 26.3839 53.0266 26.1126 52.8266 25.9125C52.6265 25.7125 52.3552 25.6001 52.0723 25.6001H45.8665C45.5836 25.6001 45.3123 25.7125 45.1122 25.9125C44.9122 26.1126 44.7998 26.3839 44.7998 26.6668C44.7998 26.9497 44.9122 27.221 45.1122 27.421C45.3123 27.6211 45.5836 27.7334 45.8665 27.7334Z" fill="white"/>
<path d="M40.7126 30.3413L37.168 35.6597L35.9542 34.4458C35.753 34.2515 35.4836 34.144 35.2039 34.1464C34.9242 34.1488 34.6567 34.261 34.4589 34.4588C34.2611 34.6566 34.149 34.9241 34.1465 35.2038C34.1441 35.4834 34.2516 35.7529 34.4459 35.9541L36.5792 38.0874C36.7792 38.2874 37.0505 38.3999 37.3334 38.3999C37.3675 38.3999 37.4027 38.3999 37.44 38.3946C37.597 38.379 37.7485 38.3288 37.8837 38.2477C38.0189 38.1665 38.1344 38.0564 38.2219 37.9253L42.4886 31.5253C42.6456 31.2899 42.7027 31.0018 42.6473 30.7243C42.5918 30.4469 42.4285 30.2028 42.1931 30.0458C41.9577 29.8888 41.6696 29.8317 41.3922 29.8871C41.1147 29.9425 40.8696 30.1059 40.7126 30.3413Z" fill="white"/>
<path d="M55.4665 32H45.8665C45.5836 32 45.3123 32.1124 45.1122 32.3124C44.9122 32.5125 44.7998 32.7838 44.7998 33.0667C44.7998 33.3496 44.9122 33.6209 45.1122 33.8209C45.3123 34.021 45.5836 34.1333 45.8665 34.1333H55.4665C55.7494 34.1333 56.0207 34.021 56.2207 33.8209C56.4208 33.6209 56.5331 33.3496 56.5331 33.0667C56.5331 32.7838 56.4208 32.5125 56.2207 32.3124C56.0207 32.1124 55.7494 32 55.4665 32Z" fill="white"/>
<path d="M45.8665 38.3999H52.0723C52.3552 38.3999 52.6265 38.2876 52.8266 38.0875C53.0266 37.8875 53.139 37.6162 53.139 37.3333C53.139 37.0504 53.0266 36.7791 52.8266 36.579C52.6265 36.379 52.3552 36.2666 52.0723 36.2666H45.8665C45.5836 36.2666 45.3123 36.379 45.1122 36.579C44.9122 36.7791 44.7998 37.0504 44.7998 37.3333C44.7998 37.6162 44.9122 37.8875 45.1122 38.0875C45.3123 38.2876 45.5836 38.3999 45.8665 38.3999Z" fill="white"/>
<path d="M40.7126 41.008L37.168 46.3264L35.9542 45.1125C35.753 44.9182 35.4836 44.8107 35.2039 44.8132C34.9242 44.8156 34.6567 44.9278 34.4589 45.1255C34.2611 45.3233 34.149 45.5908 34.1465 45.8705C34.1441 46.1502 34.2516 46.4196 34.4459 46.6208L36.5792 48.7541C36.7792 48.9542 37.0505 49.0666 37.3334 49.0667C37.3675 49.0667 37.4027 49.0667 37.44 49.0613C37.597 49.0458 37.7485 48.9956 37.8837 48.9144C38.0189 48.8333 38.1344 48.7232 38.2219 48.592L42.4886 42.192C42.6456 41.9566 42.7027 41.6685 42.6473 41.3911C42.5918 41.1136 42.4285 40.8695 42.1931 40.7125C41.9577 40.5555 41.6696 40.4985 41.3922 40.5539C41.1147 40.6093 40.8696 40.7726 40.7126 41.008Z" fill="white"/>
<path d="M55.4665 42.6667H45.8665C45.5836 42.6667 45.3123 42.7791 45.1122 42.9792C44.9122 43.1792 44.7998 43.4505 44.7998 43.7334C44.7998 44.0163 44.9122 44.2876 45.1122 44.4877C45.3123 44.6877 45.5836 44.8001 45.8665 44.8001H55.4665C55.7494 44.8001 56.0207 44.6877 56.2207 44.4877C56.4208 44.2876 56.5331 44.0163 56.5331 43.7334C56.5331 43.4505 56.4208 43.1792 56.2207 42.9792C56.0207 42.7791 55.7494 42.6667 55.4665 42.6667Z" fill="white"/>
<path d="M52.0723 46.9333H45.8665C45.5836 46.9333 45.3123 47.0457 45.1122 47.2458C44.9122 47.4458 44.7998 47.7171 44.7998 48C44.7998 48.2829 44.9122 48.5542 45.1122 48.7543C45.3123 48.9543 45.5836 49.0667 45.8665 49.0667H52.0723C52.3552 49.0667 52.6265 48.9543 52.8266 48.7543C53.0266 48.5542 53.139 48.2829 53.139 48C53.139 47.7171 53.0266 47.4458 52.8266 47.2458C52.6265 47.0457 52.3552 46.9333 52.0723 46.9333Z" fill="white"/>
<path d="M8.53301 42.6667H6.39967C6.11678 42.6667 5.84547 42.7791 5.64543 42.9792C5.44539 43.1792 5.33301 43.4505 5.33301 43.7334C5.33301 44.0163 5.44539 44.2876 5.64543 44.4877C5.84547 44.6877 6.11678 44.8001 6.39967 44.8001H8.53301C8.81591 44.8001 9.08722 44.6877 9.28726 44.4877C9.48729 44.2876 9.59967 44.0163 9.59967 43.7334C9.59967 43.4505 9.48729 43.1792 9.28726 42.9792C9.08722 42.7791 8.81591 42.6667 8.53301 42.6667Z" fill="white"/>
</svg>
