<svg width="67" height="67" viewBox="0 0 67 67" fill="none" xmlns="http://www.w3.org/2000/svg">
<path d="M32.6256 64.7733C32.9088 64.8609 33.2034 64.9057 33.4998 64.9062C33.789 64.9056 34.0765 64.8622 34.353 64.7775C38.5617 63.5713 42.5387 61.6686 46.1188 59.1484C46.3316 58.983 46.4723 58.7419 46.5118 58.4754C46.5513 58.2088 46.4865 57.9373 46.3309 57.7173C46.1752 57.4973 45.9407 57.3458 45.6762 57.2943C45.4117 57.2429 45.1375 57.2954 44.9107 57.441C41.5164 59.8282 37.746 61.6297 33.7563 62.7706C33.5826 62.8261 33.396 62.8261 33.2224 62.7706C28.0113 61.2913 23.1921 58.6773 19.1105 55.1159C19.009 55.0159 18.8881 54.9377 18.7553 54.8861C18.6225 54.8345 18.4806 54.8105 18.3382 54.8156C18.1958 54.8208 18.056 54.8549 17.9272 54.916C17.7985 54.9771 17.6836 55.0638 17.5896 55.1708C17.4955 55.2778 17.4243 55.4029 17.3803 55.5385C17.3363 55.674 17.3204 55.817 17.3336 55.9589C17.3468 56.1008 17.3889 56.2385 17.4571 56.3635C17.5254 56.4886 17.6185 56.5984 17.7307 56.6862C22.0388 60.447 27.1252 63.2087 32.6256 64.7733Z" fill="white"/>
<path d="M5.8302 15.7587C5.69389 15.7404 5.55531 15.7492 5.42239 15.7845C5.28947 15.8198 5.16481 15.881 5.05553 15.9645C4.94626 16.048 4.85451 16.1522 4.78553 16.2712C4.71655 16.3902 4.67169 16.5216 4.65352 16.6579C3.91547 22.176 3.0361 36.3266 10.783 48.5552C10.8565 48.6713 10.9522 48.7719 11.0646 48.851C11.177 48.9302 11.3039 48.9865 11.4381 49.0166C11.5723 49.0468 11.711 49.0502 11.8465 49.0267C11.982 49.0032 12.1115 48.9532 12.2277 48.8797C12.3438 48.8061 12.4444 48.7104 12.5235 48.598C12.6027 48.4856 12.659 48.3587 12.6891 48.2246C12.7193 48.0904 12.7227 47.9516 12.6992 47.8162C12.6757 47.6807 12.6257 47.5512 12.5522 47.435C5.17172 35.7896 6.02074 22.2263 6.72738 16.9353C6.76429 16.6604 6.69053 16.382 6.5223 16.1613C6.35408 15.9407 6.10515 15.7959 5.8302 15.7587Z" fill="white"/>
<path d="M13.6498 50.8226C13.5425 50.9088 13.4533 51.0153 13.3873 51.136C13.3212 51.2568 13.2796 51.3893 13.2648 51.5261C13.2501 51.6629 13.2624 51.8013 13.3011 51.9333C13.3399 52.0653 13.4043 52.1884 13.4906 52.2956C13.8047 52.685 14.1407 53.0744 14.4862 53.4639C14.5774 53.567 14.6881 53.6511 14.8118 53.7115C14.9355 53.7718 15.0699 53.8072 15.2073 53.8156C15.3447 53.824 15.4825 53.8053 15.6126 53.7605C15.7428 53.7157 15.8629 53.6457 15.966 53.5544C16.0691 53.4632 16.1532 53.3526 16.2136 53.2289C16.2739 53.1051 16.3093 52.9707 16.3177 52.8333C16.3261 52.6959 16.3074 52.5582 16.2626 52.428C16.2178 52.2979 16.1477 52.1778 16.0565 52.0747C15.733 51.7093 15.419 51.3419 15.1259 50.9817C15.0396 50.8741 14.9329 50.7845 14.812 50.7181C14.691 50.6518 14.5581 50.6101 14.4209 50.5953C14.2837 50.5805 14.145 50.5929 14.0126 50.632C13.8803 50.671 13.757 50.7358 13.6498 50.8226Z" fill="white"/>
<path d="M59.6591 13.2105C55.8554 12.5485 52.1289 11.5015 48.5371 10.0856C43.8387 8.22604 39.4086 5.74975 35.3632 2.7219C34.8255 2.31753 34.171 2.09888 33.4982 2.09888C32.8254 2.09888 32.1709 2.31753 31.6332 2.7219C29.6178 4.22959 27.5055 5.60325 25.3101 6.83403C25.1898 6.90114 25.084 6.99131 24.9987 7.09937C24.9134 7.20743 24.8502 7.33126 24.8128 7.46377C24.7754 7.59629 24.7645 7.73488 24.7807 7.8716C24.797 8.00833 24.84 8.14051 24.9074 8.26058C24.9748 8.38064 25.0653 8.48623 25.1735 8.5713C25.2818 8.65637 25.4058 8.71924 25.5384 8.75633C25.671 8.79341 25.8096 8.80397 25.9463 8.7874C26.083 8.77083 26.215 8.72746 26.3349 8.65978C28.612 7.38086 30.8026 5.95369 32.8926 4.38748C33.0664 4.25386 33.2795 4.18142 33.4987 4.18142C33.7179 4.18142 33.931 4.25386 34.1049 4.38748C38.3003 7.52976 42.8952 10.0997 47.7687 12.0297C51.496 13.4998 55.3632 14.5872 59.3105 15.275C59.5252 15.3114 59.7226 15.416 59.8734 15.5732C60.0242 15.7304 60.1205 15.932 60.148 16.1481C60.8211 20.5722 61.846 32.048 56.8294 43.0151C56.7695 43.1404 56.7353 43.2764 56.7285 43.4151C56.7217 43.5537 56.7426 43.6924 56.79 43.8229C56.8373 43.9535 56.9101 44.0733 57.0042 44.1754C57.0983 44.2775 57.2118 44.3599 57.3381 44.4178C57.4643 44.4756 57.6008 44.5078 57.7396 44.5123C57.8783 44.5169 58.0167 44.4939 58.1464 44.4445C58.2762 44.3951 58.3949 44.3204 58.4955 44.2247C58.5961 44.129 58.6767 44.0143 58.7326 43.8871C63.9848 32.406 62.9201 20.4434 62.2187 15.8309C62.1237 15.1796 61.8249 14.5752 61.365 14.1045C60.9051 13.6337 60.3079 13.3207 59.6591 13.2105Z" fill="white"/>
<path d="M32.4893 57.3971C32.813 57.5158 33.1549 57.5771 33.4996 57.5782C33.8389 57.5777 34.1755 57.5179 34.4941 57.4012C35.9384 56.8932 37.3465 56.2877 38.7088 55.5891C38.8311 55.5261 38.9398 55.4397 39.0287 55.3347C39.1176 55.2298 39.1849 55.1083 39.2268 54.9773C39.2688 54.8463 39.2845 54.7084 39.2732 54.5713C39.2618 54.4342 39.2235 54.3007 39.1606 54.1784C39.0976 54.0561 39.0112 53.9475 38.9062 53.8586C38.8012 53.7697 38.6798 53.7024 38.5488 53.6604C38.4178 53.6185 38.2798 53.6027 38.1427 53.6141C38.0057 53.6255 37.8722 53.6637 37.7499 53.7267C36.4695 54.3851 35.1456 54.9552 33.7875 55.4331C33.5973 55.5074 33.3861 55.5074 33.196 55.4331C28.5025 53.8252 24.284 51.0723 20.9224 47.4235C13.0206 38.8066 12.3244 27.2701 12.6113 21.1825C12.6211 21.0203 12.662 20.8614 12.7317 20.7146C12.8331 20.4674 12.8362 20.1909 12.7403 19.9416C12.6445 19.6922 12.457 19.4889 12.2162 19.3734C11.9754 19.2578 11.6995 19.2386 11.445 19.3198C11.1905 19.401 10.9767 19.5764 10.8473 19.8101C10.6607 20.2043 10.5516 20.6308 10.5259 21.0663C10.2223 27.5014 10.9698 39.6682 19.3835 48.843C22.9734 52.7392 27.4778 55.6791 32.4893 57.3971Z" fill="white"/>
<path d="M52.7354 38.7343C52.8503 38.7772 52.9719 38.7992 53.0945 38.7992C53.3091 38.7992 53.5185 38.7331 53.6943 38.6101C53.8701 38.4871 54.0039 38.313 54.0775 38.1114C55.9848 32.6396 56.7993 26.8466 56.4749 21.061C56.4547 20.6379 56.3509 20.223 56.1694 19.8402C55.9879 19.4575 55.7324 19.1145 55.4175 18.8311C55.3178 18.728 55.1978 18.6464 55.0652 18.5915C54.9326 18.5366 54.7901 18.5096 54.6466 18.5121C54.5031 18.5146 54.3617 18.5466 54.2311 18.6061C54.1005 18.6656 53.9835 18.7513 53.8874 18.8579C53.7913 18.9645 53.7181 19.0897 53.6725 19.2258C53.6268 19.3618 53.6096 19.5058 53.6219 19.6488C53.6343 19.7918 53.6759 19.9307 53.7442 20.057C53.8124 20.1832 53.906 20.294 54.0189 20.3826C54.1284 20.482 54.2172 20.6021 54.2801 20.7359C54.343 20.8698 54.3787 21.0148 54.3853 21.1625C54.6969 26.6678 53.9254 32.1808 52.1146 37.3891C52.067 37.5182 52.0452 37.6554 52.0506 37.7929C52.056 37.9304 52.0885 38.0655 52.1461 38.1904C52.2038 38.3153 52.2855 38.4277 52.3866 38.521C52.4878 38.6144 52.6063 38.6868 52.7354 38.7343Z" fill="white"/>
<path d="M33.0932 11.6014C33.2412 11.5342 33.4037 11.5052 33.5658 11.5173C33.7279 11.5294 33.8843 11.5821 34.0207 11.6705C37.0341 13.6155 40.2062 15.3028 43.5033 16.7144C43.7566 16.8134 44.0385 16.8099 44.2892 16.7048C44.54 16.5996 44.7401 16.401 44.847 16.151C44.9539 15.9009 44.9594 15.6191 44.8621 15.3651C44.7649 15.1111 44.5727 14.9049 44.3261 14.7902C41.1374 13.4237 38.0693 11.7911 35.1545 9.90968C34.7269 9.63449 34.2377 9.46994 33.7308 9.43084C33.2238 9.39173 32.7151 9.47929 32.2504 9.68564C32.0108 9.80583 31.8264 10.0134 31.7352 10.2655C31.6441 10.5176 31.6531 10.7951 31.7605 11.0408C31.8679 11.2864 32.0654 11.4815 32.3124 11.5858C32.5594 11.6901 32.837 11.6957 33.0879 11.6014H33.0932Z" fill="white"/>
<path d="M49.7164 19.0269C49.8141 19.0564 49.9157 19.0712 50.0179 19.0709C50.2692 19.0707 50.512 18.9801 50.702 18.8157C50.8921 18.6513 51.0166 18.424 51.0529 18.1753C51.0893 17.9267 51.0349 17.6732 50.8999 17.4613C50.7648 17.2494 50.558 17.0932 50.3173 17.0211C49.8116 16.8693 49.307 16.6976 48.8014 16.5155C48.5401 16.4213 48.2522 16.4349 48.0009 16.5531C47.7496 16.6712 47.5555 16.8844 47.4614 17.1457C47.3673 17.407 47.3808 17.6949 47.499 17.9462C47.6172 18.1975 47.8303 18.3916 48.0916 18.4857C48.6339 18.6804 49.1751 18.8647 49.7164 19.0269Z" fill="white"/>
<path d="M27.8588 30.8629C27.2365 30.2533 26.4001 29.9118 25.529 29.9118C24.6578 29.9118 23.8214 30.2533 23.1991 30.8629L21.8884 32.1998C21.2786 32.8289 20.9375 33.6707 20.9375 34.5469C20.9375 35.4231 21.2786 36.2649 21.8884 36.894L29.9096 45.0795C30.2126 45.3905 30.5748 45.6378 30.9748 45.8066C31.3749 45.9754 31.8047 46.0623 32.2389 46.0623C32.6731 46.0623 33.1029 45.9754 33.503 45.8066C33.903 45.6378 34.2652 45.3905 34.5682 45.0795L49.2998 30.0453C49.9097 29.4162 50.2508 28.5744 50.2508 27.6982C50.2508 26.822 49.9097 25.9802 49.2998 25.3511L47.9891 24.0143C47.6869 23.7026 47.325 23.4549 46.925 23.286C46.525 23.1171 46.0951 23.0305 45.6609 23.0313C45.2264 23.0304 44.7961 23.117 44.3958 23.2859C43.9955 23.4548 43.6332 23.7025 43.3305 24.0143L33.0712 34.483C32.8493 34.7024 32.5499 34.8255 32.2379 34.8255C31.9258 34.8255 31.6264 34.7024 31.4045 34.483L27.8588 30.8629ZM34.5682 35.9476L44.8276 25.4788C44.9357 25.3669 45.0652 25.2778 45.2085 25.217C45.3517 25.1561 45.5058 25.1248 45.6614 25.1248C45.817 25.1248 45.9711 25.1561 46.1144 25.217C46.2576 25.2778 46.3872 25.3669 46.4952 25.4788L47.8059 26.8168C48.0351 27.0529 48.1633 27.3691 48.1633 27.6982C48.1633 28.0273 48.0351 28.3435 47.8059 28.5797L33.0722 43.6149C32.8504 43.8343 32.5509 43.9574 32.2389 43.9574C31.9269 43.9574 31.6274 43.8343 31.4056 43.6149L23.3844 35.4283C23.1552 35.1922 23.027 34.876 23.027 34.5469C23.027 34.2178 23.1552 33.9016 23.3844 33.6654L24.6951 32.3275C24.9173 32.1083 25.2168 31.9854 25.529 31.9854C25.8411 31.9854 26.1406 32.1083 26.3628 32.3275L29.9096 35.9476C30.5318 36.5569 31.368 36.8982 32.2389 36.8982C33.1098 36.8982 33.946 36.5569 34.5682 35.9476Z" fill="white"/>
<path d="M9.42188 14.6562C9.42199 14.9009 9.50782 15.1378 9.66445 15.3258C9.82108 15.5138 10.0386 15.641 10.2793 15.6853C16.9175 16.9081 17.6388 17.6294 18.8636 24.2697C18.9085 24.5098 19.0359 24.7267 19.2239 24.8828C19.4118 25.0389 19.6484 25.1243 19.8927 25.1243C20.137 25.1243 20.3736 25.0389 20.5616 24.8828C20.7495 24.7267 20.8769 24.5098 20.9218 24.2697C22.1445 17.6314 22.8658 16.9101 29.5062 15.6853C29.7463 15.6405 29.9632 15.513 30.1193 15.3251C30.2754 15.1371 30.3608 14.9005 30.3608 14.6562C30.3608 14.4119 30.2754 14.1753 30.1193 13.9874C29.9632 13.7994 29.7463 13.672 29.5062 13.6271C22.8679 12.4044 22.1466 11.6831 20.9218 5.04277C20.8769 4.80262 20.7495 4.58572 20.5616 4.42964C20.3736 4.27355 20.137 4.18811 19.8927 4.18811C19.6484 4.18811 19.4118 4.27355 19.2239 4.42964C19.0359 4.58572 18.9085 4.80262 18.8636 5.04277C17.6409 11.681 16.9196 12.4023 10.2793 13.6271C10.0386 13.6714 9.82108 13.7986 9.66445 13.9866C9.50782 14.1746 9.42199 14.4115 9.42188 14.6562ZM19.8906 9.72649C20.2015 10.9115 20.8219 11.9925 21.6881 12.8587C22.5544 13.725 23.6354 14.3453 24.8204 14.6562C23.6354 14.9671 22.5544 15.5875 21.6881 16.4537C20.8219 17.32 20.2015 18.401 19.8906 19.586C19.5797 18.401 18.9594 17.32 18.0931 16.4537C17.2269 15.5875 16.1459 14.9671 14.9609 14.6562C16.1459 14.3453 17.2269 13.725 18.0931 12.8587C18.9594 11.9925 19.5797 10.9115 19.8906 9.72649Z" fill="white"/>
<path d="M61.9556 51.3146C55.3174 50.0919 54.5961 49.3706 53.3712 42.7303C53.3264 42.4901 53.1989 42.2732 53.011 42.1171C52.8231 41.9611 52.5864 41.8756 52.3421 41.8756C52.0978 41.8756 51.8612 41.9611 51.6733 42.1171C51.4854 42.2732 51.3579 42.4901 51.3131 42.7303C50.0903 49.3685 49.369 50.0898 42.7287 51.3146C42.4885 51.3595 42.2716 51.4869 42.1156 51.6749C41.9595 51.8628 41.874 52.0994 41.874 52.3437C41.874 52.588 41.9595 52.8246 42.1156 53.0126C42.2716 53.2005 42.4885 53.3279 42.7287 53.3728C49.3669 54.5956 50.0882 55.3168 51.3131 61.9572C51.3579 62.1973 51.4854 62.4142 51.6733 62.5703C51.8612 62.7264 52.0978 62.8118 52.3421 62.8118C52.5864 62.8118 52.8231 62.7264 53.011 62.5703C53.1989 62.4142 53.3264 62.1973 53.3712 61.9572C54.594 55.3189 55.3153 54.5976 61.9556 53.3728C62.1957 53.3279 62.4126 53.2005 62.5687 53.0126C62.7248 52.8246 62.8103 52.588 62.8103 52.3437C62.8103 52.0994 62.7248 51.8628 62.5687 51.6749C62.4126 51.4869 62.1957 51.3595 61.9556 51.3146ZM52.3442 57.2735C52.0333 56.0885 51.413 55.0075 50.5467 54.1412C49.6805 53.275 48.5995 52.6546 47.4145 52.3437C48.5995 52.0328 49.6805 51.4125 50.5467 50.5462C51.413 49.68 52.0333 48.599 52.3442 47.414C52.6551 48.599 53.2755 49.68 54.1418 50.5462C55.008 51.4125 56.089 52.0328 57.274 52.3437C56.089 52.6546 55.008 53.275 54.1418 54.1412C53.2755 55.0075 52.6551 56.0885 52.3442 57.2735Z" fill="white"/>
</svg>
