<svg width="92" height="91" viewBox="0 0 92 91" fill="none" xmlns="http://www.w3.org/2000/svg">
<path d="M25.1665 40.0114C24.446 40.7318 24.0493 41.687 24.0494 42.7011L24.0493 50.3715C24.0493 51.0618 24.6089 51.6215 25.2993 51.6216C25.9896 51.6216 26.5493 51.0619 26.5494 50.3715L26.5494 47.7862L29.163 47.7863L29.163 50.3716C29.163 51.0619 29.7227 51.6216 30.4131 51.6217C31.1035 51.6216 31.6631 51.062 31.6631 50.3716L31.6631 42.7011C31.6631 40.602 29.9553 38.8943 27.8564 38.8944C26.842 38.8943 25.8869 39.2909 25.1665 40.0114ZM29.1629 42.7011L29.163 45.2863L26.5493 45.2862L26.5492 42.701C26.6211 40.9723 29.0927 40.9666 29.1629 42.7011Z" fill="white"/>
<path d="M72.8362 49.1216L72.8362 46.508L74.7342 46.508C75.4246 46.5079 75.9842 45.9484 75.9843 45.258C75.9843 44.5677 75.4246 44.008 74.7342 44.0079L72.8362 44.0079L72.8362 41.3942L76.0606 41.3942C76.7511 41.3942 77.3106 40.8348 77.3107 40.1442C77.3107 39.4539 76.751 38.8942 76.0607 38.8942L71.5862 38.8942C70.9147 38.881 70.3231 39.4727 70.3362 40.1443L70.3362 50.3717C70.323 51.0431 70.9148 51.6349 71.5862 51.6217L76.0607 51.6217C76.7511 51.6216 77.3107 51.062 77.3108 50.3717C77.3108 49.6814 76.7511 49.1217 76.0608 49.1217L72.8362 49.1216Z" fill="white"/>
<path d="M66.3976 51.2555C66.6239 51.0292 66.7637 50.7169 66.7637 50.3716L66.7637 41.3944L67.7509 41.3945C68.4413 41.3944 69.0008 40.8349 69.0009 40.1444C69.0009 39.4541 68.4413 38.8945 67.7509 38.8944L63.2764 38.8944C62.5861 38.8944 62.0266 39.4539 62.0264 40.1444C62.0264 40.8347 62.586 41.3944 63.2763 41.3944L64.2636 41.3944L64.2636 50.3716C64.2636 51.0619 64.8233 51.6216 65.5137 51.6217C65.859 51.6216 66.1714 51.4817 66.3976 51.2555Z" fill="white"/>
<path d="M12.4867 47.8146V45.9267C12.4999 45.2552 11.9082 44.6634 11.2365 44.6767L9.95821 44.6768C9.26809 44.6768 8.70834 45.2366 8.70834 45.9269C8.70843 46.6173 9.268 47.1768 9.95848 47.1768H9.98676L9.98676 47.8146C10.0021 48.5107 9.37601 49.1365 8.67997 49.1214C7.98401 49.1366 7.35806 48.5107 7.37317 47.8146L7.37318 42.7009C7.373 41.9804 7.95935 41.3942 8.67997 41.3941C9.17184 41.3942 9.61846 41.6697 9.84543 42.1133C10.1601 42.7277 10.9131 42.971 11.5277 42.6564C12.1425 42.3416 12.3854 41.5885 12.0708 40.9741C11.4141 39.6913 10.1148 38.8944 8.67997 38.8942C6.58088 38.8943 4.87316 40.6019 4.87316 42.701L4.87299 47.8147C4.83003 49.8545 6.64001 51.6645 8.6797 51.6214C10.7196 51.6645 12.5295 49.8544 12.4867 47.8146Z" fill="white"/>
<path d="M60.5469 50.3715L60.5468 40.1442C60.5468 39.4539 59.9871 38.8942 59.2967 38.8941C58.6064 38.8942 58.0468 39.4536 58.0467 40.1442L58.0468 45.0764L55.3011 39.5851C55.0418 39.0667 54.4601 38.7944 53.896 38.9276C53.3318 39.0608 52.9332 39.5642 52.9332 40.1442L52.9332 50.3714C52.9332 51.0617 53.4928 51.6213 54.1832 51.6214C54.8736 51.6213 55.4331 51.0619 55.4333 50.3714L55.4332 45.4392L58.1789 50.9305C58.4382 51.4489 59.0199 51.7211 59.5841 51.5881C59.8164 51.5332 60.0206 51.4157 60.1806 51.2557C60.4088 51.0273 60.5468 50.7126 60.5469 50.3715Z" fill="white"/>
<path d="M34.8872 38.8942C34.2156 38.8811 33.624 39.4726 33.6371 40.1442L33.6372 50.3717C33.6372 51.062 34.1969 51.6216 34.8872 51.6216C35.5775 51.6215 36.1371 51.062 36.1372 50.3716L36.1371 46.5078L36.6713 46.5078L38.8827 50.9306C39.1916 51.5481 39.9424 51.7983 40.5598 51.4896C41.1644 51.1929 41.4328 50.4334 41.1188 49.8126L39.2409 46.0566C39.5649 45.882 39.8654 45.6587 40.1335 45.3906C42.529 43.0378 40.7976 38.8728 37.4438 38.8942L34.8872 38.8942ZM38.7507 42.701C38.7657 43.3927 38.1472 44.0163 37.4556 44.0076C37.4443 44.0074 37.4329 44.0076 37.4216 44.0078L36.1371 44.0078L36.137 41.3942L37.4439 41.3942C38.1645 41.3941 38.7508 41.9803 38.7507 42.701Z" fill="white"/>
<path d="M18.2672 51.6216C20.3071 51.6646 22.117 49.8546 22.0741 47.8148L22.0741 40.1442C22.0741 39.454 21.5144 38.8943 20.824 38.8942C20.1336 38.8943 19.5741 39.4538 19.574 40.1442L19.574 47.8148C19.5021 49.5435 17.0305 49.5493 16.9604 47.8148L16.9604 40.1442C16.9604 39.454 16.4007 38.8943 15.7103 38.8942C15.0199 38.8943 14.4604 39.4538 14.4603 40.1443L14.4605 47.8149C14.4605 49.9139 16.1682 51.6216 18.2672 51.6216Z" fill="white"/>
<path d="M49.5892 51.6216C50.2796 51.6215 50.8392 51.0619 50.8393 50.3715L50.8393 42.701C50.8392 40.6019 49.1315 38.8942 47.0326 38.8943C44.9927 38.8512 43.1827 40.6614 43.2258 42.7011L43.2257 50.3715C43.2257 51.0618 43.7853 51.6215 44.4757 51.6216C45.1661 51.6215 45.7258 51.0618 45.7258 50.3715L45.7258 47.7862H48.3395L48.3395 50.3716C48.3393 51.0619 48.8989 51.6216 49.5892 51.6216ZM45.7256 45.2861L45.7256 42.701C45.7105 42.005 46.3363 41.379 47.0324 41.3942C47.7529 41.3942 48.3392 41.9805 48.3392 42.701L48.3393 45.286L45.7256 45.2861Z" fill="white"/>
<path d="M84.3704 38.8943L79.8959 38.8943C79.2242 38.8811 78.6328 39.4728 78.6458 40.1443L78.6459 50.3716C78.6459 51.0619 79.2056 51.6216 79.8959 51.6216L84.3704 51.6216C85.0608 51.6216 85.6202 51.062 85.6204 50.3715C85.6204 49.6812 85.0607 49.1216 84.3704 49.1215L81.1459 49.1214V46.5078L83.0439 46.5078C83.7343 46.5077 84.2939 45.9481 84.294 45.2577C84.294 44.5674 83.7343 44.0078 83.0439 44.0077H81.1459L81.1459 41.3939L84.3704 41.394C85.0608 41.394 85.6203 40.8345 85.6204 40.144C85.6203 39.4539 85.0607 38.8943 84.3704 38.8943Z" fill="white"/>
<path d="M20.0677 35.3348L25.4501 32.1854C25.781 31.9917 26.0049 31.6568 26.057 31.2769L26.7777 26.0381L32.0167 25.3173C32.3966 25.265 32.7312 25.0411 32.9252 24.7103L35.5959 20.146L40.7118 21.4851C41.0828 21.5822 41.4779 21.5036 41.7835 21.2718L45.9975 18.0769L50.2118 21.2717C50.5174 21.5035 50.9124 21.5821 51.2834 21.4849L56.3991 20.1459L59.0699 24.7103C59.2635 25.0413 59.5985 25.2651 59.9784 25.3174L65.2173 26.038L65.9379 31.2769C65.9901 31.6569 66.2139 31.9917 66.545 32.1854L71.9272 35.3346C72.4284 35.628 73.0497 35.5328 73.442 35.1405C73.516 35.0665 73.582 34.9818 73.6374 34.8871C73.9861 34.2913 73.7856 33.5257 73.1897 33.1769L68.3317 30.3343L67.5647 24.7584C67.4883 24.2033 67.0518 23.7668 66.4967 23.6904L60.9209 22.9235L58.0783 18.0655C57.7954 17.5818 57.2251 17.3456 56.6829 17.4875L51.2381 18.9126L46.7527 15.5123C46.3063 15.1737 45.6889 15.1738 45.2424 15.5123L40.7573 18.9127L35.3122 17.4875C34.7701 17.3455 34.1998 17.5819 33.9169 18.0654L31.0742 22.9235L25.4982 23.6907C24.9431 23.767 24.5067 24.2035 24.4304 24.7586L23.6632 30.3344L18.8052 33.1771C18.2098 33.5255 18.0089 34.2914 18.3576 34.8872C18.7063 35.483 19.4719 35.6835 20.0677 35.3348Z" fill="white"/>
<path d="M71.9276 55.1809L66.5452 58.3303C66.2138 58.5241 65.9902 58.8589 65.9382 59.2388L65.2175 64.4777L59.9786 65.1985C59.5986 65.2507 59.264 65.4745 59.0701 65.8054L56.3994 70.3697L51.2834 69.0306C50.9125 68.9335 50.5174 69.0121 50.2117 69.2439L45.9978 72.4387L41.7836 69.2439C41.4779 69.0121 41.0829 68.9336 40.7119 69.0306L35.5961 70.3697L32.9253 65.8053C32.7316 65.4743 32.3966 65.2505 32.0168 65.1982L26.7778 64.4776L26.0572 59.2386C26.005 58.8587 25.7812 58.5239 25.4501 58.3301L20.0679 55.1809C19.4722 54.8321 18.706 55.0326 18.3577 55.6284C18.009 56.2242 18.2095 56.9898 18.8054 57.3386L23.6634 60.1812L24.4304 65.7571C24.5067 66.3122 24.9433 66.7487 25.4983 66.8251L31.0743 67.5921L33.9171 72.4501C34.2 72.9339 34.7703 73.17 35.3125 73.0282L40.7575 71.603L45.2426 75.0035C45.6892 75.342 46.3066 75.3419 46.7531 75.0034L51.2382 71.603L56.6832 73.0283C57.2253 73.1701 57.7955 72.9337 58.0786 72.4503L60.9212 67.5923L66.4971 66.8251C67.0523 66.7488 67.4886 66.3123 67.565 65.7572L68.3321 60.1814L73.1901 57.3388C73.7856 56.9905 73.9864 56.2244 73.6377 55.6287C73.289 55.0327 72.5233 54.8323 71.9276 55.1809Z" fill="white"/>
<path d="M64.0049 33.9683C55.9327 20.7805 36.0607 20.7826 27.9908 33.9686C27.4655 34.776 28.0824 35.8996 29.0493 35.8832L62.9463 35.8831C63.4026 35.8838 63.8234 35.6322 64.0403 35.2378C64.2604 34.8397 64.2468 34.3534 64.0049 33.9683ZM60.509 33.3832L31.4865 33.3833C38.7927 24.2687 53.2031 24.269 60.509 33.3832Z" fill="white"/>
<path d="M27.9901 56.5477C36.0608 69.7353 55.9352 69.7331 64.004 56.5477C64.5312 55.7389 63.9105 54.6166 62.9456 54.6328L29.0486 54.6327C28.5938 54.6327 28.1747 54.8799 27.9547 55.278C27.7346 55.6761 27.7482 56.1624 27.9901 56.5477ZM31.4859 57.1327L60.5083 57.1327C53.2022 66.2472 38.7917 66.2469 31.4859 57.1327Z" fill="white"/>
</svg>
