<svg width="20" height="20" viewBox="0 0 20 20" fill="none" xmlns="http://www.w3.org/2000/svg">
<path d="M10.0927 19.2565C10.0289 19.2565 9.96518 19.2565 9.90097 19.2562C8.39156 19.2599 6.99689 19.2215 5.64056 19.139C4.39707 19.0633 3.26199 18.6336 2.35787 17.8964C1.48549 17.185 0.889745 16.2231 0.587245 15.0378C0.323972 14.0059 0.310015 12.9929 0.296646 12.0131C0.286949 11.3101 0.276959 10.4771 0.274902 9.62999C0.276959 8.77934 0.286949 7.94633 0.296646 7.24334C0.310015 6.2637 0.323972 5.25072 0.587245 4.21863C0.889745 3.03332 1.48549 2.07146 2.35787 1.36009C3.26199 0.622869 4.39707 0.19314 5.64071 0.117479C6.99704 0.0350589 8.392 -0.00343309 9.90465 0.000239809C11.4145 -0.00299234 12.8087 0.0350589 14.1651 0.117479C15.4086 0.19314 16.5436 0.622869 17.4477 1.36009C18.3203 2.07146 18.9159 3.03332 19.2184 4.21863C19.4816 5.25057 19.4956 6.2637 19.509 7.24334C19.5187 7.94633 19.5288 8.77934 19.5307 9.62646V9.62999C19.5288 10.4771 19.5187 11.3101 19.509 12.0131C19.4956 12.9927 19.4818 14.0057 19.2184 15.0378C18.9159 16.2231 18.3203 17.185 17.4477 17.8964C16.5436 18.6336 15.4086 19.0633 14.1651 19.139C12.8662 19.218 11.5319 19.2565 10.0927 19.2565ZM9.90097 17.7518C11.3859 17.7553 12.7492 17.7178 14.0737 17.6373C15.0139 17.5802 15.8292 17.275 16.4971 16.7304C17.1144 16.2269 17.5396 15.5323 17.7607 14.6658C17.9799 13.8068 17.9925 12.8845 18.0047 11.9925C18.0143 11.2942 18.0242 10.4671 18.0263 9.62822C18.0242 8.78919 18.0143 7.9622 18.0047 7.26391C17.9925 6.37198 17.9799 5.44964 17.7607 4.59048C17.5396 3.72397 17.1144 3.02935 16.4971 2.52587C15.8292 1.9814 15.0139 1.67626 14.0737 1.61911C12.7492 1.53845 11.3859 1.50128 9.9045 1.50451C8.41992 1.50099 7.05639 1.53845 5.73194 1.61911C4.79168 1.67626 3.97645 1.9814 3.30857 2.52587C2.69123 3.02935 2.26605 3.72397 2.04494 4.59048C1.82575 5.44964 1.81311 6.37183 1.80092 7.26391C1.79137 7.96278 1.78138 8.79036 1.77932 9.62999C1.78138 10.4659 1.79137 11.2937 1.80092 11.9925C1.81311 12.8845 1.82575 13.8068 2.04494 14.6658C2.26605 15.5323 2.69123 16.2269 3.30857 16.7304C3.97645 17.2749 4.79168 17.58 5.73194 17.6372C7.05639 17.7178 8.42021 17.7555 9.90097 17.7518ZM9.86513 14.3295C7.27294 14.3295 5.16382 12.2206 5.16382 9.62822C5.16382 7.03589 7.27294 4.92692 9.86513 4.92692C12.4575 4.92692 14.5664 7.03589 14.5664 9.62822C14.5664 12.2206 12.4575 14.3295 9.86513 14.3295ZM9.86513 6.43133C8.10243 6.43133 6.66824 7.86553 6.66824 9.62822C6.66824 11.3909 8.10243 12.8251 9.86513 12.8251C11.628 12.8251 13.062 11.3909 13.062 9.62822C13.062 7.86553 11.628 6.43133 9.86513 6.43133ZM15.093 3.4225C14.4699 3.4225 13.9647 3.92759 13.9647 4.55081C13.9647 5.17403 14.4699 5.67912 15.093 5.67912C15.7162 5.67912 16.2213 5.17403 16.2213 4.55081C16.2213 3.92759 15.7162 3.4225 15.093 3.4225Z" fill="white"/>
</svg>
