<svg width="23" height="17" viewBox="0 0 23 17" fill="none" xmlns="http://www.w3.org/2000/svg">
<path d="M11.1331 16.6494C11.1312 16.6494 11.1292 16.6494 11.1271 16.6494C10.4548 16.6449 4.51099 16.5908 2.82699 16.1371C1.6501 15.8219 0.721062 14.8972 0.403847 13.7245C-0.0367873 12.0763 -0.00873767 8.90301 -0.00567771 8.64962C-0.00856767 8.39742 -0.0369573 5.1979 0.402487 3.53615C0.402997 3.53462 0.403337 3.53293 0.403847 3.53141C0.717492 2.37202 1.66744 1.41877 2.8241 1.10272C2.82699 1.10187 2.83005 1.10119 2.83294 1.10035C4.4979 0.664372 10.4534 0.611018 11.1271 0.606445H11.1392C11.8132 0.611018 17.7728 0.66505 19.4414 1.11949C20.6152 1.43385 21.5436 2.35729 21.8616 3.52853C22.3188 5.19146 22.2764 8.39793 22.2718 8.66859C22.2751 8.93519 22.3018 12.08 21.8637 13.7365C21.8633 13.7382 21.8628 13.7397 21.8625 13.7412C21.5451 14.914 20.6162 15.8386 19.438 16.1542C19.4364 16.1547 19.4347 16.155 19.4332 16.1555C17.7684 16.5913 11.8127 16.6447 11.1392 16.6494C11.1372 16.6494 11.1351 16.6494 11.1331 16.6494ZM2.08512 3.98093C1.69821 5.44773 1.73476 8.60643 1.7351 8.63827V8.66114C1.72354 9.53715 1.76417 12.0741 2.08529 13.2756C2.24101 13.851 2.69916 14.3068 3.28021 14.4624C4.52272 14.7973 9.36374 14.9027 11.1331 14.915C12.907 14.9027 17.7552 14.8002 18.9885 14.4787C19.5677 14.3225 20.0243 13.8683 20.181 13.2922C20.5025 12.0731 20.5428 9.5485 20.5311 8.67808C20.5311 8.66893 20.5311 8.65978 20.5312 8.65064C20.5472 7.76412 20.5158 5.19756 20.1826 3.98635C20.1822 3.98517 20.1819 3.98398 20.1817 3.98279C20.0253 3.40488 19.567 2.94909 18.986 2.79343C17.7555 2.45824 12.9067 2.35322 11.1331 2.34086C9.36034 2.35322 4.51694 2.45553 3.27987 2.77666C2.70986 2.93418 2.24135 3.40624 2.08512 3.98093ZM8.91444 12.14V5.11575L15.0072 8.62794L8.91444 12.14Z" fill="white"/>
</svg>
