<svg width="20" height="19" viewBox="0 0 20 19" fill="none" xmlns="http://www.w3.org/2000/svg">
<path d="M2.80146 0.678711C1.42842 0.678711 0.530701 1.58032 0.530701 2.76535C0.530701 3.92422 1.40168 4.85154 2.74877 4.85154H2.77483C4.17473 4.85154 5.04593 3.92422 5.04593 2.76535C5.01976 1.58032 4.17473 0.678711 2.80146 0.678711Z" fill="white"/>
<path d="M0.767273 6.5H4.78124V18.5762H0.767273V6.5Z" fill="white"/>
<path d="M14.6359 6.21777C12.4705 6.21777 11.0185 8.25253 11.0185 8.25253V6.5012H7.00446V18.5774H11.0183V11.8336C11.0183 11.4726 11.0445 11.1121 11.1505 10.8539C11.4407 10.133 12.1011 9.38614 13.21 9.38614C14.6625 9.38614 15.2434 10.4936 15.2434 12.117V18.5774H19.257V11.6531C19.257 7.94384 17.2766 6.21777 14.6359 6.21777Z" fill="white"/>
</svg>
