<svg width="83" height="14" viewBox="0 0 83 14" fill="none" xmlns="http://www.w3.org/2000/svg">
<path d="M2.38983 10.8541L1.77701 11.3691L1.51562 10.5834L2.12844 10.0684L2.38983 10.8541Z" fill="#F7D909"/>
<mask id="mask0_401_558" style="mask-type:luminance" maskUnits="userSpaceOnUse" x="6" y="4" width="4" height="5">
<path d="M8.28424 4.89258L6.39062 6.48274L7.11816 8.69838L9.01178 7.10666L8.28424 4.89258Z" fill="white"/>
</mask>
<g mask="url(#mask0_401_558)">
<path d="M6.39062 8.41504L9.01178 8.60175V8.69822H6.39062V8.41504Z" fill="#E7C012"/>
<path d="M6.39062 8.33203L9.01178 8.51874V8.60121L6.39062 8.4145V8.33203Z" fill="#E7C012"/>
<path d="M6.39062 8.25L9.01178 8.43671V8.51918L6.39062 8.33246V8.25Z" fill="#E7C112"/>
<path d="M6.39062 8.16992L9.01178 8.35663V8.4391L6.39062 8.25239V8.16992Z" fill="#E8C211"/>
<path d="M6.39062 8.08301L9.01178 8.27128V8.35374L6.39062 8.16703V8.08301Z" fill="#E8C311"/>
<path d="M6.39062 8.00195L9.01178 8.18866V8.27268L6.39062 8.08442V8.00195Z" fill="#E9C411"/>
<path d="M6.39062 7.91992L9.01178 8.10663V8.1891L6.39062 8.00239V7.91992Z" fill="#E9C510"/>
<path d="M6.39062 7.83594L9.01178 8.02265V8.10511L6.39062 7.9184V7.83594Z" fill="#EAC610"/>
<path d="M6.39062 7.75195L9.01178 7.93866V8.02113L6.39062 7.83442V7.75195Z" fill="#EAC710"/>
<path d="M6.39062 7.66992L9.01178 7.85819V7.94065L6.39062 7.75394V7.66992Z" fill="#EBC810"/>
<path d="M6.39062 7.58594L9.01178 7.77265V7.85667L6.39062 7.6684V7.58594Z" fill="#EBC90F"/>
<path d="M6.39062 7.50391L9.01178 7.69062V7.77308L6.39062 7.58637V7.50391Z" fill="#ECCA0F"/>
<path d="M6.39062 7.4209L9.01178 7.60761V7.69007L6.39062 7.50336V7.4209Z" fill="#ECCB0F"/>
<path d="M6.39062 7.34082L9.01178 7.52753V7.61L6.39062 7.42328V7.34082Z" fill="#ECCC0E"/>
<path d="M6.39062 7.25391L9.01178 7.44062V7.52464L6.39062 7.33793V7.25391Z" fill="#EDCD0E"/>
<path d="M6.39062 7.17285L9.01178 7.35956V7.44203L6.39062 7.25532V7.17285Z" fill="#EDCE0E"/>
<path d="M6.39062 7.09082L9.01178 7.27753V7.36L6.39062 7.17328V7.09082Z" fill="#EECF0D"/>
<path d="M6.39062 7.00977L9.01178 7.19648V7.27894L6.39062 7.09223V7.00977Z" fill="#EED00D"/>
<path d="M6.39062 6.92285L9.01178 7.11112V7.19358L6.39062 7.00687V6.92285Z" fill="#EFD20D"/>
<path d="M6.39062 6.84277L9.01178 7.02948V7.11351L6.39062 6.92524V6.84277Z" fill="#EFD30D"/>
<path d="M6.39062 6.75684L9.01178 6.94355V7.02601L6.39062 6.8393V6.75684Z" fill="#F0D40C"/>
<path d="M6.39062 6.67773L9.01178 6.86445V6.94691L6.39062 6.7602V6.67773Z" fill="#F0D50C"/>
<path d="M6.39062 6.59473L9.01178 6.78144V6.8639L6.39062 6.67719V6.59473Z" fill="#F1D60C"/>
<path d="M6.39062 6.51172L9.01178 6.69999V6.78245L6.39062 6.59574V6.51172Z" fill="#F1D70B"/>
<path d="M6.39062 6.42773L9.01178 6.61445V6.69847L6.39062 6.5102V6.42773Z" fill="#F1D80B"/>
<path d="M6.39062 6.34473L9.01178 6.53144V6.6139L6.39062 6.42719V6.34473Z" fill="#F2D90B"/>
<path d="M6.39062 6.26172L9.01178 6.44843V6.53089L6.39062 6.34418V6.26172Z" fill="#F2DA0A"/>
<path d="M6.39062 6.18164L9.01178 6.36835V6.45082L6.39062 6.2641V6.18164Z" fill="#F3DB0A"/>
<path d="M6.39062 6.0957L9.01178 6.28241V6.36645L6.39062 6.17974V6.0957Z" fill="#F3DC0A"/>
<path d="M6.39062 6.01367L9.01178 6.20038V6.28285L6.39062 6.09614V6.01367Z" fill="#F4DD0A"/>
<path d="M6.39062 5.93164L9.01178 6.11835V6.20082L6.39062 6.01411V5.93164Z" fill="#F4DE09"/>
<path d="M6.39062 5.84863L9.01178 6.03534V6.11781L6.39062 5.9311V5.84863Z" fill="#F5DF09"/>
<path d="M6.39062 5.76562L9.01178 5.95389V6.03636L6.39062 5.84964V5.76562Z" fill="#F5E009"/>
<path d="M6.39062 5.68262L9.01178 5.86933V5.95335L6.39062 5.76508V5.68262Z" fill="#F6E108"/>
<path d="M6.39062 5.60059L9.01178 5.7873V5.86976L6.39062 5.68305V5.60059Z" fill="#F6E208"/>
<path d="M9.01178 5.78724L6.39062 5.60053V4.89258H9.01178V5.78724Z" fill="#F6E208"/>
</g>
<path d="M6.08043 6.74609L2.4021 9.83772L2.66058 10.625L6.34182 7.53184L6.08043 6.74609Z" fill="#C1C1C1"/>
<mask id="mask1_401_558" style="mask-type:luminance" maskUnits="userSpaceOnUse" x="1" y="5" width="4" height="5">
<path d="M3.28815 5.19434L1.39453 6.78605L2.2455 9.37356L4.13912 7.78185L3.28815 5.19434Z" fill="white"/>
</mask>
<g mask="url(#mask1_401_558)">
<path d="M4.13504 5.29608L3.88672 5.19434H4.13504V5.29608Z" fill="#8E8E90"/>
<path d="M4.1369 5.43706L3.54297 5.19434H3.88858L4.1369 5.29547V5.43706Z" fill="#8F8F91"/>
<path d="M4.14267 5.57709L3.20312 5.19434H3.54874L4.14267 5.43706V5.57709Z" fill="#909092"/>
<path d="M4.13673 5.71868L2.85156 5.19434H3.19718L4.13673 5.57709V5.71868Z" fill="#919193"/>
<path d="M4.1425 5.86027L2.51172 5.19434H2.85733L4.1425 5.71868V5.86027Z" fill="#919193"/>
<path d="M4.14046 6.00031L2.16406 5.19434H2.50968L4.14046 5.86027V6.00031Z" fill="#929294"/>
<path d="M4.14087 6.1419L1.82031 5.19434H2.16448L4.14087 6.00031V6.1419Z" fill="#939395"/>
<path d="M4.14115 6.28193L1.62891 5.25813L1.65214 5.19434H1.82059L4.14115 6.1419V6.28193Z" fill="#949496"/>
<path d="M4.14174 6.42418L1.58594 5.38171L1.6295 5.25879L4.14174 6.28259V6.42418Z" fill="#959597"/>
<path d="M4.13843 6.56336L1.53906 5.50378L1.58263 5.38086L4.13843 6.42333V6.56336Z" fill="#969698"/>
<path d="M4.135 6.70508L1.49207 5.62682L1.53563 5.50391L4.135 6.56349V6.70508Z" fill="#979799"/>
<path d="M4.13963 6.84525L1.45312 5.74987L1.49669 5.62695L4.13963 6.70521V6.84525Z" fill="#98989A"/>
<path d="M4.13632 6.98892L1.40625 5.87487L1.44981 5.75195L4.13632 6.84733V6.98892Z" fill="#99999B"/>
<path d="M4.13912 7.12868L1.39453 6.00841V5.91195L1.40905 5.87305L4.13912 6.98709V7.12868Z" fill="#9A9A9C"/>
<path d="M4.13912 7.26909L1.39453 6.15038V6.00879L4.13912 7.12906V7.26909Z" fill="#9B9B9D"/>
<path d="M4.13912 7.40776L1.39453 6.28905V6.14746L4.13912 7.26617V7.40776Z" fill="#9C9C9E"/>
<path d="M4.13912 7.54976L1.39453 6.43105V6.29102L4.13912 7.40973V7.54976Z" fill="#9D9D9F"/>
<path d="M4.13912 7.69194L1.39453 6.57323V6.43164L4.13912 7.55035V7.69194Z" fill="#9E9EA0"/>
<path d="M4.13912 7.83101L1.39453 6.7123V6.57227L4.13912 7.69098V7.83101Z" fill="#9F9FA1"/>
<path d="M4.13912 7.97222L1.39453 6.8535V6.71191L4.13912 7.83063V7.97222Z" fill="#A0A0A2"/>
<path d="M4.13912 8.11577L1.39453 6.9955V6.85547L4.13912 7.97418V8.11577Z" fill="#A1A1A3"/>
<path d="M4.13912 8.2564L1.39453 7.13768V6.99609L4.13912 8.11636V8.2564Z" fill="#A2A3A5"/>
<path d="M4.13912 8.39604L1.39453 7.27578V7.13574L4.13912 8.25446V8.39604Z" fill="#A3A4A6"/>
<path d="M4.13912 8.53667L1.39453 7.41796V7.27637L4.13912 8.39664V8.53667Z" fill="#A4A5A7"/>
<path d="M4.13912 8.65649L4.13331 8.67516L1.39453 7.55956V7.41797L4.13912 8.53668V8.65649Z" fill="#A5A6A8"/>
<path d="M4.13331 8.67615L4.08975 8.79907L1.39453 7.70058V7.56055L4.13331 8.67615Z" fill="#A6A7A9"/>
<path d="M4.08975 8.7977L4.04473 8.92062L1.39453 7.84081V7.69922L4.08975 8.7977Z" fill="#A8A8AA"/>
<path d="M4.04473 8.92063L4.00116 9.04355L1.39453 7.98085V7.84082L4.04473 8.92063Z" fill="#A9AAAC"/>
<path d="M4.00116 9.04414L3.9576 9.16862L1.39453 8.12303V7.98145L4.00116 9.04414Z" fill="#AAABAD"/>
<path d="M3.9576 9.16863L3.91403 9.29155L1.39453 8.26308V8.12305L3.9576 9.16863Z" fill="#ABACAE"/>
<path d="M3.91403 9.29214L3.88499 9.3746H3.77172L1.39453 8.40526V8.26367L3.91403 9.29214Z" fill="#ACADAF"/>
<path d="M3.42611 9.37266L1.39453 8.54491V8.40332L3.77172 9.37266H3.42611Z" fill="#ADAEB0"/>
<path d="M3.08049 9.37365L1.39453 8.68593V8.5459L3.42611 9.37365H3.08049Z" fill="#AFB0B2"/>
<path d="M2.73488 9.37229L1.39453 8.82616V8.68457L3.08049 9.37229H2.73488Z" fill="#B0B1B3"/>
<path d="M2.38926 9.37133L1.39453 8.96523V8.8252L2.73488 9.37133H2.38926Z" fill="#B1B2B4"/>
<path d="M1.39453 8.96973L2.38926 9.37582H1.39453V8.96973Z" fill="#B1B2B4"/>
</g>
<mask id="mask2_401_558" style="mask-type:luminance" maskUnits="userSpaceOnUse" x="1" y="7" width="9" height="7">
<path d="M9.00773 7.1084L1.05859 13.7896H5.09125L9.88194 9.76281L9.00773 7.1084Z" fill="white"/>
</mask>
<g mask="url(#mask2_401_558)">
<path d="M1.45939 7.1084H1.05859V13.788H1.45939V7.1084Z" fill="#F6CC08"/>
<path d="M1.86173 7.1084H1.46094V13.788H1.86173V7.1084Z" fill="#F6CD08"/>
<path d="M2.26017 7.1084H1.85938V13.788H2.26017V7.1084Z" fill="#F6CE08"/>
<path d="M2.66252 7.1084H2.26172V13.788H2.66252V7.1084Z" fill="#F6CF08"/>
<path d="M3.06877 7.1084H2.66797V13.788H3.06877V7.1084Z" fill="#F6D008"/>
<path d="M3.4672 7.1084H3.06641V13.788H3.4672V7.1084Z" fill="#F6D108"/>
<path d="M3.86955 7.1084H3.46875V13.788H3.86955V7.1084Z" fill="#F6D208"/>
<path d="M4.26798 7.1084H3.86719V13.788H4.26798V7.1084Z" fill="#F6D308"/>
<path d="M4.67033 7.1084H4.26953V13.788H4.67033V7.1084Z" fill="#F6D408"/>
<path d="M5.06867 7.1084H4.66788V13.788H5.06867V7.1084Z" fill="#F6D508"/>
<path d="M5.46736 7.1084H5.06656V13.788H5.46736V7.1084Z" fill="#F6D608"/>
<path d="M5.86955 7.1084H5.46875V13.788H5.86955V7.1084Z" fill="#F6D808"/>
<path d="M6.26798 7.1084H5.86719V13.788H6.26798V7.1084Z" fill="#F6D908"/>
<path d="M6.67033 7.1084H6.26953V13.788H6.67033V7.1084Z" fill="#F6DA08"/>
<path d="M7.07658 7.1084H6.67578V13.788H7.07658V7.1084Z" fill="#F6DB08"/>
<path d="M7.47502 7.1084H7.07422V13.788H7.47502V7.1084Z" fill="#F6DC08"/>
<path d="M7.87736 7.1084H7.47656V13.788H7.87736V7.1084Z" fill="#F6DD08"/>
<path d="M8.2758 7.1084H7.875V13.788H8.2758V7.1084Z" fill="#F6DE08"/>
<path d="M8.67796 7.1084H8.27716V13.788H8.67796V7.1084Z" fill="#F6DF08"/>
<path d="M9.07664 7.1084H8.67584V13.788H9.07664V7.1084Z" fill="#F6E008"/>
<path d="M9.47892 7.1084H9.07812V13.788H9.47892V7.1084Z" fill="#F6E108"/>
<path d="M9.88127 7.1084H9.48047V13.788H9.88127V7.1084Z" fill="#F6E208"/>
</g>
<mask id="mask3_401_558" style="mask-type:luminance" maskUnits="userSpaceOnUse" x="0" y="0" width="10" height="7">
<path d="M5.25503 0.154297L0.519531 4.13436L1.39083 6.78566L9.28188 0.154297H5.25503Z" fill="white"/>
</mask>
<g mask="url(#mask3_401_558)">
<path d="M9.28086 0.56973L8.40085 1.30724L7.55859 0.154297H9.28086V0.56973Z" fill="#8E8E90"/>
<path d="M8.40011 1.30724L8.20843 1.4675L7.25 0.154297H7.55786L8.40011 1.30724Z" fill="#8E8E90"/>
<path d="M8.21305 1.4675L8.02137 1.62776L6.94531 0.154297H7.25462L8.21305 1.4675Z" fill="#8E8E90"/>
<path d="M8.01818 1.62776L7.82649 1.78958L6.63281 0.154297H6.94212L8.01818 1.62776Z" fill="#8F8F91"/>
<path d="M7.8233 1.78958L7.63162 1.94984L6.32031 0.154297H6.62962L7.8233 1.78958Z" fill="#909092"/>
<path d="M7.63624 1.94984L7.44455 2.1101L6.01562 0.154297H6.32494L7.63624 1.94984Z" fill="#919193"/>
<path d="M7.44382 2.1101L7.25068 2.27036L5.70703 0.154297H6.01489L7.44382 2.1101Z" fill="#919193"/>
<path d="M7.2514 2.27036L7.05971 2.43218L5.39844 0.154297H5.70775L7.2514 2.27036Z" fill="#929294"/>
<path d="M7.05652 2.43218L6.86484 2.59244L5.08594 0.154297H5.39525L7.05652 2.43218Z" fill="#939395"/>
<path d="M6.86801 2.59244L6.67632 2.7527L4.78125 0.155853L4.78415 0.154297H5.08911L6.86801 2.59244Z" fill="#949496"/>
<path d="M4.7781 0.154297L4.58594 0.315337L6.48078 2.91113L6.67296 2.7501L4.7781 0.154297Z" fill="#959597"/>
<path d="M4.5906 0.317383L4.39844 0.478423L6.29328 3.07421L6.48544 2.91317L4.5906 0.317383Z" fill="#969698"/>
<path d="M4.3992 0.478516L4.20703 0.639554L6.10187 3.23535L6.29404 3.07431L4.3992 0.478516Z" fill="#979799"/>
<path d="M4.20779 0.637695L4.01562 0.798734L5.91047 3.39452L6.10263 3.23348L4.20779 0.637695Z" fill="#98989A"/>
<path d="M4.01248 0.798828L3.82031 0.959868L5.71515 3.55566L5.90733 3.39462L4.01248 0.798828Z" fill="#99999B"/>
<path d="M3.82498 0.958984L3.63281 1.12002L5.52765 3.71581L5.71982 3.55477L3.82498 0.958984Z" fill="#9A9A9C"/>
<path d="M3.62966 1.12012L3.4375 1.28116L5.33234 3.87695L5.5245 3.71591L3.62966 1.12012Z" fill="#9B9B9D"/>
<path d="M3.43826 1.28027L3.24609 1.44131L5.14093 4.03711L5.3331 3.87607L3.43826 1.28027Z" fill="#9C9C9E"/>
<path d="M3.24685 1.44141L3.05469 1.60244L4.94953 4.19824L5.14169 4.0372L3.24685 1.44141Z" fill="#9D9D9F"/>
<path d="M3.05154 1.60156L2.85938 1.7626L4.75422 4.3584L4.94638 4.19735L3.05154 1.60156Z" fill="#9E9EA0"/>
<path d="M2.86013 1.76367L2.66797 1.92471L4.56281 4.52051L4.75497 4.35947L2.86013 1.76367Z" fill="#9F9FA1"/>
<path d="M2.67263 1.92188L2.48047 2.08291L4.37531 4.6787L4.56747 4.51766L2.67263 1.92188Z" fill="#A0A0A2"/>
<path d="M2.48123 2.08301L2.28906 2.24405L4.1839 4.83983L4.37607 4.67879L2.48123 2.08301Z" fill="#A1A1A3"/>
<path d="M2.28984 2.24414L2.09766 2.40518L3.99251 5.00097L4.18468 4.83993L2.28984 2.24414Z" fill="#A2A3A5"/>
<path d="M2.09842 2.40527L1.90625 2.56631L3.8011 5.1621L3.99326 5.00106L2.09842 2.40527Z" fill="#A3A4A6"/>
<path d="M1.90701 2.56445L1.71484 2.72549L3.60969 5.32128L3.80185 5.16024L1.90701 2.56445Z" fill="#A4A5A7"/>
<path d="M1.7117 2.72656L1.51953 2.8876L3.41437 5.48339L3.60655 5.32235L1.7117 2.72656Z" fill="#A5A6A8"/>
<path d="M1.52029 2.88965L1.32812 3.05069L3.22297 5.64649L3.41514 5.48544L1.52029 2.88965Z" fill="#A6A7A9"/>
<path d="M1.33279 3.0498L1.14062 3.21084L3.03547 5.80663L3.22764 5.64559L1.33279 3.0498Z" fill="#A8A8AA"/>
<path d="M1.14139 3.20898L0.949219 3.37002L2.84406 5.96581L3.03623 5.80477L1.14139 3.20898Z" fill="#A9AAAC"/>
<path d="M0.946074 3.36816L0.753906 3.5292L2.64875 6.12499L2.84091 5.96395L0.946074 3.36816Z" fill="#AAABAD"/>
<path d="M0.754667 3.52832L0.5625 3.68936L2.45735 6.28515L2.64951 6.12411L0.754667 3.52832Z" fill="#ABACAE"/>
<path d="M2.45817 6.2863L2.26648 6.44656L0.519531 4.05354V3.72524L0.563096 3.68945L2.45817 6.2863Z" fill="#ACADAF"/>
<path d="M2.26648 6.44771L2.07335 6.60797L0.519531 4.4779V4.05469L2.26648 6.44771Z" fill="#ADAEB0"/>
<path d="M2.07335 6.60858L1.88166 6.7704L0.519531 4.90328V4.47852L2.07335 6.60858Z" fill="#AFB0B2"/>
<path d="M1.88166 6.77141L1.86278 6.78697H1.58542L0.519531 5.32751V4.9043L1.88166 6.77141Z" fill="#B0B1B3"/>
<path d="M1.27611 6.78759L0.519531 5.75134V5.32812L1.58542 6.78759H1.27611Z" fill="#B1B2B4"/>
<path d="M0.519531 5.74902L1.27611 6.78527H0.519531V5.74902Z" fill="#B1B2B4"/>
</g>
<path d="M48.1023 6.0672C47.1497 5.94583 46.7779 5.74356 46.7779 5.34524C46.7779 4.86291 47.2281 4.5735 47.9832 4.5735C48.6512 4.5735 49.2147 4.93604 49.4049 5.27678L49.4761 5.40281L50.706 4.72443L50.6421 4.58595C50.1992 3.61972 49.2669 3.10938 47.9455 3.10938C46.6153 3.12027 45.2735 3.80332 45.2735 5.30479C45.2735 7.00698 46.6356 7.40996 47.9687 7.57956C49.2045 7.72115 49.3483 8.14592 49.3483 8.45243C49.3483 9.27863 48.3114 9.34398 47.9949 9.34398C47.1686 9.34398 46.5325 8.96589 46.2944 8.33418L46.2334 8.17392L44.9453 8.88965L44.9961 9.02346C45.4594 10.2464 46.4352 10.8408 47.976 10.8408C49.373 10.8408 50.8643 10.2137 50.8643 8.45555C50.8643 6.69735 49.5385 6.26013 48.1052 6.07186L48.1023 6.0672Z" fill="#8E8E90"/>
<path d="M56.2342 6.18933L54.175 3.15527H52.4571V10.8089H54.0545V5.82525L56.0004 8.67415H56.4084L58.4037 5.82525V10.8089H60.0011V3.15527H58.2948L56.2342 6.18933Z" fill="#8E8E90"/>
<path d="M63.908 3.14258L60.7031 10.7962H62.437L63.0222 9.41453H66.3971L66.9736 10.7962H68.7176L65.5127 3.14258H63.9066H63.908ZM65.745 7.79792H63.6772L64.7111 5.25864L65.745 7.79792Z" fill="#8E8E90"/>
<path d="M76.5625 3.14258V4.72807H78.7306V10.7962H80.328V4.72807H82.496V3.14258H76.5625Z" fill="#8E8E90"/>
<path d="M76.132 10.8104L73.9218 8.1451C74.9413 7.82147 75.5207 6.96104 75.5207 5.74897C75.5207 4.53691 74.7031 3.16769 72.9053 3.1568C72.3637 3.1568 71.822 3.15368 71.2804 3.15213C70.7387 3.14902 70.1956 3.14746 69.6539 3.14746H69.5V10.812H71.0974V8.36449H72.1124L74.1048 10.812H76.132V10.8104ZM73.9233 5.78009C73.9233 6.2671 73.6561 6.78678 72.9053 6.78678H71.0974V4.77341H72.9053C73.6561 4.77341 73.9233 5.31487 73.9233 5.78009Z" fill="#8E8E90"/>
<path d="M13.9778 5.45703H12.3906V10.8125H13.9778V5.45703Z" fill="#8E8E90"/>
<path d="M20.5197 10.812L17.1623 6.19086V10.812H15.5664V3.15835H16.84L19.9592 7.38892V3.14746H21.5566V10.812H20.5197Z" fill="#8E8E90"/>
<path d="M22.6133 4.74467H24.7814V10.8128H26.3787V4.74467H28.5454V3.15918H22.6133V4.74467Z" fill="#8E8E90"/>
<path d="M29.5859 10.8128H35.0098V9.12305H31.1732V7.80051H34.8733V6.18235H31.1732V4.82869H35.0098V3.15918H29.5859V10.8128Z" fill="#8E8E90"/>
<path d="M42.925 10.8104L40.7148 8.1451C41.7342 7.82147 42.3136 6.96104 42.3136 5.74897C42.3136 4.53691 41.4961 3.16769 39.6983 3.1568C39.1566 3.1568 38.615 3.15368 38.0733 3.15213C37.5317 3.14902 36.9886 3.14746 36.4469 3.14746H36.293V10.812H37.8903V8.36449H38.9054L40.8978 10.812H42.925V10.8104ZM40.7163 5.78009C40.7163 6.2671 40.4491 6.78678 39.6983 6.78678H37.8903V4.77341H39.6983C40.4491 4.77341 40.7163 5.31487 40.7163 5.78009Z" fill="#8E8E90"/>
<path d="M13.9778 3.14746H12.3906V4.84809H13.9778V3.14746Z" fill="#F6D808"/>
</svg>
