<svg width="22" height="25" viewBox="0 0 22 25" fill="none" xmlns="http://www.w3.org/2000/svg">
<path d="M15.432 4.74591H17.5847V0.838072H13.6727C13.3463 0.82457 9.36819 0.748961 8.3371 4.6586C8.32216 4.69956 7.99265 5.62937 7.99265 7.80135L4.41553 7.81215V11.9108L7.99718 11.9005V22.7113H13.4681V11.9099H17.0891V7.80045H13.4681V6.50743C13.4681 5.70363 13.8089 4.74591 15.432 4.74591ZM16.1839 8.70011V11.0093H12.5628V21.8107H8.90243V10.9976L5.32078 11.008V8.70956L8.91194 8.69921L8.90243 8.2415C8.85536 5.94081 9.18533 4.97319 9.20026 4.92684C10.0901 1.55951 13.488 1.72873 13.6338 1.73773L16.6795 1.73864V3.84625H15.432C13.3169 3.84625 12.5633 5.22072 12.5633 6.50698V8.70011H16.1839Z" fill="white" stroke="white" stroke-width="0.5"/>
</svg>
