<svg width="15" height="15" viewBox="0 0 15 15" fill="none" xmlns="http://www.w3.org/2000/svg">
<path d="M14.8576 14.1839L10.9849 10.373C11.999 9.2712 12.6221 7.814 12.6221 6.2105C12.6216 2.78032 9.7963 0 6.31081 0C2.82531 0 -3.05176e-05 2.78032 -3.05176e-05 6.2105C-3.05176e-05 9.64068 2.82531 12.421 6.31081 12.421C7.81678 12.421 9.19803 11.9001 10.283 11.0341L14.1708 14.86C14.3602 15.0466 14.6677 15.0466 14.8572 14.86C15.047 14.6734 15.047 14.3705 14.8576 14.1839ZM6.31081 11.4655C3.3617 11.4655 0.970981 9.11275 0.970981 6.2105C0.970981 3.30825 3.3617 0.955521 6.31081 0.955521C9.25994 0.955521 11.6506 3.30825 11.6506 6.2105C11.6506 9.11275 9.25994 11.4655 6.31081 11.4655Z" fill="black"/>
</svg>
