<svg width="15" height="15" viewBox="0 0 15 15" fill="none" xmlns="http://www.w3.org/2000/svg">
<path d="M14.8576 14.184L10.9849 10.3731C11.999 9.27126 12.6222 7.81406 12.6222 6.21056C12.6217 2.78038 9.79633 6.10352e-05 6.31084 6.10352e-05C2.82534 6.10352e-05 0 2.78038 0 6.21056C0 9.64074 2.82534 12.4211 6.31084 12.4211C7.81681 12.4211 9.19806 11.9002 10.283 11.0342L14.1708 14.8601C14.3602 15.0467 14.6678 15.0467 14.8572 14.8601C15.0471 14.6735 15.0471 14.3706 14.8576 14.184ZM6.31084 11.4655C3.36173 11.4655 0.971011 9.11281 0.971011 6.21056C0.971011 3.30831 3.36173 0.955582 6.31084 0.955582C9.25997 0.955582 11.6507 3.30831 11.6507 6.21056C11.6507 9.11281 9.25997 11.4655 6.31084 11.4655Z" fill="white"/>
</svg>
