<svg width="76" height="76" viewBox="0 0 76 76" fill="none" xmlns="http://www.w3.org/2000/svg">
<path d="M17.34 15.3074L15.9074 14.7844C15.3179 14.6115 14.8564 14.1841 14.6419 13.612C14.4606 13.1281 14.478 12.6034 14.6917 12.1328C14.9054 11.6622 15.2896 11.3038 15.7727 11.1225C16.2558 10.9404 16.7804 10.9579 17.2519 11.1724C17.7225 11.3861 18.0817 11.7703 18.2621 12.2542C18.4235 12.6849 18.9032 12.9011 19.3331 12.7406C19.763 12.5793 19.9808 12.0995 19.8195 11.6697C19.4819 10.77 18.8151 10.0557 17.9395 9.65828C17.6976 9.54853 17.4481 9.47286 17.1945 9.41882V8.62641C17.1945 8.16743 16.822 7.79492 16.363 7.79492C15.904 7.79492 15.5315 8.16743 15.5315 8.62641V9.47453C15.4168 9.50529 15.3012 9.52442 15.1881 9.56599C13.3314 10.2628 12.3869 12.3398 13.0836 14.1965C13.4828 15.2625 14.3417 16.0591 15.3869 16.3634L16.8195 16.8864C17.409 17.0594 17.8705 17.4867 18.085 18.0588C18.46 19.0574 17.952 20.1741 16.9534 20.5483C15.9539 20.9233 14.8389 20.4152 14.4639 19.4166C14.3026 18.9867 13.8228 18.7706 13.393 18.9302C12.9631 19.0915 12.7452 19.5713 12.9065 20.0012C13.3539 21.1927 14.3708 21.9992 15.5315 22.247V23.0461C15.5315 23.505 15.904 23.8776 16.363 23.8776C16.822 23.8776 17.1945 23.505 17.1945 23.0461V22.2004C17.3093 22.1697 17.424 22.1489 17.5371 22.1065C18.4368 21.7689 19.151 21.102 19.5485 20.2265C19.9459 19.3518 19.9792 18.3748 19.6416 17.4751C19.2433 16.4083 18.3852 15.6126 17.34 15.3074Z" fill="url(#paint0_linear_401_829)"/>
<path d="M53.5072 41.5599H31.9509C31.492 41.5599 31.1194 41.1883 31.1194 40.7285C31.1194 40.2686 31.492 39.897 31.9509 39.897H53.5072C53.9671 39.897 54.3387 40.2686 54.3387 40.7285C54.3387 41.1883 53.9671 41.5599 53.5072 41.5599Z" fill="url(#paint1_linear_401_829)"/>
<path d="M50.1913 37.1112H35.2661C34.8071 37.1112 34.4346 36.7387 34.4346 36.2797C34.4346 35.8207 34.8071 35.4482 35.2661 35.4482H50.1913C50.6511 35.4482 51.0228 35.8207 51.0228 36.2797C51.0228 36.7387 50.6511 37.1112 50.1913 37.1112Z" fill="url(#paint2_linear_401_829)"/>
<path d="M23.6128 40.8936C22.9825 40.8936 22.3614 40.7547 21.786 40.4596C20.646 39.8759 19.8611 38.7916 19.5751 37.4072C19.3032 36.0901 19.5218 34.6466 20.1887 33.3437C20.8556 32.0408 21.8999 31.0214 23.1272 30.4709C24.4168 29.8947 25.7563 29.8972 26.8963 30.4817C29.1854 31.6549 29.9021 34.847 28.4936 37.5984C27.4393 39.6572 25.4878 40.8936 23.6128 40.8936ZM25.0554 31.7065C24.6513 31.7065 24.2281 31.8005 23.8073 31.9892C22.9243 32.385 22.1651 33.135 21.6696 34.102C21.174 35.069 21.0094 36.1234 21.2039 37.0713C21.3852 37.9526 21.8617 38.6303 22.5443 38.9795C24.016 39.7329 26.0224 38.7741 27.0135 36.8393C28.0047 34.9044 27.6122 32.7168 26.138 31.9618C25.8062 31.7913 25.4395 31.7065 25.0554 31.7065Z" fill="url(#paint3_linear_401_829)"/>
<path d="M61.8321 40.9004C61.1969 40.9004 60.5441 40.7574 59.9031 40.4697C58.675 39.9209 57.6314 38.8999 56.9646 37.5978C55.5561 34.8464 56.272 31.6543 58.561 30.4811C59.7027 29.8965 61.0389 29.8932 62.3302 30.4702C63.5583 31.0199 64.6018 32.0401 65.2687 33.343C66.6772 36.0944 65.9613 39.2865 63.6722 40.4589C63.0976 40.7541 62.474 40.9004 61.8321 40.9004ZM60.402 31.7067C60.0178 31.7067 59.6511 31.7915 59.3185 31.9619C57.8451 32.7169 57.4527 34.9054 58.443 36.8394C58.9385 37.8065 59.6977 38.5565 60.5807 38.9522C61.4014 39.3198 62.2296 39.3273 62.9131 38.9797C64.3864 38.2247 64.7789 36.0362 63.7886 34.1014C63.293 33.1343 62.5339 32.3843 61.6509 31.9885C61.2293 31.8006 60.8069 31.7067 60.402 31.7067Z" fill="url(#paint4_linear_401_829)"/>
<path d="M75.224 55.0916C74.5796 52.9821 72.4535 51.6816 70.2875 52.0683C69.9524 52.1281 69.599 52.2063 69.2564 52.2737C69.2847 52.1207 69.3038 51.9643 69.3038 51.803V44.1916C69.4568 43.7018 69.5591 43.1896 69.589 42.655L69.9042 36.9502C70.1204 33.048 68.6894 29.1949 65.9779 26.3786L63.1716 23.4659L59.7858 15.0039C59.163 13.4515 57.7595 12.3672 56.1206 12.1735C47.2353 11.1225 38.2237 11.1225 29.3376 12.1735C27.6987 12.3672 26.2943 13.4523 25.6724 15.0047L22.2857 23.4659L19.4803 26.3786C16.7688 29.1941 15.3378 33.0472 15.5532 36.9502L15.8683 42.6558C15.8932 43.114 16.2907 43.4657 16.7447 43.4391C17.2028 43.4142 17.5546 43.0217 17.5288 42.5627L17.2136 36.8579C17.0232 33.4147 18.2863 30.0156 20.6776 27.5319L23.3667 24.7398C36.2165 24.0688 49.2409 24.0688 62.0907 24.7398L64.7797 27.5319C67.1719 30.0156 68.4341 33.4147 68.2445 36.8579L67.9294 42.5627C67.793 45.0231 65.7559 46.9505 63.2922 46.9505H52.319C51.8592 46.9505 51.4876 47.3221 51.4876 47.782C51.4876 48.2418 51.8592 48.6134 52.319 48.6134H56.5588V51.8022C56.5588 53.2141 57.7071 54.3623 59.119 54.3623H60.4992C60.155 54.453 59.8191 54.5395 59.4707 54.6309C57.4618 55.1589 55.3972 55.6994 53.3501 56.1916C52.6126 52.8158 49.6658 50.2897 46.1336 50.1708L44.5421 50.1176C42.0843 50.1176 39.4152 49.1714 36.8351 48.2567C34.2708 47.3471 31.6192 46.4067 29.1588 46.4067C25.4778 46.4067 21.0402 46.997 16.0329 51.3723C15.6205 51.7324 15.1399 51.9352 14.5995 51.9261L13.4927 51.8754V49.0192C13.4927 48.5594 13.1202 48.1877 12.6613 48.1877H1.41456C0.955575 48.1877 0.583069 48.5594 0.583069 49.0192V71.4278C0.583069 71.8876 0.955575 72.2593 1.41456 72.2593H12.6621C13.1211 72.2593 13.4936 71.8876 13.4936 71.4278V68.1517H17.4964C18.8375 68.1517 20.1804 68.2997 21.4858 68.5899L33.4601 71.2607C34.5327 71.5001 35.6303 71.6215 36.7287 71.6215C36.801 71.6215 36.8742 71.6207 36.9473 71.6199L43.5743 71.5234C45.5507 71.4952 47.4723 71.0844 49.2833 70.3053L72.7703 60.3856C74.8241 59.5034 75.8776 57.2268 75.224 55.0916ZM24.2497 23.0352L27.2164 15.6225C27.6114 14.6355 28.4986 13.9471 29.533 13.8248C38.2894 12.7896 47.1696 12.7896 55.926 13.8248C56.9596 13.9462 57.8476 14.6355 58.2417 15.6225L61.2085 23.0352C48.9382 22.4266 36.52 22.4266 24.2497 23.0352ZM58.2209 51.8022V48.6134H63.2922C64.9735 48.6134 66.5067 47.9524 67.6409 46.8715V51.8022C67.6409 52.2969 67.2384 52.6994 66.7437 52.6994H59.1181C58.6242 52.7002 58.2209 52.2969 58.2209 51.8022ZM11.8314 70.5963H2.24604V49.8507H11.8306L11.8314 70.5963ZM72.1201 58.8557L48.6322 68.7754C47.0183 69.4696 45.3079 69.8347 43.551 69.8604L36.9241 69.9569C35.8822 69.9685 34.8395 69.8646 33.8234 69.6384L21.8492 66.9677C20.4249 66.6492 18.9606 66.4888 17.498 66.4888H13.4952V53.54L14.5579 53.5882H14.5828C15.5133 53.5882 16.4171 53.2465 17.1288 52.6245C21.7211 48.6109 25.7879 48.0696 29.1605 48.0696C31.3348 48.0696 33.737 48.9211 36.2805 49.8233C38.9936 50.7853 41.7974 51.7806 44.513 51.7797H44.5147L46.0779 51.8321C48.8517 51.9261 51.1649 53.915 51.7328 56.5691C44.6926 58.1639 38.1023 58.9405 35.0599 56.15C34.7214 55.8399 34.1951 55.8624 33.885 56.2016C33.574 56.54 33.5973 57.0655 33.9357 57.3765C38.7575 61.8 49.5036 58.9729 59.8947 56.2398C63.7221 55.2329 67.3382 54.2825 70.5793 53.7046C71.9247 53.466 73.2359 54.2701 73.6359 55.5771C74.0392 56.9009 73.3856 58.3111 72.1201 58.8557Z" fill="url(#paint5_linear_401_829)"/>
<path d="M12.6621 27.3064C12.5715 27.3064 12.4792 27.2914 12.3885 27.2598C7.53265 25.5703 4.2699 20.9788 4.2699 15.8352C4.2699 9.16667 9.69535 3.74121 16.3639 3.74121C19.5942 3.74121 22.6316 4.99925 24.9157 7.28335C25.2408 7.60846 25.2408 8.13396 24.9157 8.45907C24.5906 8.78418 24.0651 8.78418 23.74 8.45907C21.7694 6.48845 19.1502 5.40419 16.3639 5.40419C10.6125 5.40419 5.93287 10.083 5.93287 15.8352C5.93287 20.272 8.74662 24.2324 12.9348 25.6892C13.368 25.8397 13.5975 26.3136 13.447 26.7476C13.3273 27.091 13.0055 27.3064 12.6621 27.3064Z" fill="url(#paint6_linear_401_829)"/>
<defs>
<linearGradient id="paint0_linear_401_829" x1="16.363" y1="7.79492" x2="16.363" y2="23.8776" gradientUnits="userSpaceOnUse">
<stop stop-color="white"/>
<stop offset="1" stop-color="#999999"/>
</linearGradient>
<linearGradient id="paint1_linear_401_829" x1="42.7291" y1="39.897" x2="42.7291" y2="41.5599" gradientUnits="userSpaceOnUse">
<stop stop-color="white"/>
<stop offset="1" stop-color="#999999"/>
</linearGradient>
<linearGradient id="paint2_linear_401_829" x1="42.7287" y1="35.4482" x2="42.7287" y2="37.1112" gradientUnits="userSpaceOnUse">
<stop stop-color="white"/>
<stop offset="1" stop-color="#999999"/>
</linearGradient>
<linearGradient id="paint3_linear_401_829" x1="24.3382" y1="30.041" x2="24.3382" y2="40.8936" gradientUnits="userSpaceOnUse">
<stop stop-color="white"/>
<stop offset="1" stop-color="#999999"/>
</linearGradient>
<linearGradient id="paint4_linear_401_829" x1="61.1166" y1="30.04" x2="61.1166" y2="40.9004" gradientUnits="userSpaceOnUse">
<stop stop-color="white"/>
<stop offset="1" stop-color="#999999"/>
</linearGradient>
<linearGradient id="paint5_linear_401_829" x1="38" y1="11.3853" x2="38" y2="72.2593" gradientUnits="userSpaceOnUse">
<stop stop-color="white"/>
<stop offset="1" stop-color="#999999"/>
</linearGradient>
<linearGradient id="paint6_linear_401_829" x1="14.7147" y1="3.74121" x2="14.7147" y2="27.3064" gradientUnits="userSpaceOnUse">
<stop stop-color="white"/>
<stop offset="1" stop-color="#999999"/>
</linearGradient>
</defs>
</svg>
