<svg width="75" height="75" viewBox="0 0 75 75" fill="none" xmlns="http://www.w3.org/2000/svg">
<g clip-path="url(#clip0_401_792)">
<path d="M73.9216 67.0904H71.3007V24.3304H73.4412C73.9964 24.3304 74.4466 23.8804 74.4466 23.3252V12.2516C74.4466 11.6964 73.9966 11.2464 73.4412 11.2464H70.3443V8.76792C70.3443 6.29277 68.3306 4.27905 65.8554 4.27905H58.8779C57.63 2.22168 55.4739 0.746582 52.4581 0.746582H23.8848C20.8689 0.746582 18.7128 2.22168 17.465 4.27905H10.4875C8.01238 4.27905 5.99866 6.29277 5.99866 8.76792V11.2464H2.89759C2.34241 11.2464 1.89227 11.6964 1.89227 12.2516V23.3252C1.89227 23.8804 2.34227 24.3304 2.89759 24.3304H3.49085L0.134308 33.5166C0.0216613 33.8248 0.066632 34.1688 0.254571 34.4375C0.442657 34.7065 0.750128 34.8667 1.0784 34.8667H5.04227V67.0905H2.42151C1.86634 67.0905 1.41619 67.5405 1.41619 68.0957V73.2479C1.41619 73.803 1.86619 74.253 2.42151 74.253H73.9216C74.4767 74.253 74.9269 73.803 74.9269 73.2479V68.0957C74.9267 67.5405 74.4767 67.0904 73.9216 67.0904ZM69.2902 67.0904H49.0803V34.8667H53.0442C53.3724 34.8667 53.6799 34.7065 53.868 34.4375C54.0561 34.1686 54.1011 33.8248 53.9883 33.5166L50.6316 24.3304H69.2902V67.0904ZM65.8554 6.2894C67.222 6.2894 68.3338 7.40122 68.3338 8.76792V11.2464H59.867C60.0534 10.501 60.1478 9.72915 60.1478 8.95923C60.1478 8.05659 60.018 7.15176 59.7622 6.28955L65.8554 6.2894ZM23.8848 2.75693H52.4581C56.3601 2.75693 58.1371 5.97197 58.1371 8.95908C58.1371 10.5905 57.6118 12.1636 56.6957 13.2748C55.6783 14.5089 54.2128 15.1614 52.4581 15.1614H23.8848C19.9828 15.1614 18.2056 11.9463 18.2056 8.95923C18.2056 5.97197 19.9829 2.75693 23.8848 2.75693ZM8.00916 8.76792C8.00916 7.40122 9.12098 6.2894 10.4875 6.2894H16.5808C16.3249 7.15161 16.1953 8.05659 16.1953 8.95908C16.1953 9.72915 16.2896 10.5008 16.4761 11.2463H8.00931L8.00916 8.76792ZM3.90291 13.2568H17.2479C18.4541 15.5113 20.6853 17.1717 23.8848 17.1717H52.4581C55.6577 17.1717 57.8888 15.5113 59.095 13.2568H72.4359V22.3201H3.90291V13.2568ZM5.63128 24.3304H48.4913L51.6067 32.8564H2.516L5.63128 24.3304ZM7.05276 34.8667H47.0698V67.0905H42.491C42.5426 66.8843 42.5729 66.6695 42.5729 66.4475V64.8364L43.2663 54.8411C43.2819 54.6177 43.2212 54.398 43.0986 54.2141L43.0996 54.2134L42.2481 52.9378C42.7512 52.8826 43.1427 52.4567 43.1427 51.9391C43.1427 51.3839 42.6927 50.9339 42.1374 50.9339H40.9104L37.8874 46.4052C37.2266 45.4114 36.1665 44.8416 34.9788 44.8416H19.1437C17.9559 44.8416 16.8956 45.4116 16.2362 46.4037L13.2121 50.9339H11.9852C11.43 50.9339 10.9799 51.3839 10.9799 51.9391C10.9799 52.4567 11.3714 52.8827 11.8744 52.9378L11.0229 54.2134L11.024 54.2141C10.9014 54.3978 10.8407 54.6177 10.8562 54.8411L11.5495 64.8364V66.4475C11.5495 66.6695 11.5799 66.8841 11.6314 67.0905H7.05276V34.8667ZM14.4877 52.6441C14.5768 52.5537 14.649 52.4466 14.6988 52.3278L17.9093 47.5183C18.1991 47.0824 18.6259 46.852 19.1437 46.852H34.9788C35.4965 46.852 35.9234 47.0825 36.2143 47.5199L39.4233 52.3273C39.4733 52.4465 39.5458 52.554 39.6353 52.6447L40.384 53.7663H13.7386L14.4877 52.6441ZM13.4928 63.798L12.9363 55.7767H41.1861L40.6296 63.798H13.4928ZM13.5602 66.4475V65.8085H17.7477V66.4475C17.7477 66.796 17.4551 67.0905 17.1088 67.0905H14.199C13.8527 67.0904 13.5602 66.796 13.5602 66.4475ZM19.7582 66.4475V65.8085H34.3642V66.4475C34.3642 66.6695 34.3945 66.8841 34.4461 67.0905H19.6763C19.7279 66.8841 19.7582 66.6695 19.7582 66.4475ZM36.3747 66.4475V65.8085H40.5622V66.4475C40.5622 66.796 40.2696 67.0905 39.9233 67.0905H37.0137C36.6674 67.0904 36.3747 66.796 36.3747 66.4475ZM72.9162 72.2427H3.42669V69.1009H14.199H17.1088H37.0137H39.9234H72.9162V72.2427ZM33.2084 56.8958H20.914C20.5775 56.8958 20.2635 57.0641 20.077 57.3442C19.8907 57.6243 19.8568 57.9792 19.987 58.2895L21.566 62.0579C21.7226 62.4316 22.0881 62.6746 22.4931 62.6746H31.6295C32.0345 62.6746 32.4 62.4315 32.5566 62.0579L34.1355 58.2893C34.2655 57.9791 34.2318 57.6243 34.0453 57.3442C33.859 57.0641 33.5449 56.8958 33.2084 56.8958ZM30.9608 60.6644H23.1619L22.4251 58.9063H31.6976L30.9608 60.6644ZM18.7601 58.9397C18.6534 59.4052 18.2393 59.7203 17.7811 59.7203C17.7069 59.7203 17.6313 59.7121 17.5555 59.6947L14.6458 59.0273C14.1047 58.9032 13.7667 58.3639 13.8908 57.8228C14.0147 57.2818 14.5529 56.9433 15.0953 57.0678L18.0051 57.7352C18.5462 57.8594 18.8843 58.3986 18.7601 58.9397ZM40.2318 57.8228C40.3558 58.3639 40.0178 58.9032 39.4768 59.0273L36.567 59.6947C36.4914 59.7121 36.4157 59.7203 36.3414 59.7203C35.8832 59.7203 35.4693 59.4051 35.3625 58.9397C35.2384 58.3986 35.5765 57.8592 36.1175 57.7352L39.0272 57.0678C39.5685 56.9434 40.1077 57.2818 40.2318 57.8228ZM52.922 41.9031C54.3401 41.9031 55.4941 43.057 55.4941 44.4752V46.9456C55.4941 48.3638 54.3403 49.5177 52.922 49.5177C52.3668 49.5177 51.9167 49.0677 51.9167 48.5125C51.9167 47.9573 52.3667 47.5073 52.922 47.5073C53.2317 47.5073 53.4835 47.2554 53.4835 46.9457V44.4754C53.4835 44.1657 53.2317 43.9138 52.922 43.9138C52.3668 43.9138 51.9167 43.4638 51.9167 42.9086C51.9167 42.3534 52.3668 41.9031 52.922 41.9031Z" fill="url(#paint0_linear_401_792)"/>
</g>
<defs>
<linearGradient id="paint0_linear_401_792" x1="37.5001" y1="0.746582" x2="37.5001" y2="74.253" gradientUnits="userSpaceOnUse">
<stop stop-color="white"/>
<stop offset="1" stop-color="#999999"/>
</linearGradient>
<clipPath id="clip0_401_792">
<rect width="75" height="75" fill="white"/>
</clipPath>
</defs>
</svg>
