<svg width="74" height="74" viewBox="0 0 74 74" fill="none" xmlns="http://www.w3.org/2000/svg">
<path d="M20.928 48.7939L14.6843 47.4064C12.9499 47.0595 11.4468 48.3314 11.4468 50.0658V52.7251C11.4468 54.8064 13.0655 55.1533 15.0312 55.2689H22.1999C23.4718 55.2689 24.5124 54.8064 24.5124 53.5345V53.1876C24.3968 50.9908 23.0093 49.2564 20.928 48.7939ZM13.6437 52.8408C13.6437 50.8751 13.6437 49.8345 13.6437 49.9501C13.6437 49.6033 13.8749 49.372 14.2218 49.4876L20.5812 50.8751C21.5062 51.1064 22.1999 51.9158 22.3155 52.8408C22.0843 52.9564 13.7593 52.9564 13.6437 52.8408Z" fill="url(#paint0_linear_401_821)"/>
<path d="M59.3156 47.4061L52.9562 48.7936C50.8749 49.2561 49.4874 50.9904 49.4874 53.0717C49.4874 53.1873 49.2562 54.6904 50.8749 55.0373C51.6843 55.2686 56.8874 55.1529 59.0843 55.1529C61.0499 55.1529 62.5531 54.6904 62.5531 52.6092V49.9498C62.6687 48.3311 61.0499 47.0592 59.3156 47.4061ZM60.3562 52.8404C60.0093 52.9561 51.9156 52.9561 51.7999 52.9561C51.9156 52.0311 52.4937 51.2217 53.4187 50.9904L59.7781 49.6029C60.1249 49.4873 60.3562 49.7186 60.3562 50.0654V52.8404Z" fill="url(#paint1_linear_401_821)"/>
<path d="M44.7468 54.1123H29.2531C28.6749 54.1123 28.0968 54.5748 28.0968 55.2686C28.0968 55.9623 28.5593 56.4248 29.2531 56.4248H44.7468C45.3249 56.4248 45.9031 55.9623 45.9031 55.2686C45.9031 54.5748 45.4406 54.1123 44.7468 54.1123Z" fill="url(#paint2_linear_401_821)"/>
<path d="M44.7468 58.853H29.2531C28.6749 58.853 28.0968 59.3155 28.0968 60.0093C28.0968 60.703 28.5593 61.1655 29.2531 61.1655H44.7468C45.3249 61.1655 45.9031 60.703 45.9031 60.0093C45.9031 59.3155 45.4406 58.853 44.7468 58.853Z" fill="url(#paint3_linear_401_821)"/>
<path d="M69.3749 34.9188H67.2937C65.3281 34.9188 63.4781 35.8438 62.4374 37.5781L60.3562 33.4156C66.3687 30.6406 70.5312 24.6281 70.5312 17.575C70.4156 7.8625 62.5531 0 52.9562 0C43.3593 0 35.4968 7.8625 35.4968 17.4594C35.4968 19.5406 35.8437 21.5063 36.5374 23.3563H22.5468C19.8874 23.3563 17.4593 24.975 16.5343 27.4031L11.6781 37.4625C10.6375 35.8438 8.78745 34.8031 6.82183 34.8031H4.62495C2.89058 34.8031 1.38745 36.3063 1.38745 38.0406V39.4281C1.38745 41.1625 2.77495 42.6656 4.62495 42.6656H7.97808C6.59058 44.4 5.89683 46.5969 5.89683 48.9094V56.3094C5.89683 59.0844 6.93745 61.8594 8.90308 64.1719V69.7219C8.90308 72.15 10.8687 74 13.1812 74H17.8062C20.2343 74 22.0843 72.0344 22.0843 69.7219V67.525H51.7999V69.7219C51.7999 72.15 53.7656 74 56.0781 74H60.7031C63.1312 74 64.9812 72.0344 64.9812 69.7219V64.1719C66.9468 61.975 67.9874 59.3156 67.9874 56.425V49.025C67.9874 47.6375 67.6406 46.1344 67.0624 44.8625C66.7156 44.1688 66.3687 43.475 65.7906 42.7812H69.3749C71.1093 42.7812 72.6124 41.3937 72.6124 39.5438V38.1562C72.4968 36.3063 71.1093 34.9188 69.3749 34.9188ZM52.9562 2.3125C61.3968 2.3125 68.2187 9.13438 68.2187 17.4594C68.2187 25.7844 61.3968 32.6063 53.0718 32.6063C44.7468 32.6063 37.9249 25.7844 37.9249 17.4594C37.9249 9.13438 44.6312 2.3125 52.9562 2.3125ZM18.6156 28.3281C19.1937 26.7094 20.8124 25.6688 22.5468 25.6688H37.5781C40.4687 31.2188 46.2499 34.9188 52.9562 34.9188C54.8062 34.9188 56.5406 34.6875 58.1593 34.1094C58.2749 34.225 61.0499 40.1219 61.5124 40.9313H12.3718C12.8343 40.2375 12.1406 41.8563 18.6156 28.3281ZM3.69995 39.4281V38.0406C3.69995 37.4625 4.16245 37 4.62495 37H6.7062C9.24995 37 10.175 39.3125 10.4062 39.6594C10.2906 39.8906 10.0593 40.1219 9.9437 40.3531H4.62495C4.16245 40.3531 3.69995 40.0062 3.69995 39.4281ZM19.8874 69.6063C19.8874 70.7625 18.9625 71.6875 17.8062 71.6875H13.1812C12.025 71.6875 11.1 70.7625 11.1 69.6063V65.9062C12.6031 66.8313 14.3375 67.2938 16.0718 67.2938H19.8874V69.6063ZM60.8187 71.6875H56.1937C55.0374 71.6875 54.1124 70.7625 54.1124 69.6063V67.4094H57.9281C59.6624 67.4094 61.3968 66.9469 62.8999 66.0219V69.7219C62.8999 70.7625 61.9749 71.6875 60.8187 71.6875ZM65.9062 56.1937C65.9062 60.8187 62.5531 65.0969 57.9281 65.0969C43.7062 65.0969 31.7968 65.0969 16.0718 65.0969C11.4468 65.0969 8.0937 60.7031 8.0937 56.1937V48.7938C8.0937 46.7125 8.90308 44.6312 10.5218 43.1281H63.5937C64.2874 43.8219 64.8656 44.6313 65.3281 45.5563C65.7906 46.5969 66.0218 47.7531 66.0218 48.7938V56.1937H65.9062ZM70.2999 39.4281C70.2999 40.0062 69.8374 40.3531 69.3749 40.3531H64.0562C63.8249 40.1219 63.7093 39.8906 63.5937 39.6594C63.9406 39.3125 64.7499 37 67.2937 37H69.3749C69.9531 37 70.2999 37.4625 70.2999 37.925V39.4281Z" fill="url(#paint4_linear_401_821)"/>
<path d="M49.4874 22.0844C49.4874 21.5063 49.0249 20.9281 48.3312 20.9281C47.6374 20.9281 47.1749 21.3906 47.1749 22.0844C47.1749 24.8594 49.1406 27.1719 51.7999 27.6344V29.1375C51.7999 29.7156 52.2624 30.2938 52.9562 30.2938C53.6499 30.2938 54.1124 29.8313 54.1124 29.1375V27.6344C56.7718 27.0562 58.7374 24.8594 58.7374 22.0844C58.7374 19.3094 56.7718 16.9969 54.1124 16.5344V9.59688C55.4999 10.0594 56.4249 11.3313 56.4249 12.8344C56.4249 13.4125 56.8874 13.9906 57.5812 13.9906C58.2749 13.9906 58.7374 13.5281 58.7374 12.8344C58.7374 10.0594 56.7718 7.74688 54.1124 7.28438V5.78125C54.1124 5.20312 53.6499 4.625 52.9562 4.625C52.2624 4.625 51.7999 5.0875 51.7999 5.78125V7.28438C49.1406 7.8625 47.1749 10.0594 47.1749 12.8344C47.1749 15.6094 49.1406 17.9219 51.7999 18.3844V25.2062C50.5281 24.8594 49.4874 23.5875 49.4874 22.0844ZM56.4249 22.0844C56.4249 23.5875 55.3843 24.8594 54.1124 25.3219V18.8469C55.4999 19.1937 56.4249 20.5813 56.4249 22.0844ZM49.4874 12.8344C49.4874 11.3313 50.5281 10.0594 51.7999 9.59688V16.1875C50.5281 15.6094 49.4874 14.3375 49.4874 12.8344Z" fill="url(#paint5_linear_401_821)"/>
<defs>
<linearGradient id="paint0_linear_401_821" x1="17.9796" y1="47.3491" x2="17.9796" y2="55.2689" gradientUnits="userSpaceOnUse">
<stop stop-color="white"/>
<stop offset="1" stop-color="#999999"/>
</linearGradient>
<linearGradient id="paint1_linear_401_821" x1="56.0175" y1="47.3486" x2="56.0175" y2="55.1818" gradientUnits="userSpaceOnUse">
<stop stop-color="white"/>
<stop offset="1" stop-color="#999999"/>
</linearGradient>
<linearGradient id="paint2_linear_401_821" x1="36.9999" y1="54.1123" x2="36.9999" y2="56.4248" gradientUnits="userSpaceOnUse">
<stop stop-color="white"/>
<stop offset="1" stop-color="#999999"/>
</linearGradient>
<linearGradient id="paint3_linear_401_821" x1="36.9999" y1="58.853" x2="36.9999" y2="61.1655" gradientUnits="userSpaceOnUse">
<stop stop-color="white"/>
<stop offset="1" stop-color="#999999"/>
</linearGradient>
<linearGradient id="paint4_linear_401_821" x1="36.9999" y1="0" x2="36.9999" y2="74" gradientUnits="userSpaceOnUse">
<stop stop-color="white"/>
<stop offset="1" stop-color="#999999"/>
</linearGradient>
<linearGradient id="paint5_linear_401_821" x1="52.9562" y1="4.625" x2="52.9562" y2="30.2938" gradientUnits="userSpaceOnUse">
<stop stop-color="white"/>
<stop offset="1" stop-color="#999999"/>
</linearGradient>
</defs>
</svg>
