<svg width="75" height="69" viewBox="0 0 75 69" fill="none" xmlns="http://www.w3.org/2000/svg">
<path d="M16.7572 11.5652L15.3246 11.0422C14.735 10.8693 14.2736 10.4419 14.059 9.86982C13.8778 9.3859 13.8952 8.86123 14.1089 8.3906C14.3226 7.91998 14.7068 7.56161 15.1898 7.38035C15.6729 7.19825 16.1976 7.21571 16.6691 7.43024C17.1397 7.64393 17.4989 8.02808 17.6793 8.512C17.8406 8.94271 18.3204 9.1589 18.7503 8.99842C19.1802 8.83711 19.398 8.35735 19.2367 7.92747C18.8991 7.0278 18.2323 6.31355 17.3567 5.9161C17.1147 5.80634 16.8653 5.73068 16.6117 5.67663V4.88422C16.6117 4.42524 16.2392 4.05273 15.7802 4.05273C15.3212 4.05273 14.9487 4.42524 14.9487 4.88422V5.73234C14.834 5.7631 14.7184 5.78223 14.6053 5.8238C12.7486 6.52059 11.804 8.59765 12.5008 10.4544C12.8999 11.5203 13.7589 12.3169 14.804 12.6212L16.2367 13.1442C16.8262 13.3172 17.2877 13.7446 17.5022 14.3166C17.8772 15.3152 17.3692 16.4319 16.3706 16.8061C15.3711 17.1811 14.2561 16.6731 13.8811 15.6744C13.7198 15.2446 13.24 15.0284 12.8101 15.188C12.3803 15.3493 12.1624 15.8291 12.3237 16.259C12.7711 17.4505 13.788 18.257 14.9487 18.5048V19.3039C14.9487 19.7629 15.3212 20.1354 15.7802 20.1354C16.2392 20.1354 16.6117 19.7629 16.6117 19.3039V18.4583C16.7264 18.4275 16.8412 18.4067 16.9543 18.3643C17.8539 18.0267 18.5682 17.3599 18.9656 16.4843C19.3631 15.6096 19.3963 14.6326 19.0588 13.7329C18.6605 12.6661 17.8024 11.8704 16.7572 11.5652Z" fill="url(#paint0_linear_680_6037)"/>
<path d="M52.9239 37.8192H31.3676C30.9086 37.8192 30.5361 37.4476 30.5361 36.9877C30.5361 36.5279 30.9086 36.1562 31.3676 36.1562H52.9239C53.3837 36.1562 53.7554 36.5279 53.7554 36.9877C53.7554 37.4476 53.3837 37.8192 52.9239 37.8192Z" fill="url(#paint1_linear_680_6037)"/>
<path d="M49.6082 33.37H34.6831C34.2241 33.37 33.8516 32.9975 33.8516 32.5385C33.8516 32.0795 34.2241 31.707 34.6831 31.707H49.6082C50.0681 31.707 50.4397 32.0795 50.4397 32.5385C50.4397 32.9975 50.0681 33.37 49.6082 33.37Z" fill="url(#paint2_linear_680_6037)"/>
<path d="M23.0296 37.1534C22.3993 37.1534 21.7782 37.0145 21.2028 36.7193C20.0628 36.1356 19.2779 35.0514 18.9919 33.6669C18.72 32.3499 18.9387 30.9064 19.6055 29.6035C20.2724 28.3005 21.3167 27.2811 22.544 26.7307C23.8336 26.1545 25.1731 26.1569 26.3131 26.7415C28.6022 27.9147 29.3189 31.1068 27.9104 33.8582C26.8561 35.9169 24.9046 37.1534 23.0296 37.1534ZM24.4722 27.9663C24.0681 27.9663 23.6449 28.0602 23.2241 28.249C22.3411 28.6448 21.582 29.3948 21.0864 30.3618C20.5908 31.3288 20.4262 32.3831 20.6208 33.331C20.802 34.2124 21.2785 34.8901 21.9611 35.2393C23.4328 35.9926 25.4392 35.0339 26.4304 33.099C27.4215 31.1642 27.029 28.9765 25.5548 28.2215C25.223 28.0511 24.8564 27.9663 24.4722 27.9663Z" fill="url(#paint3_linear_680_6037)"/>
<path d="M61.2491 37.1592C60.6139 37.1592 59.9611 37.0162 59.3201 36.7285C58.092 36.1797 57.0484 35.1587 56.3816 33.8565C54.973 31.1052 55.689 27.9131 57.978 26.7398C59.1197 26.1553 60.4559 26.152 61.7472 26.729C62.9753 27.2786 64.0188 28.2989 64.6856 29.6018C66.0942 32.3532 65.3783 35.5453 63.0892 36.7177C62.5146 37.0129 61.891 37.1592 61.2491 37.1592ZM59.819 27.9655C59.4348 27.9655 59.0681 28.0503 58.7355 28.2207C57.2621 28.9757 56.8697 31.1642 57.86 33.0982C58.3555 34.0652 59.1147 34.8153 59.9977 35.211C60.8184 35.5786 61.6466 35.586 62.33 35.2385C63.8034 34.4835 64.1959 32.295 63.2056 30.3601C62.71 29.3931 61.9509 28.6431 61.0678 28.2473C60.6463 28.0594 60.2239 27.9655 59.819 27.9655Z" fill="url(#paint4_linear_680_6037)"/>
<path d="M74.641 51.3508C73.9966 49.2414 71.8704 47.9409 69.7044 48.3275C69.3693 48.3874 69.016 48.4656 68.6734 48.5329C68.7017 48.3799 68.7208 48.2236 68.7208 48.0623V40.4509C68.8738 39.9611 68.976 39.4489 69.006 38.9143L69.3211 33.2094C69.5373 29.3073 68.1063 25.4542 65.3948 22.6379L62.5886 19.7252L59.2027 11.2632C58.5799 9.71078 57.1764 8.62652 55.5375 8.43278C46.6523 7.38178 37.6406 7.38178 28.7545 8.43278C27.1156 8.62652 25.7113 9.71161 25.0893 11.264L21.7027 19.7252L18.8972 22.6379C16.1857 25.4533 14.7547 29.3064 14.9701 33.2094L15.2852 38.9151C15.3102 39.3733 15.7076 39.725 16.1616 39.6984C16.6198 39.6734 16.9715 39.281 16.9457 38.822L16.6306 33.1171C16.4402 29.674 17.7032 26.2748 20.0946 23.7912L22.7836 20.9991C35.6334 20.328 48.6578 20.328 61.5076 20.9991L64.1966 23.7912C66.5888 26.2748 67.851 29.674 67.6615 33.1171L67.3463 38.822C67.21 41.2824 65.1728 43.2097 62.7091 43.2097H51.736C51.2762 43.2097 50.9045 43.5814 50.9045 44.0412C50.9045 44.501 51.2762 44.8727 51.736 44.8727H55.9757V48.0615C55.9757 49.4733 57.124 50.6216 58.5359 50.6216H59.9161C59.5719 50.7123 59.236 50.7987 58.8876 50.8902C56.8787 51.4182 54.8141 51.9587 52.767 52.4509C52.0295 49.0751 49.0827 46.549 45.5505 46.4301L43.9591 46.3769C41.5012 46.3769 38.8321 45.4306 36.252 44.516C33.6877 43.6064 31.0361 42.666 28.5757 42.666C24.8947 42.666 20.4571 43.2563 15.4499 47.6316C15.0374 47.9916 14.5569 48.1945 14.0164 48.1854L12.9097 48.1346V45.2785C12.9097 44.8187 12.5372 44.447 12.0782 44.447H0.831487C0.372506 44.447 0 44.8187 0 45.2785V67.6871C0 68.1469 0.372506 68.5186 0.831487 68.5186H12.079C12.538 68.5186 12.9105 68.1469 12.9105 67.6871V64.411H16.9133C18.2545 64.411 19.5973 64.559 20.9028 64.8492L32.877 67.5199C33.9496 67.7594 35.0472 67.8808 36.1456 67.8808C36.2179 67.8808 36.2911 67.88 36.3643 67.8791L42.9912 67.7827C44.9677 67.7544 46.8892 67.3437 48.7002 66.5646L72.1872 56.6449C74.241 55.7627 75.2945 53.4861 74.641 51.3508ZM23.6666 19.2945L26.6334 11.8818C27.0283 10.8948 27.9155 10.2063 28.9499 10.0841C37.7063 9.04891 46.5866 9.04891 55.343 10.0841C56.3765 10.2055 57.2645 10.8948 57.6587 11.8818L60.6254 19.2945C48.3552 18.6859 35.9369 18.6859 23.6666 19.2945ZM57.6379 48.0615V44.8727H62.7091C64.3904 44.8727 65.9237 44.2117 67.0578 43.1308V48.0615C67.0578 48.5562 66.6554 48.9586 66.1606 48.9586H58.5351C58.0411 48.9595 57.6379 48.5562 57.6379 48.0615ZM11.2484 66.8556H1.66297V46.11H11.2475L11.2484 66.8556ZM71.537 55.115L48.0492 65.0346C46.4352 65.7289 44.7249 66.0939 42.9679 66.1197L36.341 66.2162C35.2991 66.2278 34.2565 66.1239 33.2404 65.8977L21.2661 63.227C19.8418 62.9085 18.3775 62.748 16.9149 62.748H12.9122V49.7993L13.9748 49.8475H13.9998C14.9302 49.8475 15.834 49.5058 16.5458 48.8838C21.1381 44.8702 25.2049 44.3289 28.5774 44.3289C30.7517 44.3289 33.1539 45.1804 35.6974 46.0825C38.4106 47.0446 41.2143 48.0399 43.93 48.039H43.9316L45.4948 48.0914C48.2687 48.1854 50.5819 50.1743 51.1498 52.8284C44.1096 54.4232 37.5192 55.1998 34.4768 52.4093C34.1384 52.0992 33.612 52.1216 33.3019 52.4609C32.9909 52.7993 33.0142 53.3248 33.3526 53.6358C38.1744 58.0593 48.9206 55.2322 59.3117 52.4991C63.139 51.4922 66.7551 50.5418 69.9963 49.9639C71.3416 49.7253 72.6529 50.5293 73.0528 51.8364C73.4561 53.1602 72.8025 54.5704 71.537 55.115Z" fill="url(#paint5_linear_680_6037)"/>
<path d="M12.0792 23.5652C11.9886 23.5652 11.8963 23.5502 11.8057 23.5186C6.94977 21.829 3.68701 17.2376 3.68701 12.094C3.68701 5.42546 9.11247 0 15.781 0C19.0113 0 22.0487 1.25804 24.3328 3.54214C24.658 3.86725 24.658 4.39275 24.3328 4.71786C24.0077 5.04297 23.4822 5.04297 23.1571 4.71786C21.1865 2.74723 18.5673 1.66297 15.781 1.66297C10.0296 1.66297 5.34999 6.34176 5.34999 12.094C5.34999 16.5308 8.16374 20.4912 12.3519 21.9479C12.7851 22.0984 13.0146 22.5724 12.8641 23.0064C12.7444 23.3498 12.4226 23.5652 12.0792 23.5652Z" fill="url(#paint6_linear_680_6037)"/>
<defs>
<linearGradient id="paint0_linear_680_6037" x1="15.7802" y1="4.05273" x2="15.7802" y2="20.1354" gradientUnits="userSpaceOnUse">
<stop stop-color="white"/>
<stop offset="1" stop-color="#999999"/>
</linearGradient>
<linearGradient id="paint1_linear_680_6037" x1="42.1458" y1="36.1562" x2="42.1458" y2="37.8192" gradientUnits="userSpaceOnUse">
<stop stop-color="white"/>
<stop offset="1" stop-color="#999999"/>
</linearGradient>
<linearGradient id="paint2_linear_680_6037" x1="42.1456" y1="31.707" x2="42.1456" y2="33.37" gradientUnits="userSpaceOnUse">
<stop stop-color="white"/>
<stop offset="1" stop-color="#999999"/>
</linearGradient>
<linearGradient id="paint3_linear_680_6037" x1="23.755" y1="26.3008" x2="23.755" y2="37.1534" gradientUnits="userSpaceOnUse">
<stop stop-color="white"/>
<stop offset="1" stop-color="#999999"/>
</linearGradient>
<linearGradient id="paint4_linear_680_6037" x1="60.5336" y1="26.2988" x2="60.5336" y2="37.1592" gradientUnits="userSpaceOnUse">
<stop stop-color="white"/>
<stop offset="1" stop-color="#999999"/>
</linearGradient>
<linearGradient id="paint5_linear_680_6037" x1="37.417" y1="7.64453" x2="37.417" y2="68.5186" gradientUnits="userSpaceOnUse">
<stop stop-color="white"/>
<stop offset="1" stop-color="#999999"/>
</linearGradient>
<linearGradient id="paint6_linear_680_6037" x1="14.1318" y1="0" x2="14.1318" y2="23.5652" gradientUnits="userSpaceOnUse">
<stop stop-color="white"/>
<stop offset="1" stop-color="#999999"/>
</linearGradient>
</defs>
</svg>
