<svg width="75" height="75" viewBox="0 0 75 75" fill="none" xmlns="http://www.w3.org/2000/svg">
<g clip-path="url(#clip0_680_6016)">
<path d="M73.9216 67.0899H71.3007V24.3299H73.4412C73.9964 24.3299 74.4466 23.8799 74.4466 23.3248V12.2511C74.4466 11.6959 73.9966 11.2459 73.4412 11.2459H70.3443V8.76743C70.3443 6.29229 68.3306 4.27856 65.8554 4.27856H58.8779C57.63 2.22119 55.4739 0.746094 52.4581 0.746094H23.8848C20.8689 0.746094 18.7128 2.22119 17.465 4.27856H10.4875C8.01238 4.27856 5.99866 6.29229 5.99866 8.76743V11.2459H2.89759C2.34241 11.2459 1.89227 11.6959 1.89227 12.2511V23.3248C1.89227 23.8799 2.34227 24.3299 2.89759 24.3299H3.49085L0.134308 33.5161C0.0216613 33.8243 0.066632 34.1683 0.254571 34.4371C0.442657 34.706 0.750128 34.8663 1.0784 34.8663H5.04227V67.09H2.42151C1.86634 67.09 1.41619 67.54 1.41619 68.0952V73.2474C1.41619 73.8026 1.86619 74.2525 2.42151 74.2525H73.9216C74.4767 74.2525 74.9269 73.8026 74.9269 73.2474V68.0952C74.9267 67.54 74.4767 67.0899 73.9216 67.0899ZM69.2902 67.0899H49.0803V34.8663H53.0442C53.3724 34.8663 53.6799 34.706 53.868 34.4371C54.0561 34.1681 54.1011 33.8243 53.9883 33.5161L50.6316 24.3299H69.2902V67.0899ZM65.8554 6.28892C67.222 6.28892 68.3338 7.40073 68.3338 8.76743V11.2459H59.867C60.0534 10.5005 60.1478 9.72866 60.1478 8.95874C60.1478 8.0561 60.018 7.15127 59.7622 6.28906L65.8554 6.28892ZM23.8848 2.75645H52.4581C56.3601 2.75645 58.1371 5.97148 58.1371 8.95859C58.1371 10.59 57.6118 12.1631 56.6957 13.2743C55.6783 14.5084 54.2128 15.1609 52.4581 15.1609H23.8848C19.9828 15.1609 18.2056 11.9459 18.2056 8.95874C18.2056 5.97148 19.9829 2.75645 23.8848 2.75645ZM8.00916 8.76743C8.00916 7.40073 9.12098 6.28892 10.4875 6.28892H16.5808C16.3249 7.15112 16.1953 8.0561 16.1953 8.95859C16.1953 9.72866 16.2896 10.5003 16.4761 11.2458H8.00931L8.00916 8.76743ZM3.90291 13.2563H17.2479C18.4541 15.5108 20.6853 17.1712 23.8848 17.1712H52.4581C55.6577 17.1712 57.8888 15.5108 59.095 13.2563H72.4359V22.3196H3.90291V13.2563ZM5.63128 24.3299H48.4913L51.6067 32.8559H2.516L5.63128 24.3299ZM7.05276 34.8663H47.0698V67.09H42.491C42.5426 66.8838 42.5729 66.6691 42.5729 66.447V64.8359L43.2663 54.8406C43.2819 54.6172 43.2212 54.3975 43.0986 54.2136L43.0996 54.2129L42.2481 52.9373C42.7512 52.8821 43.1427 52.4563 43.1427 51.9386C43.1427 51.3834 42.6927 50.9334 42.1374 50.9334H40.9104L37.8874 46.4047C37.2266 45.4109 36.1665 44.8411 34.9788 44.8411H19.1437C17.9559 44.8411 16.8956 45.4111 16.2362 46.4032L13.2121 50.9334H11.9852C11.43 50.9334 10.9799 51.3834 10.9799 51.9386C10.9799 52.4563 11.3714 52.8822 11.8744 52.9373L11.0229 54.2129L11.024 54.2136C10.9014 54.3973 10.8407 54.6172 10.8562 54.8406L11.5495 64.8359V66.447C11.5495 66.6691 11.5799 66.8837 11.6314 67.09H7.05276V34.8663ZM14.4877 52.6436C14.5768 52.5532 14.649 52.4462 14.6988 52.3274L17.9093 47.5178C18.1991 47.0819 18.6259 46.8515 19.1437 46.8515H34.9788C35.4965 46.8515 35.9234 47.082 36.2143 47.5194L39.4233 52.3268C39.4733 52.446 39.5458 52.5535 39.6353 52.6442L40.384 53.7658H13.7386L14.4877 52.6436ZM13.4928 63.7975L12.9363 55.7762H41.1861L40.6296 63.7975H13.4928ZM13.5602 66.447V65.808H17.7477V66.447C17.7477 66.7955 17.4551 67.09 17.1088 67.09H14.199C13.8527 67.0899 13.5602 66.7955 13.5602 66.447ZM19.7582 66.447V65.808H34.3642V66.447C34.3642 66.6691 34.3945 66.8837 34.4461 67.09H19.6763C19.7279 66.8837 19.7582 66.6691 19.7582 66.447ZM36.3747 66.447V65.808H40.5622V66.447C40.5622 66.7955 40.2696 67.09 39.9233 67.09H37.0137C36.6674 67.0899 36.3747 66.7955 36.3747 66.447ZM72.9162 72.2422H3.42669V69.1004H14.199H17.1088H37.0137H39.9234H72.9162V72.2422ZM33.2084 56.8953H20.914C20.5775 56.8953 20.2635 57.0636 20.077 57.3437C19.8907 57.6238 19.8568 57.9787 19.987 58.289L21.566 62.0574C21.7226 62.4311 22.0881 62.6741 22.4931 62.6741H31.6295C32.0345 62.6741 32.4 62.431 32.5566 62.0574L34.1355 58.2888C34.2655 57.9786 34.2318 57.6238 34.0453 57.3437C33.859 57.0636 33.5449 56.8953 33.2084 56.8953ZM30.9608 60.6639H23.1619L22.4251 58.9058H31.6976L30.9608 60.6639ZM18.7601 58.9392C18.6534 59.4047 18.2393 59.7198 17.7811 59.7198C17.7069 59.7198 17.6313 59.7116 17.5555 59.6942L14.6458 59.0268C14.1047 58.9027 13.7667 58.3634 13.8908 57.8223C14.0147 57.2813 14.5529 56.9428 15.0953 57.0673L18.0051 57.7347C18.5462 57.8589 18.8843 58.3981 18.7601 58.9392ZM40.2318 57.8223C40.3558 58.3634 40.0178 58.9027 39.4768 59.0268L36.567 59.6942C36.4914 59.7116 36.4157 59.7198 36.3414 59.7198C35.8832 59.7198 35.4693 59.4046 35.3625 58.9392C35.2384 58.3981 35.5765 57.8587 36.1175 57.7347L39.0272 57.0673C39.5685 56.9429 40.1077 57.2813 40.2318 57.8223ZM52.922 41.9026C54.3401 41.9026 55.4941 43.0565 55.4941 44.4748V46.9451C55.4941 48.3633 54.3403 49.5172 52.922 49.5172C52.3668 49.5172 51.9167 49.0672 51.9167 48.512C51.9167 47.9568 52.3667 47.5068 52.922 47.5068C53.2317 47.5068 53.4835 47.2549 53.4835 46.9452V44.4749C53.4835 44.1652 53.2317 43.9133 52.922 43.9133C52.3668 43.9133 51.9167 43.4633 51.9167 42.9081C51.9167 42.3529 52.3668 41.9026 52.922 41.9026Z" fill="url(#paint0_linear_680_6016)"/>
</g>
<defs>
<linearGradient id="paint0_linear_680_6016" x1="37.5001" y1="0.746094" x2="37.5001" y2="74.2525" gradientUnits="userSpaceOnUse">
<stop stop-color="white"/>
<stop offset="1" stop-color="#999999"/>
</linearGradient>
<clipPath id="clip0_680_6016">
<rect width="75" height="75" fill="white"/>
</clipPath>
</defs>
</svg>
