<svg width="66" height="70" viewBox="0 0 66 70" fill="none" xmlns="http://www.w3.org/2000/svg">
<path d="M64.8904 53.8378L53.8863 30.3418C53.6462 29.829 53.0356 29.6082 52.5226 29.8481C52.0098 30.0884 51.7887 30.699 52.0289 31.2118L63.0329 54.7072C63.5251 55.7598 63.0696 57.0172 62.0174 57.5102L40.9194 67.3907C39.8673 67.8835 38.6102 67.4284 38.117 66.3762L34.1725 57.9514L44.4392 33.1805C44.8829 32.1099 44.858 30.893 44.3713 29.8414L38.7555 17.7107L46.0349 20.0136C46.595 20.1906 47.0588 20.5969 47.3076 21.1295L50.004 26.8846C50.1783 27.2568 50.5477 27.4752 50.9332 27.4752C51.0788 27.4752 51.2269 27.4439 51.3676 27.3782C51.8804 27.138 52.1014 26.5272 51.861 26.0144L49.1651 20.2603C48.6745 19.21 47.7586 18.4073 46.6528 18.0581L37.8741 15.2808C39.684 12.6369 41.5905 9.1015 42.2465 7.5187C43.9667 3.36844 42.5783 1.06034 40.7055 0.284048C38.8326 -0.491972 36.2187 0.157309 34.4985 4.30757C33.7587 6.09258 33.0799 9.98006 32.5971 13.3151C32.0226 13.3507 31.4451 13.4711 30.8826 13.6861L17.6007 18.7609C16.5382 19.1669 15.6789 20.0026 15.2433 21.0533L1.03745 55.3295C0.612116 56.3557 0.611843 57.486 1.03677 58.5124C1.46155 59.5387 2.26068 60.3381 3.28676 60.7633L7.44167 62.4853C7.96489 62.7021 8.56496 62.4538 8.78166 61.9306C8.99849 61.4074 8.75021 60.8075 8.22698 60.5906L4.07208 58.8685C3.55213 58.653 3.14703 58.2479 2.9317 57.7277C2.71637 57.2075 2.7165 56.6348 2.93211 56.1147L17.1384 21.838C17.3592 21.3055 17.7946 20.8819 18.3332 20.6762L31.615 15.6014C31.8432 15.5142 32.0752 15.451 32.3084 15.4099C32.1816 16.3731 32.0788 17.2154 32.0044 17.8468C31.5695 17.8717 31.1387 17.979 30.7323 18.1693C29.8942 18.5617 29.2591 19.257 28.9441 20.1271C28.629 20.9973 28.6716 21.938 29.064 22.7761C29.6523 24.0325 30.9033 24.7711 32.2069 24.7711C32.6981 24.7711 33.1972 24.6661 33.6708 24.4443C34.5089 24.0519 35.1439 23.3564 35.4591 22.4865C35.7741 21.6163 35.7315 20.6756 35.3392 19.8375C35.0468 19.2136 34.5864 18.7025 34.0111 18.3518C34.0873 17.6988 34.2037 16.7359 34.3514 15.615C35.2389 15.9609 35.9977 16.635 36.4243 17.5566L42.51 30.7026C42.7567 31.2354 42.7692 31.8525 42.5443 32.395L28.3476 66.6485C28.1321 67.1685 27.727 67.5736 27.2068 67.7889C26.6867 68.0044 26.1139 68.0041 25.5938 67.7886L12.9063 62.5303C12.3834 62.3132 11.7832 62.5617 11.5664 63.0849C11.3497 63.6082 11.5978 64.2081 12.121 64.4249L24.8085 69.6833C25.3273 69.8984 25.8656 70.0001 26.3952 70.0001C28.0275 70.0001 29.5794 69.0331 30.2421 67.4337L33.109 60.5169L36.2595 67.246C36.966 68.7537 38.4676 69.6402 40.0318 69.6402C40.6216 69.6402 41.2207 69.5142 41.7892 69.2477L62.8872 59.3674C64.963 58.3948 65.8617 55.9146 64.8904 53.8378ZM33.5306 21.7881C33.4021 22.143 33.143 22.4267 32.801 22.587C32.0952 22.9176 31.2519 22.6121 30.9213 21.9064C30.7612 21.5646 30.7439 21.1807 30.8724 20.8256C31.0009 20.4707 31.26 20.187 31.6019 20.0268C31.7925 19.9375 31.9961 19.8926 32.2005 19.8926C32.3628 19.8926 32.5255 19.9209 32.6826 19.9778C33.0375 20.1063 33.3212 20.3654 33.4814 20.7073C33.6418 21.0494 33.6593 21.4331 33.5306 21.7881ZM36.1145 14.2211C35.6548 13.9298 35.1569 13.7035 34.6364 13.5483C35.0988 10.3481 35.733 6.6869 36.3937 5.09261C36.8589 3.96973 38.1341 1.43851 39.9206 2.17857C41.707 2.91904 40.8176 5.61051 40.3521 6.73325C39.7216 8.25466 37.8623 11.6929 36.1145 14.2211Z" fill="white"/>
</svg>
