<svg width="72" height="74" viewBox="0 0 72 74" fill="none" xmlns="http://www.w3.org/2000/svg">
<path d="M19.5408 48.7944L13.2971 47.4069C11.5627 47.06 10.0596 48.3319 10.0596 50.0662V52.7256C10.0596 54.8069 11.6783 55.1537 13.6439 55.2694H20.8127C22.0846 55.2694 23.1252 54.8069 23.1252 53.535V53.1881C23.0096 50.9912 21.6221 49.2569 19.5408 48.7944ZM12.2564 52.8412C12.2564 50.8756 12.2564 49.835 12.2564 49.9506C12.2564 49.6037 12.4877 49.3725 12.8346 49.4881L19.1939 50.8756C20.1189 51.1069 20.8127 51.9162 20.9283 52.8412C20.6971 52.9569 12.3721 52.9569 12.2564 52.8412Z" fill="url(#paint0_linear_680_6018)"/>
<path d="M57.9279 47.407L51.5685 48.7945C49.4873 49.257 48.0998 50.9914 48.0998 53.0727C48.0998 53.1883 47.8685 54.6914 49.4873 55.0383C50.2967 55.2695 55.4998 55.1539 57.6967 55.1539C59.6623 55.1539 61.1654 54.6914 61.1654 52.6102V49.9508C61.281 48.332 59.6623 47.0602 57.9279 47.407ZM58.9685 52.8414C58.6217 52.957 50.5279 52.957 50.4123 52.957C50.5279 52.032 51.1061 51.2227 52.0311 50.9914L58.3904 49.6039C58.7373 49.4883 58.9685 49.7195 58.9685 50.0664V52.8414Z" fill="url(#paint1_linear_680_6018)"/>
<path d="M43.3595 54.1133H27.8657C27.2876 54.1133 26.7095 54.5758 26.7095 55.2695C26.7095 55.9633 27.172 56.4258 27.8657 56.4258H43.3595C43.9376 56.4258 44.5157 55.9633 44.5157 55.2695C44.5157 54.5758 44.0532 54.1133 43.3595 54.1133Z" fill="url(#paint2_linear_680_6018)"/>
<path d="M43.3595 58.8535H27.8657C27.2876 58.8535 26.7095 59.316 26.7095 60.0098C26.7095 60.7035 27.172 61.166 27.8657 61.166H43.3595C43.9376 61.166 44.5157 60.7035 44.5157 60.0098C44.5157 59.316 44.0532 58.8535 43.3595 58.8535Z" fill="url(#paint3_linear_680_6018)"/>
<path d="M67.9875 34.9188H65.9062C63.9406 34.9188 62.0906 35.8438 61.05 37.5781L58.9687 33.4156C64.9812 30.6406 69.1437 24.6281 69.1437 17.575C69.0281 7.8625 61.1656 0 51.5687 0C41.9719 0 34.1094 7.8625 34.1094 17.4594C34.1094 19.5406 34.4562 21.5063 35.15 23.3563H21.1594C18.5 23.3563 16.0719 24.975 15.1469 27.4031L10.2906 37.4625C9.25 35.8438 7.4 34.8031 5.43437 34.8031H3.2375C1.50312 34.8031 0 36.3063 0 38.0406V39.4281C0 41.1625 1.3875 42.6656 3.2375 42.6656H6.59062C5.20312 44.4 4.50937 46.5969 4.50937 48.9094V56.3094C4.50937 59.0844 5.55 61.8594 7.51562 64.1719V69.7219C7.51562 72.15 9.48125 74 11.7937 74H16.4187C18.8469 74 20.6969 72.0344 20.6969 69.7219V67.525H50.4125V69.7219C50.4125 72.15 52.3781 74 54.6906 74H59.3156C61.7437 74 63.5937 72.0344 63.5937 69.7219V64.1719C65.5594 61.975 66.6 59.3156 66.6 56.425V49.025C66.6 47.6375 66.2531 46.1344 65.675 44.8625C65.3281 44.1688 64.9812 43.475 64.4031 42.7812H67.9875C69.7219 42.7812 71.225 41.3937 71.225 39.5438V38.1562C71.1094 36.3063 69.7219 34.9188 67.9875 34.9188ZM51.5687 2.3125C60.0094 2.3125 66.8312 9.13438 66.8312 17.4594C66.8312 25.7844 60.0094 32.6063 51.6844 32.6063C43.3594 32.6063 36.5375 25.7844 36.5375 17.4594C36.5375 9.13438 43.2437 2.3125 51.5687 2.3125ZM17.2281 28.3281C17.8062 26.7094 19.425 25.6688 21.1594 25.6688H36.1906C39.0812 31.2188 44.8625 34.9188 51.5687 34.9188C53.4187 34.9188 55.1531 34.6875 56.7719 34.1094C56.8875 34.225 59.6625 40.1219 60.125 40.9313H10.9844C11.4469 40.2375 10.7531 41.8563 17.2281 28.3281ZM2.3125 39.4281V38.0406C2.3125 37.4625 2.775 37 3.2375 37H5.31875C7.8625 37 8.7875 39.3125 9.01875 39.6594C8.90312 39.8906 8.67188 40.1219 8.55625 40.3531H3.2375C2.775 40.3531 2.3125 40.0062 2.3125 39.4281ZM18.5 69.6063C18.5 70.7625 17.575 71.6875 16.4187 71.6875H11.7937C10.6375 71.6875 9.7125 70.7625 9.7125 69.6063V65.9062C11.2156 66.8313 12.95 67.2938 14.6844 67.2938H18.5V69.6063ZM59.4312 71.6875H54.8062C53.65 71.6875 52.725 70.7625 52.725 69.6063V67.4094H56.5406C58.275 67.4094 60.0094 66.9469 61.5125 66.0219V69.7219C61.5125 70.7625 60.5875 71.6875 59.4312 71.6875ZM64.5187 56.1937C64.5187 60.8187 61.1656 65.0969 56.5406 65.0969C42.3187 65.0969 30.4094 65.0969 14.6844 65.0969C10.0594 65.0969 6.70625 60.7031 6.70625 56.1937V48.7938C6.70625 46.7125 7.51562 44.6312 9.13437 43.1281H62.2062C62.9 43.8219 63.4781 44.6313 63.9406 45.5563C64.4031 46.5969 64.6344 47.7531 64.6344 48.7938V56.1937H64.5187ZM68.9125 39.4281C68.9125 40.0062 68.45 40.3531 67.9875 40.3531H62.6687C62.4375 40.1219 62.3219 39.8906 62.2062 39.6594C62.5531 39.3125 63.3625 37 65.9062 37H67.9875C68.5656 37 68.9125 37.4625 68.9125 37.925V39.4281Z" fill="url(#paint4_linear_680_6018)"/>
<path d="M48.1001 22.0844C48.1001 21.5063 47.6376 20.9281 46.9438 20.9281C46.2501 20.9281 45.7876 21.3906 45.7876 22.0844C45.7876 24.8594 47.7532 27.1719 50.4126 27.6344V29.1375C50.4126 29.7156 50.8751 30.2938 51.5688 30.2938C52.2626 30.2938 52.7251 29.8313 52.7251 29.1375V27.6344C55.3845 27.0562 57.3501 24.8594 57.3501 22.0844C57.3501 19.3094 55.3845 16.9969 52.7251 16.5344V9.59688C54.1126 10.0594 55.0376 11.3313 55.0376 12.8344C55.0376 13.4125 55.5001 13.9906 56.1938 13.9906C56.8876 13.9906 57.3501 13.5281 57.3501 12.8344C57.3501 10.0594 55.3845 7.74688 52.7251 7.28438V5.78125C52.7251 5.20312 52.2626 4.625 51.5688 4.625C50.8751 4.625 50.4126 5.0875 50.4126 5.78125V7.28438C47.7532 7.8625 45.7876 10.0594 45.7876 12.8344C45.7876 15.6094 47.7532 17.9219 50.4126 18.3844V25.2062C49.1407 24.8594 48.1001 23.5875 48.1001 22.0844ZM55.0376 22.0844C55.0376 23.5875 53.997 24.8594 52.7251 25.3219V18.8469C54.1126 19.1937 55.0376 20.5813 55.0376 22.0844ZM48.1001 12.8344C48.1001 11.3313 49.1407 10.0594 50.4126 9.59688V16.1875C49.1407 15.6094 48.1001 14.3375 48.1001 12.8344Z" fill="url(#paint5_linear_680_6018)"/>
<defs>
<linearGradient id="paint0_linear_680_6018" x1="16.5924" y1="47.3496" x2="16.5924" y2="55.2694" gradientUnits="userSpaceOnUse">
<stop stop-color="white"/>
<stop offset="1" stop-color="#999999"/>
</linearGradient>
<linearGradient id="paint1_linear_680_6018" x1="54.6298" y1="47.3496" x2="54.6298" y2="55.1828" gradientUnits="userSpaceOnUse">
<stop stop-color="white"/>
<stop offset="1" stop-color="#999999"/>
</linearGradient>
<linearGradient id="paint2_linear_680_6018" x1="35.6126" y1="54.1133" x2="35.6126" y2="56.4258" gradientUnits="userSpaceOnUse">
<stop stop-color="white"/>
<stop offset="1" stop-color="#999999"/>
</linearGradient>
<linearGradient id="paint3_linear_680_6018" x1="35.6126" y1="58.8535" x2="35.6126" y2="61.166" gradientUnits="userSpaceOnUse">
<stop stop-color="white"/>
<stop offset="1" stop-color="#999999"/>
</linearGradient>
<linearGradient id="paint4_linear_680_6018" x1="35.6125" y1="0" x2="35.6125" y2="74" gradientUnits="userSpaceOnUse">
<stop stop-color="white"/>
<stop offset="1" stop-color="#999999"/>
</linearGradient>
<linearGradient id="paint5_linear_680_6018" x1="51.5688" y1="4.625" x2="51.5688" y2="30.2938" gradientUnits="userSpaceOnUse">
<stop stop-color="white"/>
<stop offset="1" stop-color="#999999"/>
</linearGradient>
</defs>
</svg>
