<svg width="69" height="78" viewBox="0 0 69 78" fill="none" xmlns="http://www.w3.org/2000/svg">
<path d="M68.75 17.9742C68.7716 14.0896 67.5271 10.3038 65.205 7.18971C62.8829 4.07559 59.6095 1.80268 55.8803 0.715002C52.1511 -0.37268 48.1691 -0.215934 44.5369 1.16152C40.9047 2.53897 37.8202 5.06215 35.75 8.34916C35.2688 8.34916 34.8013 8.34916 34.375 8.34916C27.5763 8.34916 20.9302 10.3652 15.2773 14.1424C9.62435 17.9196 5.21842 23.2882 2.61666 29.5694C0.0148936 35.8506 -0.665845 42.7623 0.660522 49.4304C1.98689 56.0985 5.26079 62.2235 10.0682 67.031C14.8757 71.8384 21.0007 75.1123 27.6688 76.4386C34.3369 77.765 41.2485 77.0843 47.5298 74.4825C53.811 71.8808 59.1796 67.4748 62.9568 61.8219C66.734 56.1689 68.75 49.5229 68.75 42.7242C68.7582 37.7049 67.6547 32.7462 65.5188 28.2042C67.6179 25.2054 68.7458 21.6346 68.75 17.9742ZM50.875 2.84916C53.8665 2.84916 56.7907 3.73622 59.278 5.39818C61.7653 7.06014 63.7039 9.42234 64.8487 12.1861C65.9935 14.9498 66.293 17.9909 65.7094 20.9249C65.1258 23.8589 63.6853 26.5539 61.57 28.6691C59.4547 30.7844 56.7597 32.2249 53.8258 32.8085C50.8918 33.3921 47.8507 33.0926 45.0869 31.9478C42.3232 30.8031 39.961 28.8645 38.299 26.3772C36.6371 23.8899 35.75 20.9656 35.75 17.9742C35.75 13.9628 37.3435 10.1157 40.18 7.27917C43.0165 4.44268 46.8636 2.84916 50.875 2.84916ZM57.75 42.7242C57.75 43.1917 57.75 43.6454 57.75 44.0992H53.9138C52.7816 44.0986 51.667 43.8184 50.6692 43.2835C49.6713 42.7486 48.821 41.9755 48.1938 41.0329L47.5888 40.1392C46.7108 38.8208 45.5211 37.7396 44.1252 36.9912C42.7292 36.2429 41.1702 35.8506 39.5863 35.8492H27.7888C26.2061 35.8491 24.6479 36.2393 23.252 36.9851C21.8562 37.731 20.6658 38.8096 19.7863 40.1254L19.1813 41.0467C18.5525 41.9867 17.7015 42.7571 16.7037 43.2895C15.7059 43.822 14.5922 44.1001 13.4613 44.0992H11.0688C11.0688 43.6454 11 43.1917 11 42.7242C11.0082 36.7564 13.2987 31.0178 17.4019 26.6845C21.5051 22.3512 27.1103 19.7514 33.0688 19.4179C33.2888 22.1035 34.1131 24.7046 35.4801 27.0266C36.8471 29.3487 38.7213 31.3317 40.9627 32.8273C43.2041 34.3229 45.7547 35.2924 48.4236 35.6633C51.0925 36.0342 53.8107 35.7969 56.375 34.9692C57.2747 37.4562 57.7398 40.0794 57.75 42.7242ZM55.6463 52.3492H49.5C46.218 52.3492 43.0703 53.6529 40.7496 55.9737C38.4288 58.2945 37.125 61.4421 37.125 64.7242V65.9204C35.2994 66.1587 33.4506 66.1587 31.625 65.9204V64.7242C31.625 61.4421 30.3212 58.2945 28.0005 55.9737C25.6797 53.6529 22.5321 52.3492 19.25 52.3492H13.1038C12.2991 50.5964 11.7215 48.7482 11.385 46.8492H13.4613C15.0439 46.8492 16.6022 46.4591 17.998 45.7132C19.3939 44.9673 20.5843 43.8887 21.4638 42.5729L22.0688 41.6517C22.6976 40.7116 23.5486 39.9412 24.5463 39.4088C25.5441 38.8763 26.6578 38.5982 27.7888 38.5992H39.5863C40.7301 38.5883 41.8585 38.8631 42.8693 39.3985C43.8801 39.9339 44.7414 40.7131 45.375 41.6654L45.98 42.5592C46.8515 43.8679 48.0302 44.9431 49.4133 45.691C50.7963 46.4388 52.3415 46.8365 53.9138 46.8492H57.365C57.0285 48.7482 56.4509 50.5964 55.6463 52.3492ZM54.175 55.0992C50.9322 60.2695 45.8029 63.9734 39.875 65.4254V64.7242C39.875 62.1714 40.8891 59.7233 42.6941 57.9183C44.4991 56.1132 46.9473 55.0992 49.5 55.0992H54.175ZM14.575 55.0992H19.25C21.8027 55.0992 24.2509 56.1132 26.0559 57.9183C27.861 59.7233 28.875 62.1714 28.875 64.7242V65.4254C22.9471 63.9734 17.8178 60.2695 14.575 55.0992ZM66 42.7242C66 48.979 64.1452 55.0934 60.6702 60.2941C57.1952 65.4948 52.2561 69.5482 46.4774 71.9418C40.6987 74.3355 34.3399 74.9617 28.2053 73.7415C22.0706 72.5212 16.4356 69.5092 12.0128 65.0864C7.58993 60.6636 4.57794 55.0285 3.35768 48.8939C2.13742 42.7592 2.7637 36.4005 5.15732 30.6218C7.55095 24.8431 11.6044 19.9039 16.8051 16.4289C22.0058 12.9539 28.1202 11.0992 34.375 11.0992C33.6435 12.8733 33.2024 14.7536 33.0688 16.6679C28.7535 16.8708 24.5565 18.144 20.8559 20.3729C17.1552 22.6017 14.0671 25.7161 11.8698 29.4356C9.67249 33.155 8.43498 37.3627 8.26874 41.6795C8.1025 45.9963 9.01276 50.2867 10.9175 54.1642L11.0413 54.3979C12.8964 58.1018 15.6057 61.3114 18.9455 63.7619C22.2854 66.2124 26.1602 67.8336 30.25 68.4917C32.9794 68.9683 35.7707 68.9683 38.5 68.4917C42.5972 67.8397 46.4803 66.2214 49.8278 63.7705C53.1753 61.3197 55.8909 58.1068 57.75 54.3979L57.8738 54.1642C59.4193 51.0387 60.3138 47.6318 60.5029 44.1502C60.692 40.6686 60.1718 37.1849 58.9738 33.9104C60.6838 33.0405 62.2473 31.9085 63.6075 30.5554C65.207 34.412 66.0204 38.5491 66 42.7242ZM43.0238 20.3254C42.8956 20.1972 42.7939 20.045 42.7245 19.8775C42.6551 19.71 42.6194 19.5305 42.6194 19.3492C42.6194 19.1679 42.6551 18.9883 42.7245 18.8208C42.7939 18.6533 42.8956 18.5011 43.0238 18.3729C43.152 18.2447 43.3042 18.143 43.4717 18.0736C43.6392 18.0042 43.8187 17.9685 44 17.9685C44.1813 17.9685 44.3609 18.0042 44.5284 18.0736C44.6959 18.143 44.8481 18.2447 44.9763 18.3729L48.125 21.5354L56.7738 12.8729C57.0327 12.614 57.3839 12.4685 57.75 12.4685C58.1162 12.4685 58.4673 12.614 58.7263 12.8729C58.9852 13.1318 59.1306 13.483 59.1306 13.8492C59.1306 14.2153 58.9852 14.5665 58.7263 14.8254L49.1013 24.4504C48.9734 24.5793 48.8214 24.6816 48.6538 24.7514C48.4862 24.8212 48.3065 24.8571 48.125 24.8571C47.9435 24.8571 47.7638 24.8212 47.5962 24.7514C47.4287 24.6816 47.2766 24.5793 47.1488 24.4504L43.0238 20.3254ZM34.375 41.3492C33.0153 41.3492 31.6861 41.7524 30.5555 42.5078C29.4249 43.2632 28.5437 44.337 28.0233 45.5932C27.503 46.8494 27.3668 48.2318 27.6321 49.5654C27.8974 50.899 28.5522 52.124 29.5137 53.0855C30.4751 54.047 31.7001 54.7018 33.0338 54.9671C34.3674 55.2323 35.7497 55.0962 37.006 54.5758C38.2622 54.0555 39.3359 53.1743 40.0914 52.0437C40.8468 50.9131 41.25 49.5839 41.25 48.2242C41.25 46.4008 40.5257 44.6521 39.2364 43.3628C37.9471 42.0735 36.1984 41.3492 34.375 41.3492ZM34.375 52.3492C33.5592 52.3492 32.7616 52.1072 32.0833 51.654C31.4049 51.2007 30.8762 50.5565 30.564 49.8027C30.2518 49.049 30.1701 48.2196 30.3293 47.4194C30.4884 46.6192 30.8813 45.8842 31.4582 45.3073C32.0351 44.7305 32.7701 44.3376 33.5703 44.1784C34.3704 44.0193 35.1998 44.1009 35.9536 44.4132C36.7073 44.7254 37.3516 45.2541 37.8048 45.9324C38.2581 46.6108 38.5 47.4083 38.5 48.2242C38.5 49.3182 38.0654 50.3674 37.2918 51.141C36.5182 51.9146 35.469 52.3492 34.375 52.3492Z" fill="white"/>
</svg>
