<svg width="74" height="74" viewBox="0 0 74 74" fill="none" xmlns="http://www.w3.org/2000/svg">
<g clip-path="url(#clip0_401_806)">
<path d="M72.403 59.8405V56.2679C72.4126 55.3474 72.1384 54.4463 71.6177 53.6872C69.4032 50.5148 65.8027 48.8601 63.1721 48.0301C61.8398 47.6133 60.4516 47.4029 59.0557 47.4063H38.5661C33.4065 47.4063 29.386 50.1163 26.1553 52.2944C25.199 52.969 24.2066 53.5909 23.1826 54.1575C21.6352 54.953 19.4139 54.9716 16.6021 54.9959C13.112 54.9221 9.6252 55.2566 6.21274 55.9924C1.49228 57.113 -0.700278 60.7901 0.19729 66.0813C0.319461 66.7866 0.657332 67.4367 1.16436 67.9419C1.67138 68.4472 2.3226 68.7828 3.02832 68.9025C4.77117 69.2005 6.53613 69.3505 8.30429 69.3508C8.40196 69.3508 8.49903 69.3508 8.59613 69.3496L9.08008 69.345C9.34162 70.6662 10.0566 71.8544 11.1013 72.7044C12.146 73.5543 13.4549 74.0125 14.8017 73.9997C16.1484 73.9869 17.4483 73.504 18.4768 72.6344C19.5052 71.7648 20.1975 70.5632 20.4339 69.2373L53.5262 68.9233C53.6998 70.3491 54.3986 71.6591 55.4861 72.5974C56.5736 73.5358 57.9718 74.0352 59.4077 73.9981C60.8436 73.961 62.2142 73.3901 63.2518 72.3968C64.2894 71.4036 64.9196 70.0593 65.0194 68.6264C66.4761 68.3497 69.2484 67.813 70.8054 67.4476C71.5791 67.2586 72.2829 66.8532 72.8345 66.2788C73.3862 65.7044 73.7628 64.9847 73.9204 64.2041C73.9731 64.0697 74.0001 63.9267 74 63.7823V62.5516C74.0332 61.9921 73.8991 61.4355 73.6147 60.9526C73.3302 60.4698 72.9084 60.0826 72.403 59.8405ZM59.5485 49.737C60.5422 49.7733 61.5268 49.9409 62.4766 50.2354C64.7382 50.949 67.8014 52.3433 69.6511 54.9219H59.5485V49.737ZM70.0907 57.2344V59.5469H67.6413V57.2344H70.0907ZM42.7847 49.7188H57.2362V54.9219H42.7847V49.7188ZM27.448 54.2117C30.4174 52.2103 34.1127 49.7188 38.5661 49.7188H40.4725V54.9219H26.3832C26.7325 54.6917 27.0859 54.4557 27.448 54.2117ZM6.18826 58.404C6.08206 58.8348 5.91767 59.2491 5.69962 59.6356C5.59867 59.816 5.45162 59.9665 5.27348 60.0715C5.09534 60.1766 4.89251 60.2325 4.68571 60.2334H3.40474C4.1172 59.3462 5.09118 58.7061 6.18826 58.404ZM14.7488 71.6875C14.0627 71.6876 13.392 71.4842 12.8215 71.1031C12.251 70.722 11.8064 70.1803 11.5438 69.5465C11.2812 68.9127 11.2124 68.2152 11.3462 67.5423C11.48 66.8694 11.8104 66.2513 12.2955 65.7662C12.7806 65.281 13.3986 64.9506 14.0715 64.8167C14.7444 64.6828 15.4419 64.7515 16.0757 65.014C16.7096 65.2766 17.2513 65.7212 17.6325 66.2916C18.0137 66.8621 18.2171 67.5327 18.2171 68.2188C18.2162 69.1384 17.8505 70.0201 17.2002 70.6704C16.55 71.3207 15.6684 71.6865 14.7488 71.6875ZM59.2594 71.6875C58.5734 71.6876 57.9027 71.4842 57.3322 71.1031C56.7617 70.722 56.3171 70.1803 56.0545 69.5465C55.7919 68.9127 55.7231 68.2152 55.8569 67.5423C55.9907 66.8694 56.321 66.2513 56.8061 65.7662C57.2912 65.281 57.9093 64.9506 58.5822 64.8167C59.2551 64.6828 59.9525 64.7515 60.5864 65.014C61.2203 65.2766 61.762 65.7212 62.1432 66.2916C62.5244 66.8621 62.7278 67.5327 62.7278 68.2188C62.7268 69.1384 62.3611 70.0201 61.7109 70.6704C61.0607 71.3207 60.1791 71.6865 59.2594 71.6875ZM71.6878 63.5707C71.6362 63.9494 71.4753 64.3049 71.2247 64.5936C70.9741 64.8823 70.6448 65.0917 70.2771 65.1961C68.8249 65.5371 66.1901 66.0491 64.7168 66.3299C64.3171 65.1701 63.5583 64.1677 62.5505 63.4682C61.5427 62.7687 60.3383 62.4083 59.112 62.4394C57.8856 62.4705 56.701 62.8914 55.73 63.6411C54.7589 64.3909 54.052 65.4304 53.7115 66.609L20.3782 66.9252C20.0841 65.6409 19.3599 64.4958 18.3256 63.6796C17.2914 62.8635 16.0093 62.4253 14.6919 62.4378C13.3744 62.4503 12.1009 62.9127 11.0823 63.7484C10.0638 64.584 9.3614 65.7427 9.09172 67.0323L8.57467 67.0372C6.8471 67.0553 5.12145 66.9166 3.41895 66.6228C3.18519 66.5845 2.96903 66.4747 2.80028 66.3085C2.63154 66.1422 2.51851 65.9278 2.47678 65.6946C2.28416 64.6552 2.26838 63.5907 2.4301 62.546H4.68571C5.30226 62.5447 5.90744 62.3798 6.43943 62.0682C6.97142 61.7565 7.41117 61.3093 7.71377 60.7721C8.21419 59.8792 8.51758 58.8895 8.60354 57.8696C11.2558 57.4578 13.938 57.27 16.6218 57.3084C17.6878 57.2991 18.6995 57.2884 19.6557 57.2338L19.6623 57.2344H65.3291V59.5469C65.3297 60.16 65.5734 60.7478 66.0069 61.1814C66.4404 61.6149 67.0282 61.8588 67.6413 61.8594H70.9568C70.9837 61.8594 71.0091 61.8533 71.0357 61.8514C71.0963 61.8639 71.1579 61.8715 71.2198 61.8741C71.5303 61.8814 71.6878 62.1095 71.6878 62.5516L71.6878 63.5707Z" fill="url(#paint0_linear_401_806)"/>
<path d="M49.1434 61.2812H24.8648C24.5582 61.2812 24.2641 61.4031 24.0472 61.6199C23.8304 61.8367 23.7086 62.1308 23.7086 62.4375C23.7086 62.7442 23.8304 63.0383 24.0472 63.2551C24.2641 63.4719 24.5582 63.5938 24.8648 63.5938H49.1434C49.45 63.5938 49.7441 63.4719 49.961 63.2551C50.1778 63.0383 50.2996 62.7442 50.2996 62.4375C50.2996 62.1308 50.1778 61.8367 49.961 61.6199C49.7441 61.4031 49.45 61.2812 49.1434 61.2812Z" fill="url(#paint1_linear_401_806)"/>
<path d="M52.6118 35.2656H21.3965C21.0898 35.2656 20.7957 35.3874 20.5789 35.6043C20.3621 35.8211 20.2402 36.1152 20.2402 36.4219C20.2402 36.7285 20.3621 37.0226 20.5789 37.2395C20.7957 37.4563 21.0898 37.5781 21.3965 37.5781H52.6118C52.9184 37.5781 53.2125 37.4563 53.4294 37.2395C53.6462 37.0226 53.768 36.7285 53.768 36.4219C53.768 36.1152 53.6462 35.8211 53.4294 35.6043C53.2125 35.3874 52.9184 35.2656 52.6118 35.2656Z" fill="url(#paint2_linear_401_806)"/>
<path d="M52.6118 39.8906H21.3965C21.0898 39.8906 20.7957 40.0124 20.5789 40.2293C20.3621 40.4461 20.2402 40.7402 20.2402 41.0469C20.2402 41.3535 20.3621 41.6476 20.5789 41.8645C20.7957 42.0813 21.0898 42.2031 21.3965 42.2031H52.6118C52.9184 42.2031 53.2125 42.0813 53.4294 41.8645C53.6462 41.6476 53.768 41.3535 53.768 41.0469C53.768 40.7402 53.6462 40.4461 53.4294 40.2293C53.2125 40.0124 52.9184 39.8906 52.6118 39.8906Z" fill="url(#paint3_linear_401_806)"/>
<path d="M57.8149 2.15035e-05H28.2897C28.1366 2.02233e-05 27.9849 0.0304379 27.8437 0.0895089C27.7024 0.14858 27.5742 0.235127 27.4667 0.344127L13.0586 14.9429C12.8451 15.1594 12.7255 15.4511 12.7255 15.7551V52.7793C13.5321 52.7378 14.3027 52.7152 15.0378 52.7028V17.3438H25.6173C26.5057 17.3273 27.3512 16.9593 27.9687 16.3204C28.5862 15.6815 28.9251 14.8238 28.9112 13.9354V2.31252H57.8148C58.1169 2.3086 58.4081 2.42461 58.6248 2.63512C58.8414 2.84562 58.9657 3.13344 58.9704 3.43546V9.30494C59.3515 9.27044 59.7366 9.25002 60.1265 9.25002C60.5164 9.25002 60.9016 9.27042 61.2826 9.30494V3.43546C61.2773 2.52037 60.9092 1.64476 60.2591 1.00072C59.609 0.356677 58.73 -0.00320455 57.8149 2.15035e-05ZM26.599 13.9354C26.613 14.2107 26.5177 14.4803 26.3338 14.6855C26.1499 14.8908 25.8924 15.015 25.6173 15.0313H16.2204L26.599 4.51525V13.9354Z" fill="url(#paint4_linear_401_806)"/>
<path d="M58.9704 34.6328V45.094H59.0556C59.8007 45.0959 60.5448 45.1489 61.2827 45.2525V34.6328C60.9016 34.6673 60.5164 34.6877 60.1265 34.6877C59.7366 34.6877 59.3515 34.6673 58.9704 34.6328Z" fill="url(#paint5_linear_401_806)"/>
<path d="M21.3964 21.3906C21.0898 21.3906 20.7957 21.5124 20.5788 21.7293C20.362 21.9461 20.2402 22.2402 20.2402 22.5469C20.2402 22.8535 20.362 23.1476 20.5788 23.3645C20.7957 23.5813 21.0898 23.7031 21.3964 23.7031H47.5305C47.4507 23.1284 47.4101 22.549 47.4092 21.9688C47.4092 21.7749 47.4152 21.5824 47.4239 21.3906H21.3964Z" fill="url(#paint6_linear_401_806)"/>
<path d="M21.3964 28.3281H49.1201C48.6944 27.5943 48.3436 26.8196 48.073 26.0156H21.3964C21.0898 26.0156 20.7957 26.1374 20.5788 26.3543C20.362 26.5711 20.2402 26.8652 20.2402 27.1719C20.2402 27.4785 20.362 27.7726 20.5788 27.9895C20.7957 28.2063 21.0898 28.3281 21.3964 28.3281Z" fill="url(#paint7_linear_401_806)"/>
<path d="M21.3964 32.9531H52.6117C52.8691 32.9522 53.1187 32.8645 53.3202 32.7044C52.4082 32.124 51.5734 31.4306 50.8356 30.6406H21.3964C21.0898 30.6406 20.7957 30.7624 20.5788 30.9793C20.362 31.1961 20.2402 31.4902 20.2402 31.7969C20.2402 32.1035 20.362 32.3976 20.5788 32.6145C20.7957 32.8313 21.0898 32.9531 21.3964 32.9531Z" fill="url(#paint8_linear_401_806)"/>
<path d="M70.5316 21.9689C70.5314 19.911 69.921 17.8994 68.7775 16.1884C67.634 14.4775 66.0089 13.144 64.1076 12.3567C62.2063 11.5693 60.1142 11.3634 58.0959 11.765C56.0776 12.1666 54.2237 13.1577 52.7686 14.6129C51.3135 16.0682 50.3227 17.9222 49.9213 19.9405C49.5199 21.9589 49.726 24.051 50.5136 25.9522C51.3012 27.8534 52.6348 29.4784 54.3459 30.6216C56.057 31.7649 58.0687 32.3751 60.1265 32.3751C62.8853 32.3718 65.5301 31.2744 67.4808 29.3235C69.4314 27.3726 70.5286 24.7277 70.5316 21.9689ZM60.1265 30.0626C58.5257 30.0628 56.9608 29.5883 55.6296 28.699C54.2985 27.8098 53.261 26.5458 52.6482 25.0669C52.0355 23.5879 51.8751 21.9605 52.1873 20.3904C52.4995 18.8203 53.2703 17.3781 54.4022 16.2461C55.5341 15.114 56.9762 14.3431 58.5463 14.0307C60.1163 13.7183 61.7438 13.8786 63.2228 14.4911C64.7018 15.1037 65.9659 16.1411 66.8553 17.4721C67.7447 18.8032 68.2194 20.3681 68.2194 21.9689C68.2171 24.1146 67.3638 26.1718 65.8466 27.6892C64.3294 29.2066 62.2723 30.0601 60.1265 30.0626Z" fill="url(#paint9_linear_401_806)"/>
<path d="M62.8147 18.8027L58.5374 22.7143L57.4383 21.7093C57.3264 21.6057 57.1952 21.5252 57.0521 21.4726C56.909 21.4199 56.7569 21.396 56.6046 21.4023C56.4522 21.4086 56.3026 21.445 56.1644 21.5094C56.0262 21.5738 55.902 21.6649 55.7991 21.7774C55.6963 21.8899 55.6167 22.0217 55.5649 22.1651C55.5132 22.3086 55.4903 22.4608 55.4976 22.6131C55.5049 22.7654 55.5423 22.9148 55.6076 23.0526C55.6729 23.1904 55.7648 23.3139 55.878 23.4161L57.7573 25.1343C57.9704 25.3292 58.2487 25.4372 58.5374 25.4372C58.8262 25.4372 59.1045 25.3292 59.3176 25.1343L64.375 20.5093C64.599 20.3018 64.7318 20.0142 64.7445 19.7091C64.7571 19.404 64.6486 19.1063 64.4426 18.881C64.2366 18.6556 63.9498 18.5209 63.6448 18.5062C63.3398 18.4915 63.0414 18.5981 62.8147 18.8027Z" fill="url(#paint10_linear_401_806)"/>
</g>
<defs>
<linearGradient id="paint0_linear_401_806" x1="37.0025" y1="47.4062" x2="37.0025" y2="74" gradientUnits="userSpaceOnUse">
<stop stop-color="white"/>
<stop offset="1" stop-color="#999999"/>
</linearGradient>
<linearGradient id="paint1_linear_401_806" x1="37.0041" y1="61.2812" x2="37.0041" y2="63.5938" gradientUnits="userSpaceOnUse">
<stop stop-color="white"/>
<stop offset="1" stop-color="#999999"/>
</linearGradient>
<linearGradient id="paint2_linear_401_806" x1="37.0041" y1="35.2656" x2="37.0041" y2="37.5781" gradientUnits="userSpaceOnUse">
<stop stop-color="white"/>
<stop offset="1" stop-color="#999999"/>
</linearGradient>
<linearGradient id="paint3_linear_401_806" x1="37.0041" y1="39.8906" x2="37.0041" y2="42.2031" gradientUnits="userSpaceOnUse">
<stop stop-color="white"/>
<stop offset="1" stop-color="#999999"/>
</linearGradient>
<linearGradient id="paint4_linear_401_806" x1="37.0041" y1="0" x2="37.0041" y2="52.7793" gradientUnits="userSpaceOnUse">
<stop stop-color="white"/>
<stop offset="1" stop-color="#999999"/>
</linearGradient>
<linearGradient id="paint5_linear_401_806" x1="60.1265" y1="34.6328" x2="60.1265" y2="45.2525" gradientUnits="userSpaceOnUse">
<stop stop-color="white"/>
<stop offset="1" stop-color="#999999"/>
</linearGradient>
<linearGradient id="paint6_linear_401_806" x1="33.8853" y1="21.3906" x2="33.8853" y2="23.7031" gradientUnits="userSpaceOnUse">
<stop stop-color="white"/>
<stop offset="1" stop-color="#999999"/>
</linearGradient>
<linearGradient id="paint7_linear_401_806" x1="34.6801" y1="26.0156" x2="34.6801" y2="28.3281" gradientUnits="userSpaceOnUse">
<stop stop-color="white"/>
<stop offset="1" stop-color="#999999"/>
</linearGradient>
<linearGradient id="paint8_linear_401_806" x1="36.7802" y1="30.6406" x2="36.7802" y2="32.9531" gradientUnits="userSpaceOnUse">
<stop stop-color="white"/>
<stop offset="1" stop-color="#999999"/>
</linearGradient>
<linearGradient id="paint9_linear_401_806" x1="60.1265" y1="11.5649" x2="60.1265" y2="32.3751" gradientUnits="userSpaceOnUse">
<stop stop-color="white"/>
<stop offset="1" stop-color="#999999"/>
</linearGradient>
<linearGradient id="paint10_linear_401_806" x1="60.1209" y1="18.5049" x2="60.1209" y2="25.4372" gradientUnits="userSpaceOnUse">
<stop stop-color="white"/>
<stop offset="1" stop-color="#999999"/>
</linearGradient>
<clipPath id="clip0_401_806">
<rect width="74" height="74" fill="white"/>
</clipPath>
</defs>
</svg>
