<svg width="88" height="88" viewBox="0 0 88 88" fill="none" xmlns="http://www.w3.org/2000/svg">
<path d="M78.375 23.375C78.3966 19.4905 77.1521 15.7047 74.83 12.5906C72.5079 9.47647 69.2345 7.20356 65.5053 6.11588C61.7761 5.0282 57.7941 5.18495 54.1619 6.5624C50.5297 7.93985 47.4452 10.463 45.375 13.75C44.8938 13.75 44.4263 13.75 44 13.75C37.2013 13.75 30.5552 15.7661 24.9023 19.5433C19.2493 23.3204 14.8434 28.6891 12.2417 34.9703C9.63989 41.2515 8.95915 48.1632 10.2855 54.8313C11.6119 61.4994 14.8858 67.6244 19.6932 72.4318C24.5007 77.2393 30.6257 80.5132 37.2938 81.8395C43.9619 83.1659 50.8735 82.4852 57.1548 79.8834C63.436 77.2816 68.8046 72.8757 72.5818 67.2228C76.359 61.5698 78.375 54.9238 78.375 48.125C78.3832 43.1058 77.2797 38.1471 75.1438 33.605C77.2429 30.6063 78.3708 27.0354 78.375 23.375ZM60.5 8.25004C63.4915 8.25004 66.4157 9.1371 68.903 10.7991C71.3903 12.461 73.3289 14.8232 74.4737 17.587C75.6185 20.3507 75.918 23.3918 75.3344 26.3258C74.7508 29.2597 73.3103 31.9548 71.195 34.07C69.0797 36.1853 66.3847 37.6258 63.4508 38.2094C60.5168 38.793 57.4757 38.4935 54.7119 37.3487C51.9482 36.2039 49.586 34.2653 47.924 31.778C46.2621 29.2907 45.375 26.3665 45.375 23.375C45.375 19.3636 46.9685 15.5165 49.805 12.68C52.6415 9.84356 56.4886 8.25004 60.5 8.25004ZM67.375 48.125C67.375 48.5925 67.375 49.0463 67.375 49.5H63.5388C62.4066 49.4995 61.292 49.2193 60.2942 48.6843C59.2963 48.1494 58.446 47.3764 57.8188 46.4338L57.2138 45.54C56.3358 44.2217 55.1461 43.1404 53.7502 42.3921C52.3542 41.6437 50.7952 41.2515 49.2113 41.25H37.4138C35.8311 41.25 34.2729 41.6401 32.877 42.386C31.4812 43.1319 30.2908 44.2105 29.4113 45.5263L28.8063 46.4475C28.1775 47.3876 27.3265 48.1579 26.3287 48.6904C25.3309 49.2229 24.2172 49.501 23.0863 49.5H20.6938C20.6938 49.0463 20.625 48.5925 20.625 48.125C20.6332 42.1573 22.9237 36.4187 27.0269 32.0854C31.1301 27.7521 36.7353 25.1523 42.6938 24.8188C42.9138 27.5044 43.7381 30.1054 45.1051 32.4275C46.4721 34.7496 48.3463 36.7326 50.5877 38.2281C52.8291 39.7237 55.3797 40.6932 58.0486 41.0641C60.7175 41.4351 63.4357 41.1978 66 40.37C66.8997 42.8571 67.3648 45.4803 67.375 48.125ZM65.2713 57.75H59.125C55.843 57.75 52.6953 59.0538 50.3746 61.3746C48.0538 63.6954 46.75 66.843 46.75 70.125V71.3213C44.9244 71.5596 43.0756 71.5596 41.25 71.3213V70.125C41.25 66.843 39.9462 63.6954 37.6255 61.3746C35.3047 59.0538 32.1571 57.75 28.875 57.75H22.7288C21.9241 55.9973 21.3465 54.149 21.01 52.25H23.0863C24.6689 52.2501 26.2272 51.8599 27.623 51.114C29.0189 50.3681 30.2093 49.2896 31.0888 47.9738L31.6938 47.0525C32.3226 46.1125 33.1736 45.3421 34.1713 44.8097C35.1691 44.2772 36.2828 43.9991 37.4138 44H49.2113C50.3551 43.9892 51.4835 44.264 52.4943 44.7994C53.5051 45.3348 54.3664 46.114 55 47.0663L55.605 47.96C56.4765 49.2687 57.6552 50.344 59.0383 51.0919C60.4213 51.8397 61.9665 52.2374 63.5388 52.25H66.99C66.6535 54.149 66.0759 55.9973 65.2713 57.75ZM63.8 60.5C60.5572 65.6704 55.4279 69.3743 49.5 70.8263V70.125C49.5 67.5723 50.5141 65.1242 52.3191 63.3191C54.1241 61.5141 56.5723 60.5 59.125 60.5H63.8ZM24.2 60.5H28.875C31.4277 60.5 33.8759 61.5141 35.6809 63.3191C37.486 65.1242 38.5 67.5723 38.5 70.125V70.8263C32.5721 69.3743 27.4428 65.6704 24.2 60.5ZM75.625 48.125C75.625 54.3799 73.7702 60.4942 70.2952 65.6949C66.8202 70.8956 61.8811 74.9491 56.1024 77.3427C50.3237 79.7363 43.9649 80.3626 37.8303 79.1424C31.6956 77.9221 26.0606 74.9101 21.6378 70.4873C17.2149 66.0644 14.2029 60.4294 12.9827 54.2948C11.7624 48.1601 12.3887 41.8014 14.7823 36.0227C17.1759 30.244 21.2294 25.3048 26.4301 21.8298C31.6308 18.3548 37.7452 16.5 44 16.5C43.2685 18.2741 42.8274 20.1545 42.6938 22.0688C38.3785 22.2717 34.1815 23.5449 30.4809 25.7737C26.7802 28.0026 23.6921 31.117 21.4948 34.8365C19.2975 38.5559 18.06 42.7636 17.8937 47.0804C17.7275 51.3972 18.6378 55.6876 20.5425 59.565L20.6663 59.7988C22.5214 63.5026 25.2307 66.7122 28.5705 69.1628C31.9104 71.6133 35.7852 73.2345 39.875 73.8925C42.6044 74.3691 45.3957 74.3691 48.125 73.8925C52.2222 73.2406 56.1053 71.6222 59.4528 69.1714C62.8003 66.7206 65.5159 63.5077 67.375 59.7988L67.4988 59.565C69.0443 56.4396 69.9388 53.0327 70.1279 49.5511C70.317 46.0695 69.7968 42.5858 68.5988 39.3113C70.3088 38.4414 71.8723 37.3094 73.2325 35.9563C74.832 39.8129 75.6454 43.95 75.625 48.125ZM52.6488 25.7263C52.5206 25.5981 52.4189 25.4459 52.3495 25.2784C52.2801 25.1109 52.2444 24.9313 52.2444 24.75C52.2444 24.5687 52.2801 24.3892 52.3495 24.2217C52.4189 24.0542 52.5206 23.902 52.6488 23.7738C52.777 23.6456 52.9292 23.5439 53.0967 23.4745C53.2642 23.4051 53.4437 23.3694 53.625 23.3694C53.8063 23.3694 53.9859 23.4051 54.1534 23.4745C54.3209 23.5439 54.4731 23.6456 54.6013 23.7738L57.75 26.9363L66.3988 18.2738C66.6577 18.0149 67.0089 17.8694 67.375 17.8694C67.7412 17.8694 68.0923 18.0149 68.3513 18.2738C68.6102 18.5327 68.7556 18.8839 68.7556 19.25C68.7556 19.6162 68.6102 19.9674 68.3513 20.2263L58.7263 29.8513C58.5984 29.9802 58.4464 30.0825 58.2788 30.1523C58.1112 30.2221 57.9315 30.258 57.75 30.258C57.5685 30.258 57.3888 30.2221 57.2212 30.1523C57.0537 30.0825 56.9016 29.9802 56.7738 29.8513L52.6488 25.7263ZM44 46.75C42.6403 46.75 41.3111 47.1532 40.1805 47.9087C39.0499 48.6641 38.1687 49.7378 37.6483 50.9941C37.128 52.2503 36.9918 53.6327 37.2571 54.9663C37.5224 56.2999 38.1772 57.5249 39.1387 58.4864C40.1001 59.4479 41.3251 60.1027 42.6588 60.3679C43.9924 60.6332 45.3747 60.4971 46.631 59.9767C47.8872 59.4564 48.9609 58.5752 49.7164 57.4446C50.4718 56.314 50.875 54.9848 50.875 53.625C50.875 51.8017 50.1507 50.053 48.8614 48.7637C47.5721 47.4744 45.8234 46.75 44 46.75ZM44 57.75C43.1842 57.75 42.3866 57.5081 41.7083 57.0548C41.0299 56.6016 40.5012 55.9573 40.189 55.2036C39.8768 54.4499 39.7951 53.6205 39.9543 52.8203C40.1134 52.0201 40.5063 51.2851 41.0832 50.7082C41.6601 50.1313 42.3951 49.7385 43.1953 49.5793C43.9954 49.4201 44.8248 49.5018 45.5786 49.814C46.3323 50.1262 46.9766 50.655 47.4298 51.3333C47.8831 52.0117 48.125 52.8092 48.125 53.625C48.125 54.7191 47.6904 55.7683 46.9168 56.5418C46.1432 57.3154 45.094 57.75 44 57.75Z" fill="white"/>
</svg>
