<svg width="41" height="71" viewBox="0 0 41 71" fill="none" xmlns="http://www.w3.org/2000/svg">
<path d="M36.1338 0H4.43746C1.99047 0 0 1.99047 0 4.43747V66.5625C0 69.0095 1.99047 71 4.43746 71H36.1338C38.5808 71 40.5712 69.0095 40.5712 66.5625V4.43747C40.5712 1.99047 38.5808 0 36.1338 0ZM39.0921 66.5625C39.0921 68.1937 37.7649 69.5208 36.1338 69.5208H4.43746C2.80632 69.5208 1.47916 68.1937 1.47916 66.5625V4.43747C1.47916 2.80632 2.80632 1.47916 4.43746 1.47916H36.1338C37.7649 1.47916 39.0921 2.80632 39.0921 4.43747V66.5625Z" fill="white"/>
<path d="M22.1978 61.252H18.3735C16.9092 61.252 15.7178 62.4433 15.7178 63.9072C15.7178 65.3716 16.9092 66.563 18.3735 66.563H22.1978C23.6619 66.563 24.8531 65.3716 24.8531 63.9072C24.8531 62.4432 23.6617 61.252 22.1978 61.252ZM22.1978 65.0838H18.3735C17.7249 65.0838 17.1969 64.5559 17.1969 63.9072C17.1969 63.2586 17.7249 62.7311 18.3735 62.7311H22.1978C22.8465 62.7311 23.374 63.2586 23.374 63.9072C23.374 64.5559 22.8463 65.0838 22.1978 65.0838Z" fill="white"/>
<path d="M26.2791 5.95206H27.7452C28.1537 5.95206 28.4848 5.62089 28.4848 5.21248C28.4848 4.80407 28.1537 4.4729 27.7452 4.4729H26.2791C25.8707 4.4729 25.5396 4.80407 25.5396 5.21248C25.5396 5.62089 25.8707 5.95206 26.2791 5.95206Z" fill="white"/>
<path d="M12.8265 5.91666H23.19C23.5984 5.91666 23.9296 5.58549 23.9296 5.17708C23.9296 4.76867 23.5984 4.4375 23.19 4.4375H12.8265C12.4181 4.4375 12.0869 4.76867 12.0869 5.17708C12.0869 5.58549 12.4179 5.91666 12.8265 5.91666Z" fill="white"/>
<path d="M16.0242 44.7969C15.6158 44.7969 15.2847 45.128 15.2847 45.5365C15.2847 45.9449 15.6158 46.276 16.0242 46.276H24.5464C24.9548 46.276 25.286 45.9449 25.286 45.5365C25.286 45.128 24.9548 44.7969 24.5464 44.7969H16.0242Z" fill="white"/>
<path d="M31.6262 49.6719H8.94612C8.53771 49.6719 8.20654 50.003 8.20654 50.4115C8.20654 50.8199 8.53771 51.151 8.94612 51.151H31.6262C32.0346 51.151 32.3658 50.8199 32.3658 50.4115C32.3658 50.003 32.0346 49.6719 31.6262 49.6719Z" fill="white"/>
<path d="M20.2856 35.5033C26.1549 35.5033 30.9298 30.7285 30.9298 24.859C30.9298 18.9896 26.1551 14.2148 20.2856 14.2148C14.4161 14.2148 9.64111 18.9896 9.64111 24.859C9.64111 30.7285 14.4163 35.5033 20.2856 35.5033ZM20.2856 15.6941C25.3392 15.6941 29.4506 19.8056 29.4506 24.8592C29.4506 29.9128 25.3392 34.0242 20.2856 34.0242C15.2317 34.0242 11.1203 29.9128 11.1203 24.8592C11.1203 19.8056 15.2317 15.6941 20.2856 15.6941Z" fill="white"/>
</svg>
