<svg width="17" height="17" viewBox="0 0 17 17" fill="none" xmlns="http://www.w3.org/2000/svg">
<path d="M8.5002 16.3764C8.27674 16.3777 8.05797 16.3124 7.87176 16.1889C7.68555 16.0653 7.54034 15.8892 7.45465 15.6828C7.36897 15.4764 7.34668 15.2492 7.39063 15.0301C7.43458 14.811 7.54279 14.61 7.70145 14.4526L13.6639 8.50137L7.70145 2.55012C7.51714 2.33491 7.42083 2.05807 7.43177 1.77494C7.44271 1.4918 7.56008 1.22322 7.76044 1.02286C7.96079 0.822508 8.22937 0.705135 8.51251 0.694198C8.79565 0.683262 9.07248 0.779569 9.28769 0.963874L16.0377 7.71387C16.2472 7.92466 16.3648 8.20979 16.3648 8.507C16.3648 8.80421 16.2472 9.08934 16.0377 9.30012L9.28769 16.0501C9.07815 16.258 8.79533 16.3751 8.5002 16.3764Z" fill="white"/>
<path d="M1.7502 16.3757C1.52674 16.377 1.30796 16.3117 1.12176 16.1882C0.935546 16.0647 0.79034 15.8885 0.704653 15.6821C0.618965 15.4757 0.596677 15.2485 0.640631 15.0294C0.684584 14.8103 0.792787 14.6093 0.951445 14.4519L6.91395 8.5007L0.951445 2.54945C0.739603 2.33761 0.620592 2.05029 0.620592 1.7507C0.620592 1.45111 0.739603 1.16379 0.951445 0.951947C1.16329 0.740105 1.45061 0.621094 1.7502 0.621094C2.04978 0.621094 2.3371 0.740105 2.54895 0.951947L9.29895 7.70195C9.50848 7.91273 9.62609 8.19786 9.62609 8.49507C9.62609 8.79228 9.50848 9.07741 9.29895 9.2882L2.54895 16.0382C2.44475 16.1445 2.3205 16.2291 2.18339 16.287C2.04628 16.3449 1.89904 16.3751 1.7502 16.3757Z" fill="white"/>
</svg>
