<svg width="23" height="17" viewBox="0 0 23 17" fill="none" xmlns="http://www.w3.org/2000/svg">
<path d="M11.1402 16.043C11.1383 16.043 11.1362 16.043 11.1342 16.043C10.4619 16.0384 4.51807 15.9844 2.83407 15.5306C1.65718 15.2154 0.728142 14.2908 0.410927 13.118C-0.0297072 11.4698 -0.00165759 8.29656 0.00140236 8.04318C-0.00148759 7.79097 -0.0298772 4.59145 0.409567 2.9297C0.410077 2.92818 0.410417 2.92649 0.410927 2.92496C0.724572 1.76558 1.67452 0.812329 2.83118 0.496273C2.83407 0.495426 2.83713 0.494748 2.84002 0.493902C4.50498 0.0579268 10.4605 0.00457317 11.1342 0H11.1463C11.8203 0.00457317 17.7799 0.0586042 19.4485 0.513041C20.6223 0.827404 21.5506 1.75084 21.8687 2.92208C22.3258 4.58502 22.2835 7.79148 22.2789 8.06215C22.2821 8.32874 22.3088 11.4736 21.8708 13.1301C21.8704 13.1318 21.8699 13.1333 21.8696 13.1348C21.5522 14.3076 20.6233 15.2322 19.4451 15.5477C19.4435 15.5482 19.4418 15.5486 19.4403 15.5491C17.7755 15.9849 11.8198 16.0382 11.1463 16.043C11.1442 16.043 11.1422 16.043 11.1402 16.043ZM2.0922 3.37449C1.70529 4.84128 1.74184 7.99999 1.74218 8.03183V8.05469C1.73062 8.93071 1.77125 11.4676 2.09237 12.6692C2.24809 13.2446 2.70624 13.7003 3.28729 13.856C4.5298 14.1909 9.37082 14.2962 11.1402 14.3086C12.9141 14.2962 17.7622 14.1937 18.9956 13.8723C19.5748 13.7161 20.0314 13.2618 20.1881 12.6858C20.5096 11.4666 20.5499 8.94206 20.5381 8.07163C20.5381 8.06248 20.5381 8.05334 20.5383 8.04419C20.5543 7.15768 20.5228 4.59112 20.1896 3.37991C20.1893 3.37872 20.189 3.37753 20.1888 3.37635C20.0324 2.79844 19.5741 2.34264 18.993 2.18699C17.7626 1.85179 12.9137 1.74678 11.1402 1.73441C9.36742 1.74678 4.52402 1.84908 3.28695 2.17022C2.71694 2.32774 2.24843 2.79979 2.0922 3.37449ZM8.92152 11.5335V4.50931L15.0142 8.0215L8.92152 11.5335Z" fill="white"/>
</svg>
