<svg width="19" height="18" viewBox="0 0 19 18" fill="none" xmlns="http://www.w3.org/2000/svg">
<path d="M2.27076 0C0.89772 0 0 0.901606 0 2.08664C0 3.24551 0.870977 4.17283 2.21807 4.17283H2.24413C3.64402 4.17283 4.51523 3.24551 4.51523 2.08664C4.48906 0.901606 3.64402 0 2.27076 0Z" fill="white"/>
<path d="M0.236588 5.82117H4.25056V17.8974H0.236588V5.82117Z" fill="white"/>
<path d="M14.1053 5.53918C11.9399 5.53918 10.4879 7.57394 10.4879 7.57394V5.82262H6.47379V17.8988H10.4876V11.155C10.4876 10.794 10.5138 10.4335 10.6199 10.1753C10.91 9.45441 11.5704 8.70755 12.6793 8.70755C14.1318 8.70755 14.7127 9.81498 14.7127 11.4384V17.8988H18.7263V10.9745C18.7263 7.26525 16.746 5.53918 14.1053 5.53918Z" fill="white"/>
</svg>
