<svg width="20" height="20" viewBox="0 0 20 20" fill="none" xmlns="http://www.w3.org/2000/svg">
<path d="M9.8178 19.2565C9.75403 19.2565 9.69027 19.2565 9.62607 19.2562C8.11666 19.2599 6.72199 19.2215 5.36566 19.139C4.12216 19.0633 2.98709 18.6336 2.08297 17.8964C1.21059 17.185 0.614843 16.2231 0.312343 15.0378C0.0490699 14.0059 0.0351129 12.9929 0.0217435 12.0131C0.0120471 11.3101 0.00205682 10.4771 0 9.62999C0.00205682 8.77934 0.0120471 7.94633 0.0217435 7.24334C0.0351129 6.2637 0.0490699 5.25072 0.312343 4.21863C0.614843 3.03332 1.21059 2.07146 2.08297 1.36009C2.98709 0.622869 4.12216 0.19314 5.36581 0.117479C6.72213 0.0350589 8.1171 -0.00343309 9.62974 0.000239809C11.1396 -0.00299234 12.5338 0.0350589 13.8902 0.117479C15.1337 0.19314 16.2687 0.622869 17.1728 1.36009C18.0454 2.07146 18.641 3.03332 18.9435 4.21863C19.2067 5.25057 19.2207 6.2637 19.2341 7.24334C19.2438 7.94633 19.2539 8.77934 19.2558 9.62646V9.62999C19.2539 10.4771 19.2438 11.3101 19.2341 12.0131C19.2207 12.9927 19.2069 14.0057 18.9435 15.0378C18.641 16.2231 18.0454 17.185 17.1728 17.8964C16.2687 18.6336 15.1337 19.0633 13.8902 19.139C12.5913 19.218 11.257 19.2565 9.8178 19.2565ZM9.62607 17.7518C11.1109 17.7553 12.4743 17.7178 13.7988 17.6373C14.739 17.5802 15.5543 17.275 16.2222 16.7304C16.8395 16.2269 17.2647 15.5323 17.4858 14.6658C17.705 13.8068 17.7176 12.8845 17.7298 11.9925C17.7394 11.2942 17.7493 10.4671 17.7514 9.62822C17.7493 8.78919 17.7394 7.9622 17.7298 7.26391C17.7176 6.37198 17.705 5.44964 17.4858 4.59048C17.2647 3.72397 16.8395 3.02935 16.2222 2.52587C15.5543 1.9814 14.739 1.67626 13.7988 1.61911C12.4743 1.53845 11.111 1.50128 9.6296 1.50451C8.14501 1.50099 6.78149 1.53845 5.45704 1.61911C4.51678 1.67626 3.70154 1.9814 3.03366 2.52587C2.41632 3.02935 1.99115 3.72397 1.77004 4.59048C1.55084 5.44964 1.53821 6.37183 1.52601 7.26391C1.51647 7.96278 1.50647 8.79036 1.50442 9.62999C1.50647 10.4659 1.51647 11.2937 1.52601 11.9925C1.53821 12.8845 1.55084 13.8068 1.77004 14.6658C1.99115 15.5323 2.41632 16.2269 3.03366 16.7304C3.70154 17.2749 4.51678 17.58 5.45704 17.6372C6.78149 17.7178 8.14531 17.7555 9.62607 17.7518ZM9.59022 14.3295C6.99804 14.3295 4.88892 12.2206 4.88892 9.62822C4.88892 7.03589 6.99804 4.92692 9.59022 4.92692C12.1826 4.92692 14.2915 7.03589 14.2915 9.62822C14.2915 12.2206 12.1826 14.3295 9.59022 14.3295ZM9.59022 6.43133C7.82753 6.43133 6.39334 7.86553 6.39334 9.62822C6.39334 11.3909 7.82753 12.8251 9.59022 12.8251C11.3531 12.8251 12.7871 11.3909 12.7871 9.62822C12.7871 7.86553 11.3531 6.43133 9.59022 6.43133ZM14.8181 3.4225C14.195 3.4225 13.6898 3.92759 13.6898 4.55081C13.6898 5.17403 14.195 5.67912 14.8181 5.67912C15.4413 5.67912 15.9464 5.17403 15.9464 4.55081C15.9464 3.92759 15.4413 3.4225 14.8181 3.4225Z" fill="white"/>
</svg>
