<svg width="15" height="15" viewBox="0 0 15 15" fill="none" xmlns="http://www.w3.org/2000/svg">
<path d="M14.2994 5.88497C14.2475 5.72816 14.1543 5.58821 14.0297 5.47979C13.9051 5.37137 13.7536 5.29846 13.5911 5.26872L9.96441 4.74455L8.31399 1.4508C8.23757 1.30043 8.12102 1.17415 7.97724 1.08595C7.83347 0.997739 7.66808 0.95105 7.49941 0.95105C7.33073 0.95105 7.16535 0.997739 7.02157 1.08595C6.8778 1.17415 6.76125 1.30043 6.68482 1.4508L5.06274 4.74455L1.43607 5.26872C1.27334 5.29607 1.12115 5.36732 0.995923 5.47478C0.870692 5.58224 0.777163 5.72184 0.725417 5.87854C0.673672 6.03523 0.665671 6.20308 0.702279 6.36398C0.738887 6.52489 0.818714 6.67275 0.933157 6.79164L3.55399 9.34872L2.93774 12.9612C2.90194 13.1322 2.91709 13.3099 2.9813 13.4723C3.04552 13.6347 3.15597 13.7747 3.29899 13.875C3.45176 13.9908 3.6385 14.0531 3.83024 14.0521C3.97839 14.0513 4.12418 14.0149 4.25524 13.9458L7.49941 12.2387L10.7436 13.9458C10.8934 14.0251 11.0625 14.0608 11.2316 14.0489C11.4007 14.0369 11.5631 13.9778 11.7003 13.8782C11.8375 13.7787 11.9441 13.6426 12.0078 13.4855C12.0716 13.3284 12.09 13.1566 12.0611 12.9896L11.4448 9.37705L14.0657 6.79164C14.1821 6.67522 14.2653 6.5297 14.3064 6.37023C14.3475 6.21076 14.3451 6.04319 14.2994 5.88497Z" fill="#FBC02D"/>
</svg>
