<svg width="26" height="26" viewBox="0 0 26 26" fill="none" xmlns="http://www.w3.org/2000/svg">
<g clip-path="url(#clip0_401_378)">
<path fill-rule="evenodd" clip-rule="evenodd" d="M21.6224 4.34209C19.342 2.05902 16.3093 0.801144 13.0784 0.799805C6.42075 0.799805 1.00243 6.21798 0.999752 12.8774C0.998859 15.0062 1.55497 17.0842 2.61201 18.9159L0.898438 25.1748L7.30149 23.4952C9.06579 24.4576 11.0521 24.9647 13.0734 24.9653H13.0785C19.7354 24.9653 25.1543 19.5467 25.1568 12.887C25.1581 9.65955 23.9029 6.62502 21.6224 4.34209ZM13.0784 22.9255H13.0742C11.2728 22.9248 9.50616 22.4407 7.96457 21.5261L7.59814 21.3085L3.79847 22.3053L4.81266 18.6007L4.57388 18.2208C3.56892 16.6224 3.03824 14.775 3.03913 12.8781C3.04122 7.343 7.54488 2.83978 13.0824 2.83978C15.7639 2.84068 18.2845 3.88625 20.1799 5.78386C22.0753 7.68146 23.1185 10.2038 23.1176 12.8863C23.1152 18.4218 18.6118 22.9255 13.0784 22.9255ZM18.585 15.4067C18.2833 15.2555 16.7995 14.5256 16.5227 14.4248C16.2463 14.324 16.0449 14.2739 15.8439 14.5759C15.6426 14.8779 15.0643 15.5578 14.8882 15.7591C14.712 15.9605 14.5362 15.9858 14.2343 15.8347C13.9325 15.6837 12.9601 15.3648 11.8072 14.3367C10.9101 13.5364 10.3045 12.5481 10.1283 12.2461C9.95248 11.9438 10.1268 11.7962 10.2607 11.6302C10.5874 11.2245 10.9146 10.7991 11.0152 10.5979C11.1159 10.3964 11.0654 10.2201 10.9899 10.0691C10.9146 9.91811 10.311 8.43261 10.0596 7.82815C9.81441 7.2399 9.56581 7.31934 9.38044 7.31012C9.20459 7.30134 9.0033 7.29956 8.80201 7.29956C8.60087 7.29956 8.27387 7.37498 7.99715 7.67729C7.72058 7.97945 6.94101 8.70948 6.94101 10.195C6.94101 11.6805 8.02244 13.1155 8.1733 13.317C8.32415 13.5184 10.3015 16.5668 13.3289 17.8739C14.0489 18.1851 14.611 18.3707 15.0494 18.5098C15.7725 18.7395 16.4302 18.707 16.9503 18.6294C17.5302 18.5426 18.7357 17.8992 18.9875 17.1943C19.2389 16.4893 19.2389 15.8851 19.1633 15.7591C19.088 15.6332 18.8868 15.5578 18.585 15.4067Z" fill="white"/>
</g>
<defs>
<clipPath id="clip0_401_378">
<rect width="26" height="26" fill="white"/>
</clipPath>
</defs>
</svg>
